<svg width="2772" height="3182" viewBox="0 0 2772 3182" fill="none" xmlns="http://www.w3.org/2000/svg">
<mask id="mask0_1545_2433" style="mask-type:alpha" maskUnits="userSpaceOnUse" x="4" y="6" width="2763" height="3171">
<path d="M133.248 2836.45C155.922 2818.41 172.499 2801.07 190.013 2792.37C205.09 2785.07 214.808 2769.13 220.828 2738.32C222.183 2731.4 223.997 2725.17 225.806 2717.21C255.798 2698.45 287.397 2711.51 320.452 2697.59C311.863 2678.58 302.576 2684.49 294.941 2680.36C283.794 2674.51 272.501 2671.08 261.352 2664.53C256.007 2661.43 251.259 2653.14 242.998 2643.13C248.924 2634.81 251.954 2627.19 255.308 2626.84C304.394 2620.83 353.327 2614.48 402.419 2610.89C420.562 2609.46 438.877 2615.64 457.175 2615.25C471.965 2614.86 486.589 2608.94 501.375 2606.83C512.655 2605.07 524.086 2602.97 535.374 2604.32C582.201 2609.39 628.865 2609.96 675.173 2591.16C678.524 2589.77 682.026 2587.68 685.23 2588.36C745.043 2602.39 803.834 2575.6 863.291 2569.92C883.871 2567.79 904.294 2563.58 924.872 2560.42C960.235 2554.79 996.228 2556.77 1030.65 2540.77C1060.2 2526.85 1089.18 2530.59 1118.29 2526.01C1143.9 2521.79 1169.5 2514.12 1198.61 2506.78C1180.25 2486.07 1164.39 2485.42 1148.53 2485.11C1093.63 2484.22 1038.74 2483.67 983.842 2484.5C950.753 2484.93 917.519 2488.48 884.433 2489.95C882.45 2489.95 880.306 2486.15 877.86 2483.74C880.697 2460.55 885.669 2437.36 886.217 2413.49C887.162 2366.09 876.118 2340.86 854.918 2339.53C840.124 2338.54 825.032 2340.3 810.402 2343.8C734.054 2362.68 657.351 2362.53 580.657 2365.84C491.46 2369.53 402.1 2369.42 312.898 2371.03C297.039 2371.07 281.185 2373.19 266.648 2353.51C267.668 2335.17 274.224 2334.81 279.559 2334.1C309.288 2331.26 339.021 2330.49 368.597 2327.65C389.178 2325.52 409.6 2321.31 430.178 2318.15C440.391 2316.39 450.602 2314.29 460.817 2313.57C508.69 2310.33 556.572 2310.21 604.286 2304.2C652.152 2298.2 699.847 2284.93 747.708 2276.85C810.354 2266.31 873.009 2258.88 935.501 2248C955.926 2244.48 976.028 2234.05 996.595 2226.74C969.691 2201.55 943.006 2201.62 916.073 2224.18C912.117 2227.3 907.231 2224.89 902.81 2225.25C890.461 2226.32 877.956 2226 865.611 2228.8C844.123 2233.7 823.12 2249.67 801.128 2236.58C796.851 2233.82 791.821 2234.53 787.557 2236.62C742.783 2259.22 697.007 2247.92 651.898 2258.76C626.905 2264.71 602.079 2276.19 576.743 2267.6C556.831 2292.56 536.955 2272.2 516.818 2269.14C490.885 2265.41 464.334 2258.21 439.239 2283.87C435.437 2287.69 429.948 2288.05 426.127 2284.6C398.919 2259.76 372.121 2275.05 344.997 2282.73C328.236 2287.62 311.156 2287.32 294.23 2287.36C290.57 2287.37 286.281 2279.77 283.214 2273.21C274.015 2253.86 263.48 2248.7 251.44 2251.49C234.524 2255.34 217.452 2258.16 200.535 2261.66C199.304 2257.51 197.006 2253.36 197.15 2249.9C198.779 2211.62 192.053 2185.46 176.971 2171.43C172.691 2167.63 168.714 2162.8 164.433 2158.66C161.376 2155.9 158.321 2153.83 150.834 2147.97C166.82 2137.9 178.847 2130.25 191.635 2122.26C191.58 2101.16 191.84 2083.52 191.488 2065.53C190.981 2046.16 193.222 2028.51 200.055 2017.07C212.963 1996.28 213.339 1964.8 214.177 1935.05C224.802 1915.99 236.862 1921.15 247.992 1920.43C266.287 1919 284.268 1914.11 302.24 1905.76C322.193 1896.71 343.083 1896.31 363.512 1894.19C385.16 1892.05 406.968 1893.04 428.617 1891.25C493.717 1885.89 558.972 1881.92 623.91 1873.1C659.123 1868.51 694.328 1860.46 729.694 1856.22C788.995 1849.15 848.282 1837.23 907.576 1827.39C913.063 1826.34 918.549 1824.94 924.62 1814.2C920.191 1811.45 915.754 1805.58 911.485 1805.94C869.258 1810.89 826.873 1813.76 784.809 1822.87C701.749 1840.73 618.361 1850.28 534.961 1855C461.777 1858.99 388.584 1859.87 315.393 1861.79C293.589 1862.54 272.223 1855.67 252.958 1836.01C246.469 1803.16 265.064 1799.65 264.391 1775.44C255.218 1766.23 247.299 1770.52 240.636 1788.3C238.038 1786.23 234.377 1785.55 232.383 1781.05C220.881 1755.83 207.589 1746.18 191.736 1748.29C178.169 1750.4 164.441 1748.71 150.69 1738.37C167.919 1737.28 185.148 1736.55 202.527 1734.43C212.741 1733.36 223.261 1732.99 233.161 1728.12C248.847 1720.12 254.276 1696.93 251.28 1658.54C249.543 1635.71 247.655 1613.23 245.451 1586.25C237.667 1583.5 230.185 1579.72 222.405 1578.7C174.356 1572.94 126.313 1569.61 78.4099 1561.43C53.5426 1556.99 28.3649 1550.49 4.64596 1518.37C13.0682 1473.03 8.51274 1421.5 15.8631 1374.43C17.3638 1365.09 16.5718 1353.67 18.0717 1343.98C19.8703 1331.87 22.8914 1320.79 25.4533 1309.02C28.6171 1294.14 28.4262 1279.26 24.8805 1264.4C22.2596 1253.33 19.9427 1241.92 16.3934 1225.67C24.0107 1222.88 29.1891 1220.45 34.3701 1219.05C38.7887 1217.66 43.3616 1216.95 49.6101 1215.55C45.9146 1201.72 42.0764 1191.7 40.2161 1179.94C34.3285 1143.98 40.9683 1116.98 57.7331 1113.48C74.803 1109.97 92.0405 1112.35 109.118 1111.96C114.76 1111.95 120.25 1111.93 130.772 1111.9C112.084 1079.43 92.8964 1089.52 77.3031 1074.33C68.5272 1041.84 59.7513 1009.34 50.2048 973.733C53.0341 947.434 56.3066 915.598 60.774 874.073C66.0673 857.107 86.5258 866.741 88.5399 820.033C82.245 803.443 74.261 782.361 65.5101 759.551C80.8918 751.901 96.5677 740.098 112.42 737.635C129.34 735.17 146.437 742.045 163.52 743.73C180.603 745.416 197.836 746.063 214.917 746.711C245.723 748.015 276.684 750.011 307.489 750.623C315.418 750.602 323.805 750.581 328.011 726.007C285.748 717.122 242.942 733.838 202.446 700.386C199.542 697.972 197.54 690.366 195.546 685.874C196.562 666.152 203.122 667.173 208.152 666.122C221.564 663.666 234.981 662.593 247.786 661.176C248.225 653.91 248.83 651.833 248.521 650.45C248.058 648.376 247.135 645.264 246.219 644.921C225.922 638.746 205.625 632.572 185.023 626.398C182.782 585.236 168.119 575.933 153.6 563.516C194.644 572.751 233.67 568.499 272.07 558.021C253.574 540.425 233.576 532.174 212.833 530.498C200.326 529.493 187.656 524.336 175.593 517.794C161.086 509.875 146.724 499.188 138.389 460.463C143.103 455.261 148.564 444.177 152.382 446.243C174.831 458.985 197.191 437.478 219.943 449.528C241.015 460.198 263.127 460.832 284.791 464.582C307.522 468.674 330.25 471.383 352.825 473.746C360.451 474.419 368.067 470.94 379.039 468.489C363.527 425.632 342.586 465.124 328.173 434.718C314.681 406.731 294.929 434.458 277.805 416.859C282.517 410.966 286.468 405.766 292.396 398.14C261.562 386.111 232.711 374.424 203.711 364.12C185.242 357.249 168.583 342.762 154.467 309.242C160.398 302.653 165.719 296.412 171.04 290.518C169.842 240.012 146.819 241.109 131.79 207.937C152.077 210.306 167.483 211.996 184.108 213.683C184.062 195.694 183.566 180.819 183.987 166.634C184.557 151.411 186.195 136.185 187.518 116.809C194.837 116.79 202.462 116.77 210.239 116.75C245.613 115.621 281.143 115.529 316.514 113.016C323.985 112.304 332.51 106.747 338.737 97.0445C359.698 65.163 381.619 50.5765 406.674 68.5011C409.576 70.5693 413.229 67.7922 416.58 66.3998C417.646 66.0511 418.403 63.6275 419.466 61.895C418.047 43.9093 412.405 44.2698 406.774 48.4358C392.314 58.8516 378.287 59.5798 362.684 40.5929C366.018 32.6275 367.675 24.6664 370.112 23.6222C403.619 7.62197 437.311 4.42133 471.49 12.6357C484.917 15.7146 498.776 9.10571 512.347 8.72468C545.434 7.60129 578.673 5.78561 611.765 6.73791C676.884 8.64525 741.85 10.8989 806.974 15.2279C871.031 19.5596 934.94 25.6215 998.851 32.3752C1021.58 34.7381 1044.32 42.6362 1067.05 48.1126C1070.41 48.7958 1073.92 50.1705 1077.28 50.5078C1130.82 58.6721 1184.52 67.182 1238.06 74.6545C1289.32 82.1328 1340.43 93.417 1391.55 106.777C1425.58 115.684 1459.9 120.092 1494.08 126.577C1512.54 129.989 1512.54 129.989 1528.04 168.695C1531.24 169.724 1534.6 171.791 1537.96 171.437C1558.54 170 1578.52 170.986 1598.83 184.08C1616.25 195.451 1635 195.748 1653.16 200.199C1683.83 207.73 1714.5 214.916 1745.17 222.102C1749.75 223.128 1754.62 221.385 1758.75 224.834C1778.31 241.735 1799.19 236.838 1819.19 244.397C1861.01 260.548 1903.25 259.747 1945.06 270.018C1955.28 272.413 1965.65 274.462 1975.73 278.933C2001.38 290.283 2027.01 296.098 2053.1 299.49C2096.11 305.606 2139.29 315.181 2181.3 344.824C2211.7 366.194 2242.41 386.18 2274.9 391.285C2316.09 397.751 2319.3 401.203 2358.96 464.409C2371.82 484.786 2384.66 497.207 2399.47 502.358C2415.34 507.507 2431.36 510.925 2447.08 518.149C2461.28 524.685 2475.77 526.723 2487.89 552.984C2495.4 569.224 2508.98 570.227 2519.52 579.886C2539.7 598.17 2558.82 621.645 2581.4 624.7C2587.65 625.376 2593.63 637.814 2599.75 644.372C2606.94 651.964 2613.97 660.94 2621.46 665.072C2631.53 670.581 2641 674.017 2648.07 695.447C2651.45 705.817 2660 709.946 2666.56 712.697C2682.29 718.883 2698.31 723.685 2714.18 727.103C2724.71 729.498 2733.87 736.739 2744.75 757.122C2734.86 763.375 2727.71 771.004 2720.39 771.715C2689.6 774.908 2658.8 776.371 2628 777.835C2616.56 778.556 2605.12 776.856 2593.69 777.578C2585.15 777.6 2578 786.267 2574.54 804.611C2570.18 827.109 2579.66 835.387 2584.42 849.213C2577.76 868.949 2566.97 884.891 2578.03 915.652C2581.72 926.021 2580.7 944.704 2582.12 962.69C2589.91 969.589 2598.17 976.833 2610.09 987.526C2599.28 993.089 2591.81 994.838 2584.96 1001.08C2563.82 1019.82 2558.6 1067.92 2572.89 1108.36C2581.8 1133.59 2592.37 1151.55 2607.62 1152.2C2621.34 1152.86 2634.92 1154.9 2649.72 1156.59C2652.33 1163.85 2656.01 1170.76 2657.71 1179.75C2664.19 1211.91 2675.82 1225.72 2690.46 1228.44C2704.2 1231.18 2717.93 1232.87 2731.65 1234.57C2742.94 1235.92 2754.67 1231.74 2766.47 1254.54C2759.32 1260.79 2753.7 1268.76 2747.6 1270.16C2739.83 1272.25 2731.6 1271.24 2723.66 1268.49C2705.34 1262.31 2690.43 1275.15 2677.87 1309.78C2682.68 1343.67 2695.53 1359.89 2708.99 1373.35C2705.98 1389.96 2703.27 1404.15 2699.81 1422.84C2710.67 1433.54 2720.76 1443.55 2731.77 1454.93C2724.65 1474.33 2718.29 1491.64 2712.23 1507.92C2695.76 1507.96 2679.9 1507.65 2663.89 1508.04C2653.68 1508.07 2643.15 1507.75 2633.25 1511.58C2617.71 1517.5 2613.36 1544.15 2621.83 1575.26C2628.14 1598.77 2636.72 1614.32 2649.23 1616.36C2659.45 1618.06 2669.82 1618.38 2680.04 1620.78C2691.18 1623.17 2702.32 1627.64 2713.77 1631.07C2714.43 1650.79 2708.63 1646.65 2705.74 1650.12C2700.87 1656.01 2695.4 1660.87 2691.45 1668.84C2688.27 1675.42 2687.69 1688.22 2684.66 1695.15C2681.78 1702.07 2677.22 1709.35 2673.26 1709.7C2654.05 1711.14 2640.99 1732.27 2634.07 1770C2623.87 1775.56 2615.04 1780.77 2606.21 1785.29C2601.79 1787.73 2596.01 1793.62 2592.95 1789.83C2564.96 1755.3 2536.84 1793.43 2508.46 1786.93C2481.3 1780.77 2476.92 1795.66 2473.59 1865.21C2390.68 1879.26 2307.63 1842.46 2224.86 1858.58C2222.77 1875.89 2227.66 1878.64 2231.94 1881.05C2242.63 1887.25 2254.82 1883.76 2264.94 1906.91C2259.91 1908.66 2256.42 1912.47 2253.36 1910.75C2237.33 1901.45 2221.93 1904.26 2206.26 1917.44C2195.61 1926.47 2183.74 1934.11 2172.75 1932.41C2125.61 1924.57 2080.27 1963.09 2033.13 1955.6C2024.59 1954.24 2015.61 1963.26 2004.8 1968.47C2019.25 2013.06 2041.85 1967.68 2055.21 2000.52C2041.43 2039.3 2027.9 2056.63 2011.43 2057.02C1998.17 2057.05 1984.9 2057.43 1969.2 2057.82C1972.13 2070.96 1973.07 2081.33 1975.06 2082.71C1982.54 2087.88 1990.47 2089.59 1998.11 2094.07C1998.87 2094.41 1998.14 2106.18 1998.16 2114.48C2006.71 2115.84 2015.71 2118.24 2024.55 2117.87C2028.67 2117.86 2035.22 2114.38 2036.42 2108.5C2040.79 2086.35 2048.11 2088.06 2056.35 2089.77C2060.78 2090.79 2065.65 2090.09 2069.76 2087.31C2080.57 2079.67 2089.27 2083.45 2098.16 2101.08C2102.76 2110.06 2110.39 2111.42 2121.08 2119.35C2113.78 2124.56 2110.43 2129.07 2106.78 2129.42C2083.91 2131.56 2061.04 2135.07 2038.17 2134.44C1988.76 2133.19 1940.15 2147.5 1891.39 2161.81C1885.91 2163.55 1877.22 2165.3 1875.71 2172.92C1868.18 2209.61 1855.19 2196.15 1843.29 2195.14C1838.71 2194.81 1834.14 2193.09 1829.71 2191.37C1818.41 2186.9 1807.26 2178.28 1795.97 2177.97C1775.54 2178.02 1754.97 2182.57 1733.62 2185.05C1737.81 2210.98 1746.94 2205.42 1753.96 2207.13C1788.14 2215.35 1822.32 2222.52 1856.5 2230.39C1859.85 2231.08 1863.06 2233.84 1867.8 2236.59C1852.61 2260.5 1836.13 2255.35 1820.73 2257.82C1807.16 2259.93 1793.28 2255.81 1779.55 2253.77C1764.75 2251.39 1749.79 2244.85 1735 2246.62C1697.2 2251.22 1660.39 2230.21 1623.02 2225.12C1585.34 2219.68 1548.42 2214.24 1510.49 2229.21C1464.49 2247.67 1417.53 2249.86 1370.55 2246.18C1338.67 2243.49 1306.51 2249.8 1274.5 2252.65C1270.23 2253.01 1266.12 2256.83 1254.4 2262.74C1287.95 2266.46 1313.43 2271.58 1339.05 2271.86C1377.94 2272.45 1416.67 2273.74 1455.13 2285.74C1456.2 2286.09 1457.42 2285.74 1458.49 2285.74C1500.99 2268.67 1542.39 2299.36 1584.34 2303.05C1588.91 2303.39 1593.49 2305.8 1598.07 2306.13C1648.54 2306 1698.44 2320.06 1748.64 2330.65C1754.13 2331.79 1762.81 2326.35 1774.67 2314.32C1769.17 2308.11 1765.34 2303.97 1759.84 2298.1C1778.37 2271.07 1793.53 2295.94 1815.34 2295.54C1805.15 2305.6 1801.35 2309.41 1797.39 2313.23C1798.47 2316.68 1799.4 2323.26 1800.62 2323.25C1817.7 2325.63 1834.79 2326.97 1853.85 2329C1843.95 2332.83 1835.72 2335.96 1827.5 2339.1L1827.52 2348.09C1833.32 2351.19 1839.43 2353.6 1845.24 2357.73C1850.43 2361.52 1855.48 2367.05 1862.36 2373.6C1858.11 2381.57 1855.68 2386.07 1853.25 2390.23C1867.96 2417.87 1883.08 2428.55 1900.92 2428.16C1944.23 2426.67 1987.53 2426.21 2030.84 2425.75C2072.93 2425.64 2115.01 2425.53 2156.93 2420.23C2131.95 2428.6 2106.96 2436.62 2081.82 2444.99C2064.91 2450.57 2048.76 2457.88 2030.91 2451.7C2015.49 2446.2 1999.2 2457.31 1983.19 2458.39C1943.25 2461.61 1903.3 2464.48 1863.2 2465.97C1850.7 2466.35 1838.81 2469.49 1820.71 2485.45C1831.09 2491.65 1834.77 2496.14 1838.27 2495.78C1860.99 2493.99 1883.74 2505.7 1906.43 2494.22C1912.98 2490.75 1920.15 2492.8 1927.02 2494.86C1967.01 2508.25 2006.78 2496.73 2046.73 2495.94C2072.95 2495.87 2099.2 2502.37 2125.44 2505.42C2135.66 2506.78 2146.03 2509.52 2156.25 2508.11C2168.59 2506.35 2179.6 2515.31 2187.87 2532.24C2197.84 2552.63 2207.51 2577.16 2205.31 2612.46C2172.93 2648.52 2137.87 2654.14 2103.11 2660.12C2071.26 2665.73 2039.09 2667.55 2007.07 2670.74C1999.15 2671.46 1990.92 2673.55 1983.13 2670.11C1927.26 2646.39 1871.5 2666.25 1815.69 2666.05C1793.93 2683.4 1771.67 2685.54 1749.22 2672.79C1748.15 2672.1 1746.93 2673.49 1745.87 2673.84C1674.4 2692.01 1602.41 2689.09 1530.78 2704.49C1504.72 2710.1 1478.98 2722.27 1453.08 2728.91C1409.95 2739.4 1366.66 2747.82 1323.38 2756.92C1318.81 2757.97 1314.23 2758.33 1309.66 2757.65C1247.73 2750.2 1187.11 2778.38 1125.67 2785.45C1122.32 2785.81 1118.82 2788.24 1115.46 2788.25C1056 2790.82 997.19 2810.7 938.046 2819.5C918.687 2822.31 899.489 2828.25 880.286 2832.45C873.428 2834.19 866.576 2838.02 859.864 2837C794.27 2827.83 730.633 2868.12 665.536 2874.52C638.4 2877.35 610.991 2892.3 583.984 2886.14C562.165 2881.01 540.665 2881.41 519.169 2883.54C507.735 2884.61 496.46 2888.1 485.03 2890.55C478.171 2891.95 471.318 2895.43 464.605 2894.06C410.748 2883.13 357.256 2895.72 303.587 2898.28C270.347 2899.75 237.105 2899.84 204.018 2900.96C191.057 2901.34 179.3 2895.49 168.279 2879.26C158.024 2864.41 146.861 2852.68 132.023 2834.73L133.248 2836.45ZM1055.86 2204.79C1108.05 2222.64 1159.09 2205.56 1210.29 2189.51C1211.51 2189.16 1212.4 2181.2 1213.91 2174.97C1190.83 2154.62 1169.41 2185.47 1146.84 2184.14C1116.64 2182.49 1086.18 2197.1 1055.86 2204.79ZM1242.27 2172.13C1257.68 2178.32 1274.79 2190.38 1291.22 2172.01L1242.27 2172.13ZM402.052 463.241C417.649 479.806 431.807 470.775 450.238 463.116C431.773 457.629 417.713 445.903 402.052 463.241ZM1874.55 2077.44C1882.35 2087.8 1890.02 2103 1896.35 2075.65C1893.14 2073.24 1889.93 2068.4 1886.88 2069.1C1882.77 2069.81 1878.66 2074.31 1874.55 2077.44ZM482.567 463.379C480.734 462.345 478.901 460.966 476.918 460.626C476.613 460.626 476.01 463.395 475.556 464.78C477.389 465.814 479.222 467.193 481.205 467.533C481.51 467.533 482.113 464.764 482.567 463.379ZM2003.75 2033.17L2003.76 2038.01L2006.2 2035.93L2003.75 2033.17ZM1083.71 3069.59C1096.54 3077.86 1110.86 3072.98 1124.44 3076.75C1138.79 3080.52 1150.73 3100.9 1166.6 3101.55C1224.85 3102.78 1283.11 3108.16 1341.38 3115.28C1441.91 3127.82 1542.28 3142.44 1642.66 3156.71C1682.63 3162.48 1722.45 3169.99 1762.41 3176.12C1770.19 3177.48 1778.89 3180.22 1781.87 3153.23C1771.72 3117.63 1759.13 3085.48 1742.59 3057.85C1717.49 3081.44 1691.4 3075.63 1665.16 3069.81C1651.42 3066.74 1642.55 3053.61 1638.35 3023.87C1644.44 3019.71 1650.38 3015.54 1656.16 3011.37C1645.15 2999.64 1634.31 2996.21 1623.33 2994.85C1602.74 2992.14 1582.15 2991.5 1561.56 2989.13C1486.21 2981.02 1410.86 2972.57 1335.35 2964.81C1322.08 2963.46 1308.65 2959.34 1297.9 2988.77C1294.12 2999.16 1282.99 2999.19 1275.21 2998.87C1216.95 2996.94 1158.54 2993.63 1100.28 2991.01C1084.27 2990.36 1068.26 2990.06 1052.25 2991.48C1045.39 2992.19 1038.85 2998.78 1038.76 3024.04C1052.98 3038.88 1067.67 3058.9 1083.71 3069.24L1083.71 3069.59ZM1098.66 2834.3C1102.01 2835.68 1105.22 2838.09 1108.58 2838.08C1161.19 2838.29 1213.8 2837.81 1266.41 2838.71C1285.77 2839.01 1305.3 2840.69 1324.52 2845.14C1369.99 2855.05 1415.17 2871.19 1461.07 2870.73C1481.65 2870.68 1502.25 2873.74 1522.84 2876.8C1568.45 2883.94 1614.07 2890.74 1659.69 2900.31C1693.71 2907.49 1728.3 2899.1 1762.2 2918.04C1771.37 2923.2 1781.89 2923.87 1791.77 2911.04C1788.86 2906.9 1787.17 2902.06 1785.19 2901.37C1736.8 2883.85 1688.56 2863.57 1639.45 2858.16C1599.48 2853.77 1559.81 2842.8 1519.84 2838.4C1466.31 2832.66 1412.62 2829.34 1358.94 2827.06C1291.68 2824.12 1224.28 2822.91 1157.03 2821.7C1137.81 2821.4 1118.45 2823.87 1099.24 2824.96C1099.25 2828.08 1098.95 2831.19 1098.96 2834.3L1098.66 2834.3ZM1478.04 2946.79C1502.9 2948.46 1527.75 2948.05 1552.48 2959.4C1564.39 2964.91 1577.06 2967.99 1591.22 2958.61C1587.08 2952.39 1584.63 2945.83 1581.73 2945.14C1526.49 2930.06 1470.97 2924.67 1415.01 2926.2C1436.07 2933.41 1456.53 2945.47 1478.04 2946.79ZM1577.19 2251.87L1518.02 2252.03C1518.02 2252.03 1518.03 2254.45 1518.03 2255.83C1537.71 2258.89 1557.54 2261.96 1577.22 2264.67C1577.21 2260.52 1577.2 2256.02 1577.19 2251.87ZM1662.92 2263.76C1650.11 2265.18 1637.31 2266.59 1624.5 2267.66C1624.51 2269.39 1624.51 2271.12 1624.52 2272.85L1663.7 2272.75C1663.39 2269.64 1663.08 2266.53 1662.77 2263.41L1662.92 2263.76ZM250.769 399.285C239.025 398.278 229.415 397.265 219.958 396.251C233.925 411.437 244.195 412.448 250.769 399.285ZM850.561 2482.77L817.329 2486.66C817.334 2488.74 817.339 2490.81 817.345 2492.89L851.197 2492.8C850.883 2489.34 850.723 2486.23 850.409 2482.77L850.561 2482.77ZM1718.93 2281.95C1713.59 2281.96 1708.41 2282.67 1703.07 2281.99C1697.88 2281.31 1692.69 2279.25 1687.51 2277.53C1687.51 2280.3 1687.52 2283.41 1687.53 2286.18L1718.94 2286.1L1718.93 2282.3L1718.93 2281.95ZM1571.29 145.75L1545.52 145.817C1545.52 148.239 1545.53 150.314 1545.38 152.736C1553.93 154.444 1562.47 156.498 1571.01 158.205C1571 154.054 1571.15 149.902 1571.29 145.75ZM1638.32 2951.57C1630.54 2950.55 1624.13 2949.88 1617.72 2949.2C1626 2963.71 1632.86 2964.5 1638.32 2951.57ZM1856.76 209.705L1844.26 209.737C1844.26 211.467 1844.42 213.196 1844.58 215.271L1857.08 213.509C1857.08 213.509 1856.92 211.088 1856.76 209.705ZM2063.85 2041.31C2061.42 2045.13 2059.14 2048.94 2056.71 2052.75C2057.94 2056.21 2059.48 2062.78 2060.55 2062.77C2062.99 2062.42 2065.27 2058.26 2067.85 2055.49C2066.01 2048.92 2064.93 2045.12 2063.7 2041.66L2063.85 2041.31ZM2063.65 254.835C2062.58 254.146 2061.37 254.841 2060.3 254.844C2061.37 256.571 2062.29 259.336 2063.36 260.025C2064.28 260.715 2065.49 258.982 2066.56 258.287C2065.64 257.252 2064.72 255.524 2063.65 254.835ZM1639.04 163.911C1637.05 162.878 1635.22 161.153 1633.24 160.812C1632.32 160.814 1631.41 162.2 1630.5 162.895C1632.03 164.621 1633.4 166.693 1634.93 168.418C1636.3 167.031 1637.67 165.298 1639.04 163.911ZM2141.19 2110.65C2141.19 2110.65 2140.44 2116.88 2139.99 2119.99C2141.82 2119.99 2143.81 2119.98 2145.63 2118.94C2146.24 2118.94 2146.39 2115.13 2146.69 2113.06C2144.85 2112.02 2142.87 2110.3 2141.04 2110.65L2141.19 2110.65ZM123.968 544.566C124.886 545.601 126.417 548.019 126.872 547.326C127.784 545.94 128.081 542.825 128.684 540.402C127.617 540.405 126.397 540.408 125.329 540.065C124.876 541.796 124.422 543.181 123.969 544.912L123.968 544.566ZM1782.6 190.869C1778.94 190.533 1775.28 190.196 1771.77 189.859L1771.79 197.124L1782.62 197.096C1782.61 195.021 1782.61 192.945 1782.6 190.869ZM1970.46 244.352C1971.22 245.388 1972.44 245.038 1973.36 245.382C1973.04 242.615 1972.88 239.848 1972.57 237.081C1971.66 237.776 1970.75 238.47 1969.83 239.164C1969.99 240.893 1969.84 243.661 1970.46 244.352Z" fill="#ECF0E4"/>
</mask>
<g mask="url(#mask0_1545_2433)">
<rect x="291" y="-14" width="1578" height="1605" fill="#ECF0E4"/>
</g>
</svg>
