<svg width="1600" height="1067" viewBox="0 0 1600 1067" fill="none" xmlns="http://www.w3.org/2000/svg">
<mask id="mask0_1649_2404" style="mask-type:alpha" maskUnits="userSpaceOnUse" x="0" y="0" width="1600" height="1067">
<rect width="1600" height="1066.28" fill="#D9D9D9"/>
</mask>
<g mask="url(#mask0_1649_2404)">
<path d="M317.247 1620.36C328.8 1608.97 336.513 1598.34 346.364 1592.45C354.876 1587.48 358.378 1578.05 356.85 1560.6C356.508 1556.68 356.587 1553.11 356.357 1548.58C372.541 1536.35 395.392 1541.67 414.421 1531.94C405.481 1521.92 400.487 1525.76 394.793 1523.93C386.513 1521.37 378.565 1520.15 370.161 1517.2C366.139 1515.8 361.587 1511.49 354.449 1506.44C356.832 1501.47 357.456 1497.06 359.574 1496.66C390.424 1490.34 421.113 1483.83 452.395 1478.86C463.937 1476.96 476.935 1479.27 488.762 1477.94C498.309 1476.83 506.771 1472.65 516.01 1470.58C523.032 1468.92 530.092 1467.05 537.67 1467.12C569.008 1467.08 599.445 1464.56 626.23 1451.31C628.162 1450.33 630.071 1448.96 632.274 1449.15C673.637 1453.29 707.126 1434.85 744.775 1428.08C757.778 1425.64 770.313 1422.07 783.131 1419.06C805.127 1413.78 828.877 1412.69 848.428 1401.72C865.179 1392.2 884.68 1392.51 902.799 1388.2C918.702 1384.3 933.988 1378.49 951.614 1372.64C936.024 1362.27 925.598 1362.88 915.234 1363.67C879.385 1366.52 843.599 1369.55 808.059 1373.36C786.623 1375.61 765.644 1379.6 744.393 1382.43C743.106 1382.55 741.04 1380.58 739.023 1379.38C736.772 1366.35 735.908 1353.18 732.048 1339.91C724.29 1313.56 712.654 1300.24 698.638 1300.79C688.843 1301.14 679.344 1303.04 670.451 1305.87C624.15 1320.99 574.259 1325.57 524.985 1332.08C467.648 1339.56 409.535 1344.93 351.828 1351.26C341.526 1352.24 331.593 1354.38 318.665 1344.35C316.089 1334.12 320.288 1333.52 323.631 1332.8C342.456 1329.41 361.65 1327.18 380.375 1323.8C393.379 1321.36 405.913 1317.79 418.732 1314.78C425.061 1313.18 431.328 1311.4 437.842 1310.38C468.393 1305.67 499.499 1302.68 529.458 1296.45C559.516 1290.2 588.179 1279.94 617.867 1272.55C656.732 1262.89 696.152 1254.95 734.856 1245.11C747.514 1241.92 758.74 1234.91 770.818 1229.6C748.879 1217.26 731.543 1218.93 718.018 1233.08C715.998 1235.05 712.396 1234.01 709.585 1234.48C701.746 1235.83 693.561 1236.41 686.03 1238.72C672.925 1242.74 662.092 1252.88 645.482 1246.96C642.215 1245.69 639.069 1246.38 636.666 1247.8C611.55 1263.06 579.795 1259.58 552.384 1268.34C537.186 1273.16 523.074 1281.04 505.087 1277.82C496.551 1292.88 480.033 1282.8 466.402 1282.32C448.882 1281.83 430.349 1279.45 418.568 1295.22C416.77 1297.57 413.266 1298.1 410.172 1296.42C388.097 1284.3 373.376 1294.41 357.099 1300.32C347.066 1304.05 335.909 1304.92 324.913 1305.98C322.535 1306.21 318.404 1302.25 315.251 1298.8C305.852 1288.62 298.092 1286.4 290.759 1288.69C280.441 1291.85 269.84 1294.45 259.46 1297.42C257.927 1295.2 255.701 1293.04 255.183 1291.11C249.479 1269.77 240.486 1255.67 228.203 1248.81C224.75 1246.96 221.311 1244.52 217.797 1242.49C215.322 1241.14 212.97 1240.18 207.068 1237.39C215.68 1230.82 222.149 1225.85 229.052 1220.64C225.289 1208.94 222.341 1199.14 218.935 1189.18C215.183 1178.47 213.523 1168.54 215.945 1161.78C220.665 1149.46 215.348 1131.98 210.637 1115.42C214.179 1104.2 222.93 1106.33 230.039 1105.25C241.68 1103.35 252.506 1099.54 262.715 1093.81C274.089 1087.58 287.599 1086.09 300.503 1083.66C314.2 1081.16 328.552 1080.38 342.311 1078.07C383.686 1071.14 425.407 1064.96 466.067 1056.12C488.149 1051.43 509.614 1044.82 531.857 1040.32C569.159 1032.78 605.598 1022.57 642.407 1013.5C645.788 1012.58 649.108 1011.47 651.158 1005.14C647.792 1003.89 643.87 1000.9 641.158 1001.36C614.581 1006.68 587.534 1010.85 561.796 1018.46C510.952 1033.42 458.429 1043.8 405.042 1051.49C358.17 1058.16 310.742 1063.1 263.499 1068.62C249.456 1070.37 234.353 1067.86 218.355 1058.12C208.334 1040.29 219.803 1037.22 215.088 1023.83C207.499 1019.28 203.109 1022.14 201.917 1032.41C199.862 1031.42 197.361 1031.26 195.272 1028.89C183.338 1015.6 172.993 1011.05 163.06 1013.19C154.613 1015.19 145.389 1015.09 134.622 1010.19C145.632 1008.54 156.703 1007.08 167.626 1004.84C174.078 1003.63 180.852 1002.79 186.428 999.482C195.213 994.091 194.646 980.895 185.916 959.781C180.755 947.224 175.556 934.868 169.358 920.037C163.812 918.987 158.279 917.342 153.042 917.251C120.787 916.982 88.9652 918.057 56.3782 916.436C39.4287 915.49 21.9109 913.413 0.818729 897.044C-1.71486 871.38 -13.7794 843.071 -17.3149 816.515C-17.9898 811.24 -20.5209 804.956 -21.2575 799.49C-22.2278 792.661 -22.2206 786.332 -22.6339 779.648C-23.2061 771.199 -25.9578 762.959 -30.8889 754.929C-34.5471 748.951 -38.0688 742.763 -43.2466 733.965C-38.7869 731.955 -35.8505 730.289 -32.7291 729.199C-30.1029 728.156 -27.2543 727.487 -23.4394 726.33C-28.2845 718.884 -32.5501 713.558 -35.8363 707.15C-46.0164 687.559 -46.4693 672.177 -36.1891 669.213C-25.7107 666.231 -14.0845 666.5 -3.0509 665.245C0.614507 664.893 4.18085 664.551 11.0163 663.895C-6.86834 647.021 -17.5616 653.782 -30.3805 646.31C-41.826 628.818 -53.2714 611.326 -65.7674 592.155C-68.5735 577.394 -72.0694 559.536 -76.5001 536.229C-76.0556 526.497 -61.0536 530.595 -67.9947 504.563C-75.0174 495.744 -83.9318 484.536 -93.6499 472.415C-85.0015 467.235 -76.8953 459.734 -67.0243 457.403C-56.4599 455.006 -44.1309 457.779 -32.7272 457.674C-21.3234 457.569 -10.0057 456.879 1.21296 456.199C21.4708 455.047 41.9512 454.269 62.0857 452.734C67.2371 452.24 72.6856 451.717 71.0796 437.831C42.0347 435.474 17.1584 447.352 -15.0776 431.261C-17.3916 430.099 -20.0367 426.002 -22.1265 423.631C-24.9493 412.63 -20.5044 412.797 -17.4203 411.908C-9.13442 409.729 -0.601758 408.317 7.47295 406.752C6.47468 402.694 6.50079 401.505 6.0559 400.757C5.38858 399.634 4.239 397.965 3.58292 397.83C-10.7031 395.64 -24.9892 393.451 -39.4733 391.28C-48.2012 368.584 -59.3771 364.316 -71.009 358.312C-42.6949 360.936 -18.0746 356.202 5.03913 348.052C-10.0939 339.418 -24.5519 336.058 -38.3332 336.391C-46.6416 336.595 -55.7893 334.505 -64.7875 331.611C-75.6175 328.101 -86.842 323.047 -99.1006 302.073C-96.955 298.901 -95.3626 292.42 -92.5159 293.334C-75.6709 299.035 -64.933 285.745 -48.0132 291.044C-32.4299 295.68 -17.9421 294.686 -3.19628 295.447C12.3047 296.334 27.5589 296.453 42.6523 296.39C47.7289 296.298 52.0653 293.905 58.7662 291.878C41.1112 269.049 34.4727 292.23 19.732 276.241C6.0175 261.537 -1.92585 278.12 -16.1673 269.4C-14.145 265.844 -12.4946 262.72 -9.98821 258.128C-32.1585 253.333 -52.9791 248.606 -73.6522 244.656C-86.8728 241.968 -100.262 234.946 -115.36 217.212C-112.668 213.196 -110.311 209.41 -107.893 205.816C-117.593 177.874 -132.366 179.884 -147.997 162.398C-134.389 162.477 -124.075 162.477 -112.969 162.4C-116.177 152.425 -119.127 144.204 -121.359 136.31C-123.677 127.831 -125.301 119.285 -127.864 108.456C-123.109 108 -118.156 107.525 -113.104 107.041C-90.3056 104.261 -67.2234 102.047 -44.6721 98.5003C-39.9413 97.6511 -35.3807 94.0496 -33.0463 88.2884C-25.0507 69.3277 -13.3763 59.9022 6.07819 68.32C8.33056 69.2906 10.2146 67.5278 12.1473 66.5514C12.779 66.2931 12.8425 64.9027 13.2275 63.8769C9.12813 53.9865 5.52444 54.5299 2.5993 57.1835C-4.96121 63.8414 -13.9518 65.0991 -27.4493 55.5168C-26.6887 50.8953 -27.0179 46.3784 -25.6179 45.6509C-6.66127 34.736 14.6769 30.9098 38.348 33.3859C47.6209 34.2765 55.4638 29.7669 64.2189 28.7295C85.5309 26.0924 106.819 23.0621 128.501 21.576C171.172 18.6704 213.805 15.9661 256.908 14.4034C299.317 12.9072 341.936 12.3797 384.678 12.2359C399.87 12.1632 416.05 15.1601 431.797 16.814C434.1 16.9887 436.626 17.5376 438.867 17.5204C475.119 18.79 511.532 20.242 547.661 21.1279C582.304 22.1563 617.527 25.3045 653.119 29.6038C676.815 32.4731 699.906 32.8295 723.269 34.3465C735.873 35.1153 735.873 35.1153 752.787 55.6423C755.053 56.0184 757.602 56.9604 759.72 56.5596C772.847 54.5096 786.01 53.8406 801.53 59.8671C814.859 65.1149 827.105 64.1382 839.696 65.5016C860.965 67.8126 882.173 69.9318 903.38 72.0509C906.537 72.3414 909.399 71.0782 912.691 72.7401C928.394 80.9244 941.102 76.937 955.437 79.913C985.48 86.3266 1012.8 83.3113 1041.79 86.4635C1048.86 87.1699 1055.97 87.6749 1063.31 89.5419C1081.99 94.2767 1099.68 95.9419 1117.24 96.2358C1146.28 97.0098 1176.04 99.6928 1208.59 113.579C1232.13 123.583 1255.62 132.8 1277.65 133.654C1305.57 134.734 1308.26 136.453 1345.21 169.1C1357.17 179.62 1367.71 185.729 1378.25 187.685C1389.48 189.575 1400.5 190.495 1412 193.546C1422.38 196.307 1432.16 196.556 1444.68 210.385C1452.43 218.936 1461.43 218.666 1469.99 223.383C1486.34 232.296 1502.92 244.154 1518.14 244.475C1522.32 244.469 1528.4 251.005 1533.54 254.27C1539.55 258.044 1545.71 262.595 1551.31 264.431C1558.83 266.874 1565.59 268.203 1573.97 279.66C1578 285.207 1584.29 286.977 1589.05 288.103C1600.36 290.578 1611.62 292.266 1622.54 293.196C1629.81 293.884 1637.05 297.343 1647.72 307.987C1642.4 312.058 1639.1 316.725 1634.46 317.564C1615.01 321.21 1595.24 323.896 1575.48 326.583C1568.17 327.679 1560.44 327.432 1553.13 328.529C1547.58 329.061 1544.47 334.303 1545.46 344.69C1546.6 357.435 1554.22 361.45 1559.76 368.829C1558.91 380.183 1554.72 389.682 1567.34 406.072C1571.57 411.599 1574.21 422.025 1578.31 431.916C1584.59 435.268 1591.24 438.784 1600.88 443.99C1594.83 447.734 1590.28 449.159 1586.94 453.039C1576.5 464.72 1581.61 491.718 1598.04 513.281C1608.29 526.734 1618.33 536.055 1628.36 535.488C1637.4 535.017 1646.58 535.323 1656.5 535.36C1659.48 539.227 1663.09 542.836 1665.79 547.72C1675.68 565.162 1685.68 572.114 1695.68 572.737C1705.09 573.416 1714.32 573.521 1723.54 573.625C1731.12 573.689 1738.01 570.655 1749.71 582.586C1746.16 586.485 1743.91 591.249 1740.2 592.397C1735.52 594.032 1729.98 593.97 1724.34 592.929C1711.34 590.616 1703.91 598.645 1701.86 618.618C1710.98 637.124 1722.2 645.343 1733.32 651.989C1734.3 661.387 1735.05 669.424 1736.1 680.002C1745.05 685.275 1753.37 690.211 1762.54 695.858C1761.34 707.048 1760.26 717.039 1759.2 726.436C1748.5 727.462 1738.14 728.258 1727.8 729.447C1721.16 730.084 1714.26 730.547 1708.5 733.275C1699.45 737.506 1701.32 752.553 1712.32 769.297C1720.58 781.953 1728.9 790.053 1737.4 790.425C1744.34 790.748 1751.14 790.294 1758.21 791C1765.87 791.65 1773.91 793.45 1781.95 794.656C1785.87 805.553 1781.36 803.612 1780.1 805.711C1777.97 809.276 1775.27 812.304 1774.12 816.964C1773.21 820.808 1775.09 827.944 1774.35 831.971C1773.7 835.989 1772.02 840.302 1769.51 840.741C1757.27 842.706 1752.51 855.225 1754.68 876.573C1749.03 880.279 1744.21 883.708 1739.27 886.753C1736.83 888.371 1734.11 891.994 1731.45 890.074C1707.15 872.628 1695.61 895.488 1676.01 893.61C1657.27 891.848 1657.05 900.373 1667.17 939.152C1615.75 951.994 1555.25 936.635 1504.3 950.618C1506 960.344 1509.66 961.575 1512.87 962.651C1520.91 965.44 1528.22 962.761 1538.89 974.988C1535.93 976.26 1534.33 978.589 1532.04 977.82C1519.97 973.638 1510.46 976.132 1502.6 984.401C1497.27 990.054 1490.9 995.015 1483.46 994.74C1451.43 993.263 1428.76 1017.39 1396.79 1016.1C1390.99 1015.87 1386.75 1021.42 1380.64 1024.97C1397.91 1048.82 1404.59 1022.28 1419.07 1039.68C1416.97 1062.03 1411.23 1072.46 1400.6 1073.68C1391.98 1074.51 1383.42 1075.53 1373.28 1076.7C1377.51 1083.81 1379.95 1089.51 1381.49 1090.15C1387.27 1092.56 1392.73 1093.03 1398.48 1095.05C1399.04 1095.19 1400.64 1101.76 1402.12 1106.36C1407.91 1106.6 1414.19 1107.38 1419.88 1106.64C1422.55 1106.38 1426.19 1104.06 1425.94 1100.72C1424.86 1088.17 1429.92 1088.67 1435.58 1089.11C1438.64 1089.41 1441.69 1088.73 1443.87 1086.94C1449.55 1082.04 1455.87 1083.61 1464.76 1092.84C1469.34 1097.55 1474.54 1097.84 1482.89 1101.58C1479.06 1104.92 1477.68 1107.62 1475.37 1108.04C1460.88 1110.62 1446.64 1113.96 1431.65 1115C1399.31 1117.31 1370.24 1128.21 1341.06 1139.12C1337.81 1140.42 1332.47 1141.92 1332.84 1146.23C1334.42 1167.04 1323.59 1160.37 1315.68 1160.53C1312.65 1160.63 1309.37 1159.95 1306.19 1159.27C1298.05 1157.48 1289.28 1153.38 1281.89 1153.89C1268.61 1155.16 1256.04 1158.94 1242.6 1161.61C1249.91 1175.74 1254.86 1172.1 1259.73 1172.62C1283.4 1175.1 1306.89 1177 1330.49 1179.29C1332.8 1179.46 1335.37 1180.8 1338.94 1182.04C1333.29 1196.22 1321.66 1194.37 1312.09 1196.67C1303.64 1198.67 1293.89 1197.23 1284.6 1196.94C1274.56 1196.52 1263.68 1193.8 1254.38 1195.68C1230.61 1200.53 1202.97 1191.12 1177.78 1190.57C1152.32 1189.85 1127.36 1189.08 1105.35 1199.69C1078.7 1212.73 1048.56 1216.8 1017.37 1217.62C996.167 1218.07 976.375 1223.53 956.065 1227.06C953.353 1227.52 951.356 1229.88 944.777 1233.88C967.25 1233.9 984.719 1235.19 1001.42 1233.78C1026.81 1231.75 1052.22 1230.1 1079.34 1234.42C1080.1 1234.54 1080.83 1234.28 1081.52 1234.21C1106.14 1222.16 1138.47 1236.66 1166.4 1236.16C1169.43 1236.06 1172.83 1237.12 1175.87 1237.03C1208.66 1233.88 1243.58 1238.64 1278.09 1241.46C1281.86 1241.76 1286.54 1238.21 1292.13 1230.82C1287.45 1227.71 1284.23 1225.65 1279.62 1222.73C1286.89 1206.6 1301.14 1219.48 1315.25 1217.93C1310.4 1224.13 1308.6 1226.47 1306.7 1228.83C1308.01 1230.68 1309.78 1234.27 1310.57 1234.2C1322.1 1234.47 1333.44 1234.18 1346.19 1234.14C1340.43 1236.87 1335.64 1239.11 1330.84 1241.35L1332.45 1246.34C1336.77 1247.7 1341.16 1248.67 1345.67 1250.61C1349.71 1252.39 1353.97 1255.15 1359.6 1258.37C1358.24 1263.05 1357.46 1265.69 1356.62 1268.15C1371.06 1282.58 1382.78 1287.59 1394.31 1286.28C1422.2 1282.82 1450.27 1279.93 1478.34 1277.04C1505.69 1274.42 1533.03 1271.79 1559.35 1266.3C1544.58 1272.47 1529.75 1278.44 1514.89 1284.61C1504.88 1288.73 1495.67 1293.77 1482.97 1291.43C1471.98 1289.32 1463.35 1296.47 1453.14 1298.05C1427.74 1302.26 1402.27 1306.29 1376.47 1309.55C1368.41 1310.52 1361.23 1312.99 1352.28 1322.95C1360.13 1325.75 1363.31 1328.02 1365.53 1327.61C1379.98 1325.23 1396.84 1330.34 1409.56 1322.59C1413.2 1320.27 1418.23 1320.97 1423.06 1321.69C1451.42 1326.69 1475.24 1317.88 1501.07 1315C1518.11 1313.37 1536.32 1315.38 1553.92 1315.47C1560.8 1315.6 1568.03 1316.49 1574.42 1315.09C1582.14 1313.36 1590.87 1317.66 1599.24 1326.55C1609.32 1337.25 1619.94 1350.28 1624.75 1369.99C1610.07 1391.96 1588.27 1397.22 1566.73 1402.64C1547.01 1407.7 1526.42 1410.66 1506.17 1414.38C1501.14 1415.26 1496.16 1416.93 1490.49 1415.49C1449.98 1405.73 1417.24 1420.14 1380.92 1423.43C1369.84 1434.38 1355.74 1436.92 1338.9 1431.22C1338.08 1430.9 1337.53 1431.74 1336.9 1432C1293.65 1446.43 1246.34 1449.19 1202.49 1462.1C1186.54 1466.79 1171.95 1475.11 1156.28 1480.37C1130.1 1488.82 1103.45 1496.12 1076.92 1503.8C1074.13 1504.66 1071.22 1505.14 1068.12 1505.04C1026.55 1504.68 992.114 1524 953.425 1531.67C951.307 1532.07 949.46 1533.63 947.281 1533.84C909.077 1538.88 874.354 1553.49 837.459 1561.97C825.372 1564.71 813.938 1569.17 802.196 1572.67C798.047 1574.05 794.267 1576.59 789.723 1576.43C745.46 1575.34 711.207 1601.57 670.016 1609.08C652.876 1612.3 637.697 1622.26 619.052 1620.49C603.961 1618.97 590.054 1620.5 576.456 1622.99C569.211 1624.28 562.497 1626.9 555.499 1628.96C551.288 1630.15 547.447 1632.5 542.842 1632.15C505.898 1629.36 473.346 1639.6 438.907 1644.29C417.558 1647.13 395.962 1649.2 374.65 1651.84C366.291 1652.84 357.614 1650.31 347.582 1641.97C338.292 1634.36 328.963 1628.53 316.146 1619.48L317.247 1620.36ZM805.468 1213.82C842.556 1220.54 872.72 1207.96 903.168 1195.94C903.899 1195.67 903.075 1191.2 902.955 1187.66C884.356 1177.77 875.879 1196.19 860.97 1196.82C841.047 1197.75 823.825 1207.7 805.468 1213.82ZM920.888 1184.35C932.003 1186.85 945.258 1192.5 952.687 1181.31L920.888 1184.35ZM72.7996 287.566C85.8653 295.805 93.4745 289.934 104.104 284.563C91.1303 282.644 79.9189 276.995 72.7996 287.566ZM1315.21 1093.34C1322.12 1098.61 1329.79 1106.58 1329.07 1091.02C1326.56 1089.88 1323.62 1087.39 1321.76 1087.97C1319.21 1088.61 1317.33 1091.36 1315.21 1093.34ZM125.168 282.741C123.794 282.28 122.358 281.626 121.009 281.558C120.811 281.577 120.908 283.15 120.857 283.946C122.231 284.407 123.667 285.061 125.016 285.129C125.214 285.11 125.117 283.537 125.168 282.741ZM1391.39 1060.92L1392.25 1063.61L1393.47 1062.3L1391.39 1060.92ZM976.333 1691.83C986.135 1695.64 994.583 1692.06 1004.08 1693.32C1014.07 1694.54 1025.44 1705.12 1035.86 1704.51C1073.95 1701.65 1112.78 1701.09 1151.92 1701.49C1219.49 1702.33 1287.32 1704.33 1355.1 1706.13C1382.1 1706.9 1409.32 1708.65 1436.38 1709.61C1441.68 1709.89 1447.82 1710.89 1444.99 1695.73C1432.1 1676.6 1418.24 1659.54 1402.6 1645.21C1390.45 1659.83 1372.46 1658.19 1354.38 1656.56C1344.91 1655.69 1336.82 1648.95 1328.84 1632.71C1332.06 1630.03 1335.18 1627.36 1338.2 1624.69C1328.97 1618.85 1321.32 1617.61 1313.94 1617.53C1300.08 1617.27 1286.58 1618.17 1272.77 1618.11C1222.36 1618.2 1171.88 1618.1 1121.42 1618.39C1112.55 1618.45 1103.1 1616.98 1101.31 1633.96C1100.68 1639.96 1093.45 1640.65 1088.33 1640.94C1050.12 1643.42 1011.56 1645.14 973.227 1647.24C962.701 1647.85 952.238 1648.66 942.083 1650.42C937.748 1651.23 934.661 1655.28 939.065 1669.3C950.93 1676.66 964.019 1686.88 976.271 1691.64L976.333 1691.83ZM944.489 1560.41C946.915 1560.96 949.428 1562.11 951.607 1561.9C985.846 1558.81 1019.96 1555.34 1054.32 1552.64C1066.97 1551.63 1079.96 1551.37 1093.24 1552.67C1124.55 1555.4 1156.77 1561.6 1186.53 1558.55C1199.9 1557.27 1213.83 1557.71 1227.76 1558.16C1258.68 1559.35 1289.53 1560.34 1320.88 1562.87C1344.27 1564.78 1365.27 1558.02 1390.66 1566.46C1397.53 1568.77 1404.49 1568.5 1408.64 1560.79C1406.02 1558.66 1404.07 1556.08 1402.66 1555.82C1368.11 1549.05 1333.16 1540.73 1300.28 1540.72C1273.52 1540.72 1245.79 1537.05 1219.03 1537.04C1183.21 1537.12 1147.72 1538.54 1112.42 1540.54C1068.18 1543.01 1024.14 1546.44 980.21 1549.86C967.666 1550.87 955.517 1553.42 943.22 1555.19C943.775 1556.92 944.132 1558.66 944.687 1560.39L944.489 1560.41ZM1211 1599.71C1227.45 1599.12 1243.54 1597.38 1261.62 1602.18C1270.34 1604.5 1279.12 1605.44 1286.66 1599.38C1282.88 1596.18 1280.12 1592.69 1278.12 1592.49C1239.54 1587.48 1202.49 1587.87 1166.38 1592.13C1181.35 1594.84 1196.78 1600.29 1211 1599.71ZM1152.71 1208.2L1114.27 1211.89C1114.27 1211.89 1114.7 1213.23 1114.95 1214C1128.28 1214.5 1141.72 1214.99 1154.99 1215.3C1154.25 1213 1153.45 1210.5 1152.71 1208.2ZM1210.54 1209.58C1202.47 1211.14 1194.39 1212.71 1186.26 1214.08C1186.56 1215.04 1186.87 1216 1187.18 1216.96L1212.64 1214.52C1211.89 1212.81 1211.13 1211.1 1210.38 1209.39L1210.54 1209.58ZM-36.8479 261.298C-44.661 261.454 -51.0871 261.477 -57.4142 261.49C-45.652 269.063 -38.7965 268.999 -36.8479 261.298ZM721.106 1380.51L700.188 1384.69C700.558 1385.84 700.928 1386.99 701.298 1388.14L723.291 1386.03C722.476 1384.14 721.822 1382.42 721.007 1380.52L721.106 1380.51ZM1250.17 1216.26C1246.7 1216.59 1243.46 1217.3 1239.87 1217.25C1236.37 1217.18 1232.64 1216.36 1228.96 1215.72C1229.45 1217.26 1230.01 1218.98 1230.5 1220.52L1250.91 1218.56L1250.23 1216.45L1250.17 1216.26ZM776.85 40.2825L760.108 41.8881C760.54 43.231 760.91 44.3821 761.243 45.7345C767.099 46.1617 773.017 46.7807 778.873 47.2079C778.133 44.9058 777.492 42.5941 776.85 40.2825ZM1316.04 1592.61C1310.8 1592.51 1306.52 1592.53 1302.24 1592.55C1310.18 1600.09 1314.78 1600.11 1316.04 1592.61ZM973.737 58.382L965.613 59.1611C965.922 60.1203 966.329 61.07 966.798 62.2116L974.613 60.4733C974.613 60.4733 974.083 59.1399 973.737 58.382ZM1431.9 1061.78C1430.99 1064.04 1430.19 1066.3 1429.28 1068.56C1430.69 1070.4 1432.85 1073.95 1433.54 1073.88C1435.07 1073.54 1435.81 1071.1 1437 1069.4C1434.64 1065.87 1433.27 1063.83 1431.86 1061.98L1431.9 1061.78ZM1116.21 70.8229C1115.39 70.5057 1114.73 70.9654 1114.03 71.0319C1115.03 71.9246 1116.12 73.4023 1116.94 73.7195C1117.66 74.0462 1118.14 73.011 1118.71 72.5608C1117.93 72.0423 1117.03 71.14 1116.21 70.8229ZM824.105 46.2321C822.632 45.78 821.135 44.9348 819.785 44.8665C819.191 44.9235 818.843 45.7478 818.372 46.1885C819.671 47.0527 820.933 48.1183 822.232 48.9825C822.877 48.1296 823.46 47.0849 824.105 46.2321ZM1494.43 1095.53C1494.43 1095.53 1495.04 1099.04 1495.3 1100.79C1496.49 1100.68 1497.78 1100.55 1498.78 1099.86C1499.18 1099.83 1498.6 1097.71 1498.42 1096.54C1497.05 1096.07 1495.45 1095.24 1494.33 1095.54L1494.43 1095.53ZM-93.6205 349.604C-92.8411 350.122 -91.4186 351.37 -91.2448 350.958C-90.8971 350.133 -91.2542 348.388 -91.2898 347.007C-91.9832 347.073 -92.7757 347.149 -93.5309 347.024C-93.5196 348.012 -93.5701 348.808 -93.5588 349.795L-93.6205 349.604ZM922.198 52.4478C919.759 52.484 917.32 52.5201 914.98 52.5468L916.275 56.5755L923.309 55.901C922.939 54.7499 922.568 53.5989 922.198 52.4478ZM1053.77 70.6804C1054.45 71.2085 1055.18 70.9406 1055.84 71.0755C1055.15 69.5597 1054.55 68.0345 1053.86 66.5187C1053.39 66.9594 1052.92 67.4001 1052.45 67.8408C1052.86 68.7905 1053.25 70.3348 1053.77 70.6804Z" fill="#DDEAD1"/>
</g>
</svg>
