<svg width="1638" height="925" viewBox="0 0 1638 925" fill="none" xmlns="http://www.w3.org/2000/svg">
<mask id="mask0_1649_2404" style="mask-type:alpha" maskUnits="userSpaceOnUse" x="0" y="0" width="1638" height="925">
<rect width="1638" height="925" fill="#D9D9D9"/>
</mask>
<g mask="url(#mask0_1649_2404)">
<path d="M205.862 1505.35C219.176 1494.83 228.066 1485.03 239.418 1479.59C249.228 1475.01 253.265 1466.3 251.504 1450.19C251.11 1446.57 251.2 1443.28 250.935 1439.1C269.587 1427.82 295.922 1432.73 317.853 1423.74C307.549 1414.5 301.794 1418.04 295.232 1416.36C285.689 1413.99 276.529 1412.86 266.844 1410.14C262.208 1408.85 256.963 1404.88 248.736 1400.22C251.482 1395.62 252.202 1391.55 254.642 1391.18C290.196 1385.35 325.565 1379.35 361.617 1374.76C374.919 1373 389.899 1375.14 403.529 1373.91C414.532 1372.88 424.284 1369.03 434.932 1367.12C443.025 1365.58 451.161 1363.86 459.894 1363.92C496.011 1363.89 531.089 1361.56 561.958 1349.33C564.185 1348.43 566.385 1347.17 568.924 1347.34C616.594 1351.16 655.19 1334.14 698.579 1327.89C713.565 1325.64 728.011 1322.35 742.784 1319.57C768.134 1314.7 795.505 1313.69 818.037 1303.57C837.342 1294.79 859.816 1295.07 880.699 1291.09C899.026 1287.49 916.643 1282.13 936.956 1276.73C918.99 1267.16 906.974 1267.72 895.029 1268.45C853.715 1271.08 812.471 1273.88 771.512 1277.39C746.808 1279.47 722.63 1283.15 698.139 1285.77C696.655 1285.88 694.275 1284.05 691.95 1282.96C689.356 1270.93 688.361 1258.77 683.912 1246.52C674.971 1222.21 661.561 1209.91 645.407 1210.42C634.119 1210.74 623.171 1212.5 612.922 1215.11C559.562 1229.06 502.063 1233.29 445.275 1239.3C379.196 1246.2 312.221 1251.16 245.716 1257C233.842 1257.91 222.395 1259.88 207.497 1250.62C204.528 1241.18 209.366 1240.62 213.22 1239.96C234.914 1236.84 257.035 1234.77 278.616 1231.66C293.602 1229.41 308.048 1226.11 322.821 1223.33C330.115 1221.86 337.338 1220.21 344.845 1219.27C380.054 1214.92 415.904 1212.17 450.431 1206.42C485.072 1200.65 518.105 1191.18 552.32 1184.36C597.111 1175.44 642.542 1168.12 687.148 1159.04C701.736 1156.09 714.673 1149.62 728.593 1144.72C703.309 1133.34 683.33 1134.87 667.743 1147.93C665.414 1149.75 661.263 1148.8 658.023 1149.23C648.989 1150.47 639.556 1151.01 630.876 1153.14C615.774 1156.85 603.289 1166.21 584.146 1160.74C580.381 1159.57 576.755 1160.21 573.985 1161.52C545.04 1175.61 508.443 1172.39 476.853 1180.48C459.337 1184.93 443.074 1192.2 422.344 1189.23C412.506 1203.12 393.47 1193.82 377.759 1193.38C357.568 1192.92 336.21 1190.73 322.633 1205.28C320.56 1207.45 316.521 1207.94 312.956 1206.39C287.515 1195.2 270.549 1204.53 251.791 1209.99C240.228 1213.43 227.369 1214.24 214.696 1215.21C211.956 1215.42 207.195 1211.77 203.561 1208.58C192.73 1199.2 183.786 1197.14 175.335 1199.25C163.444 1202.17 151.226 1204.57 139.264 1207.32C137.497 1205.26 134.931 1203.27 134.335 1201.49C127.761 1181.8 117.396 1168.78 103.24 1162.45C99.261 1160.75 95.2972 1158.5 91.2473 1156.62C88.3951 1155.38 85.6851 1154.49 78.8822 1151.91C88.8083 1145.85 96.2637 1141.27 104.219 1136.46C99.8821 1125.66 96.4846 1116.61 92.5593 1107.42C88.2354 1097.53 86.3222 1088.37 89.1137 1082.13C94.5525 1070.77 88.4254 1054.63 82.9962 1039.35C87.0779 1029 97.1637 1030.96 105.356 1029.97C118.772 1028.21 131.249 1024.69 143.015 1019.41C156.123 1013.66 171.693 1012.28 186.565 1010.04C202.351 1007.74 218.89 1007.01 234.747 1004.88C282.431 998.483 330.514 992.783 377.374 984.622C402.823 980.295 427.561 974.197 453.195 970.039C496.186 963.087 538.181 953.657 580.602 945.289C584.499 944.442 588.325 943.418 590.688 937.579C586.808 936.417 582.288 933.661 579.163 934.084C548.533 938.991 517.362 942.845 487.7 949.868C429.103 963.676 368.571 973.252 307.044 980.35C253.024 986.506 198.365 991.068 143.918 996.162C127.734 997.77 110.328 995.457 91.8906 986.469C80.3414 970.018 93.5593 967.178 88.1259 954.82C79.3798 950.624 74.3198 953.264 72.9459 962.738C70.5784 961.825 67.6961 961.681 65.2877 959.494C51.535 947.227 39.6115 943.032 28.1643 945.006C18.4297 946.849 7.7989 946.753 -4.60928 942.23C8.07869 940.709 20.8377 939.364 33.4266 937.302C40.8627 936.183 48.6695 935.401 55.0952 932.353C65.2196 927.378 64.5663 915.2 54.5055 895.714C48.5574 884.125 42.5661 872.722 35.4223 859.035C29.0309 858.066 22.6545 856.548 16.6185 856.464C-20.5538 856.216 -57.2284 857.208 -94.7842 855.711C-114.318 854.839 -134.507 852.922 -158.815 837.815C-161.735 814.131 -175.639 788.005 -179.714 763.497C-180.492 758.629 -183.409 752.83 -184.258 747.785C-185.376 741.483 -185.368 735.642 -185.844 729.474C-186.504 721.676 -189.675 714.072 -195.358 706.661C-199.574 701.144 -203.632 695.433 -209.6 687.313C-204.46 685.459 -201.076 683.921 -197.478 682.915C-194.452 681.952 -191.169 681.335 -186.772 680.268C-192.356 673.396 -197.272 668.481 -201.06 662.567C-212.792 644.487 -213.314 630.291 -201.466 627.556C-189.39 624.804 -175.991 625.052 -163.275 623.893C-159.051 623.569 -154.941 623.253 -147.063 622.648C-167.675 607.075 -179.998 613.315 -194.772 606.419C-207.962 590.276 -221.153 574.133 -235.554 556.441C-238.788 542.819 -242.817 526.337 -247.924 504.828C-247.411 495.846 -230.122 499.629 -238.121 475.604C-246.215 467.466 -256.489 457.122 -267.689 445.936C-257.721 441.156 -248.379 434.233 -237.003 432.082C-224.828 429.869 -210.619 432.428 -197.476 432.331C-184.334 432.235 -171.29 431.598 -158.361 430.97C-135.014 429.907 -111.411 429.19 -88.2064 427.773C-82.2695 427.317 -75.9902 426.834 -77.8412 414.019C-111.315 411.844 -139.984 422.806 -177.136 407.956C-179.802 406.883 -182.851 403.102 -185.259 400.914C-188.512 390.761 -183.39 390.915 -179.835 390.095C-170.286 388.084 -160.452 386.781 -151.146 385.337C-152.297 381.592 -152.267 380.495 -152.78 379.804C-153.549 378.768 -154.874 377.227 -155.63 377.103C-172.094 375.082 -188.558 373.061 -205.251 371.058C-215.31 350.112 -228.19 346.174 -241.595 340.633C-208.964 343.055 -180.589 338.685 -153.951 331.165C-171.392 323.196 -188.054 320.095 -203.937 320.403C-213.512 320.59 -224.055 318.662 -234.425 315.991C-246.907 312.752 -259.843 308.088 -273.97 288.732C-271.498 285.804 -269.662 279.823 -266.382 280.666C-246.968 285.928 -234.593 273.662 -215.093 278.552C-197.134 282.831 -180.437 281.914 -163.443 282.616C-145.578 283.434 -127.998 283.544 -110.603 283.486C-104.752 283.402 -99.7547 281.193 -92.0321 279.322C-112.379 258.254 -120.03 279.647 -137.018 264.891C-152.824 251.322 -161.978 266.626 -178.391 258.578C-176.061 255.297 -174.159 252.413 -171.27 248.176C-196.821 243.75 -220.816 239.388 -244.642 235.742C-259.878 233.262 -275.309 226.782 -292.708 210.415C-289.607 206.709 -286.89 203.215 -284.103 199.898C-295.282 174.111 -312.309 175.966 -330.322 159.828C-314.64 159.902 -302.753 159.901 -289.953 159.831C-293.65 150.624 -297.05 143.038 -299.622 135.752C-302.294 127.927 -304.166 120.041 -307.12 110.047C-301.64 109.626 -295.931 109.188 -290.108 108.741C-263.834 106.175 -237.232 104.132 -211.243 100.859C-205.79 100.075 -200.534 96.7515 -197.844 91.4347C-188.629 73.9363 -175.175 65.2377 -152.754 73.0063C-150.158 73.902 -147.987 72.2752 -145.759 71.3742C-145.031 71.1357 -144.958 69.8526 -144.514 68.9059C-149.239 59.7783 -153.392 60.2798 -156.763 62.7288C-165.477 68.8732 -175.838 70.0339 -191.394 61.1905C-190.517 56.9255 -190.896 52.757 -189.283 52.0856C-167.436 42.0124 -142.844 38.4813 -115.564 40.7665C-104.877 41.5884 -95.838 37.4266 -85.748 36.4693C-61.1863 34.0355 -36.6526 31.2389 -11.6643 29.8675C37.513 27.1859 86.6473 24.6902 136.322 23.248C185.198 21.8672 234.315 21.3804 283.574 21.2477C301.083 21.1807 319.73 23.9464 337.879 25.4727C340.533 25.634 343.443 26.1405 346.026 26.1246C387.806 27.2963 429.772 28.6363 471.409 29.4539C511.335 30.403 551.928 33.3084 592.948 37.2761C620.256 39.9242 646.869 40.253 673.794 41.653C688.319 42.3626 688.319 42.3626 707.813 61.3064C710.424 61.6535 713.362 62.5229 715.803 62.1529C730.932 60.2611 746.101 59.6437 763.988 65.2054C779.349 70.0485 793.463 69.1471 807.974 70.4053C832.486 72.5381 856.927 74.4938 881.368 76.4495C885.007 76.7176 888.305 75.5518 892.098 77.0855C910.196 84.6386 924.842 80.9588 941.362 83.7053C975.986 89.6242 1007.47 86.8414 1040.88 89.7505C1049.03 90.4024 1057.22 90.8685 1065.68 92.5915C1087.21 96.9611 1107.6 98.4979 1127.83 98.7691C1161.31 99.4835 1195.61 101.96 1233.12 114.775C1260.25 124.007 1287.32 132.513 1312.7 133.301C1344.88 134.298 1347.99 135.884 1390.57 166.013C1404.35 175.723 1416.5 181.36 1428.65 183.165C1441.59 184.909 1454.28 185.759 1467.54 188.574C1479.51 191.123 1490.78 191.352 1505.2 204.115C1514.14 212.007 1524.51 211.757 1534.38 216.11C1553.22 224.336 1572.32 235.279 1589.86 235.575C1594.68 235.57 1601.7 241.601 1607.61 244.615C1614.54 248.098 1621.64 252.298 1628.09 253.993C1636.76 256.247 1644.55 257.474 1654.21 268.047C1658.86 273.166 1666.11 274.799 1671.58 275.839C1684.62 278.123 1697.61 279.681 1710.19 280.539C1718.57 281.174 1726.91 284.366 1739.21 294.189C1733.07 297.946 1729.27 302.253 1723.93 303.028C1701.51 306.392 1678.73 308.872 1655.95 311.351C1647.53 312.362 1638.61 312.135 1630.19 313.147C1623.8 313.638 1620.21 318.476 1621.35 328.061C1622.66 339.823 1631.45 343.529 1637.83 350.339C1636.86 360.817 1632.02 369.583 1646.57 384.709C1651.44 389.81 1654.48 399.432 1659.21 408.56C1666.45 411.654 1674.11 414.898 1685.22 419.703C1678.25 423.158 1673.01 424.473 1669.15 428.054C1657.12 438.834 1663.01 463.75 1681.95 483.65C1693.76 496.066 1705.33 504.667 1716.89 504.144C1727.31 503.709 1737.9 503.992 1749.33 504.026C1752.76 507.595 1756.92 510.926 1760.03 515.433C1771.43 531.53 1782.95 537.945 1794.48 538.52C1805.33 539.147 1815.96 539.243 1826.59 539.34C1835.32 539.399 1843.26 536.599 1856.74 547.609C1852.66 551.208 1850.07 555.605 1845.79 556.664C1840.39 558.173 1834.01 558.116 1827.51 557.155C1812.52 555.02 1803.97 562.43 1801.6 580.863C1812.11 597.942 1825.04 605.527 1837.86 611.66C1838.99 620.334 1839.85 627.75 1841.06 637.513C1851.37 642.379 1860.97 646.934 1871.53 652.146C1870.15 662.472 1868.91 671.693 1867.68 680.365C1855.35 681.312 1843.41 682.047 1831.49 683.144C1823.84 683.732 1815.89 684.16 1809.25 686.677C1798.82 690.581 1800.98 704.468 1813.66 719.92C1823.17 731.6 1832.77 739.076 1842.56 739.42C1850.56 739.718 1858.4 739.298 1866.54 739.95C1875.37 740.55 1884.63 742.211 1893.91 743.324C1898.42 753.381 1893.22 751.589 1891.77 753.526C1889.32 756.817 1886.21 759.611 1884.87 763.911C1883.83 767.459 1886 774.045 1885.14 777.761C1884.39 781.469 1882.46 785.45 1879.56 785.855C1865.46 787.668 1859.98 799.222 1862.48 818.923C1855.96 822.344 1850.41 825.508 1844.71 828.318C1841.9 829.812 1838.77 833.155 1835.7 831.383C1807.7 815.282 1794.4 836.379 1771.81 834.646C1750.21 833.02 1749.96 840.888 1761.62 876.676C1702.36 888.527 1632.64 874.353 1573.92 887.258C1575.87 896.233 1580.09 897.369 1583.79 898.363C1593.06 900.936 1601.48 898.464 1613.78 909.748C1610.37 910.922 1608.53 913.071 1605.89 912.361C1591.98 908.502 1581.02 910.804 1571.96 918.434C1565.82 923.652 1558.47 928.231 1549.9 927.977C1512.98 926.614 1486.85 948.879 1450.01 947.693C1443.33 947.476 1438.45 952.596 1431.41 955.875C1451.31 977.89 1459.01 953.39 1475.69 969.447C1473.27 990.074 1466.66 999.707 1454.4 1000.83C1444.47 1001.59 1434.61 1002.53 1422.92 1003.61C1427.79 1010.17 1430.61 1015.43 1432.38 1016.03C1439.04 1018.25 1445.33 1018.68 1451.96 1020.55C1452.6 1020.68 1454.45 1026.74 1456.16 1030.99C1462.83 1031.21 1470.07 1031.93 1476.62 1031.25C1479.7 1031.01 1483.9 1028.86 1483.6 1025.78C1482.36 1014.2 1488.2 1014.66 1494.72 1015.07C1498.25 1015.35 1501.76 1014.71 1504.27 1013.06C1510.81 1008.54 1518.1 1009.99 1528.35 1018.51C1533.62 1022.85 1539.62 1023.12 1549.24 1026.58C1544.83 1029.66 1543.24 1032.15 1540.57 1032.54C1523.87 1034.92 1507.46 1038 1490.19 1038.96C1452.92 1041.1 1419.41 1051.15 1385.79 1061.22C1382.04 1062.42 1375.88 1063.8 1376.31 1067.79C1378.13 1086.99 1365.66 1080.83 1356.54 1080.98C1353.04 1081.07 1349.26 1080.45 1345.6 1079.82C1336.22 1078.16 1326.11 1074.38 1317.59 1074.85C1302.29 1076.02 1287.8 1079.51 1272.32 1081.98C1280.73 1095.02 1286.44 1091.66 1292.05 1092.14C1319.33 1094.43 1346.4 1096.18 1373.61 1098.29C1376.26 1098.45 1379.23 1099.68 1383.34 1100.83C1376.83 1113.92 1363.43 1112.21 1352.4 1114.34C1342.66 1116.18 1331.42 1114.85 1320.72 1114.58C1309.14 1114.19 1296.6 1111.69 1285.89 1113.42C1258.5 1117.9 1226.64 1109.21 1197.61 1108.7C1168.27 1108.04 1139.5 1107.32 1114.13 1117.12C1083.42 1129.15 1048.68 1132.91 1012.73 1133.67C988.303 1134.08 965.493 1139.12 942.086 1142.38C938.961 1142.8 936.66 1144.99 929.077 1148.67C954.977 1148.69 975.11 1149.88 994.362 1148.58C1023.62 1146.7 1052.9 1145.18 1084.16 1149.17C1085.03 1149.29 1085.87 1149.04 1086.67 1148.98C1115.04 1137.86 1152.31 1151.24 1184.49 1150.77C1187.98 1150.69 1191.91 1151.66 1195.4 1151.58C1233.19 1148.68 1273.44 1153.07 1313.21 1155.67C1317.56 1155.95 1322.95 1152.67 1329.39 1145.85C1324 1142.98 1320.29 1141.08 1314.97 1138.38C1323.36 1123.5 1339.78 1135.38 1356.03 1133.95C1350.45 1139.67 1348.37 1141.84 1346.19 1144.01C1347.7 1145.72 1349.73 1149.03 1350.65 1148.96C1363.93 1149.22 1377 1148.95 1391.7 1148.91C1385.06 1151.43 1379.54 1153.5 1374.01 1155.57L1375.86 1160.17C1380.84 1161.43 1385.9 1162.32 1391.09 1164.11C1395.76 1165.76 1400.66 1168.3 1407.15 1171.27C1405.59 1175.59 1404.69 1178.03 1403.71 1180.3C1420.36 1193.62 1433.87 1198.24 1447.16 1197.04C1479.3 1193.84 1511.65 1191.17 1544 1188.5C1575.51 1186.08 1607.02 1183.66 1637.36 1178.6C1620.34 1184.28 1603.25 1189.79 1586.12 1195.49C1574.58 1199.3 1563.97 1203.94 1549.33 1201.78C1536.67 1199.83 1526.73 1206.44 1514.95 1207.89C1485.68 1211.78 1456.33 1215.49 1426.59 1218.51C1417.3 1219.4 1409.04 1221.68 1398.72 1230.87C1407.76 1233.46 1411.43 1235.55 1413.98 1235.17C1430.64 1232.98 1450.07 1237.69 1464.73 1230.54C1468.93 1228.4 1474.72 1229.05 1480.29 1229.72C1512.97 1234.32 1540.42 1226.19 1570.19 1223.54C1589.83 1222.03 1610.82 1223.89 1631.1 1223.97C1639.03 1224.09 1647.36 1224.92 1654.73 1223.62C1663.62 1222.02 1673.69 1226 1683.34 1234.2C1694.95 1244.07 1707.19 1256.09 1712.73 1274.28C1695.81 1294.56 1670.69 1299.41 1645.87 1304.42C1623.14 1309.09 1599.41 1311.82 1576.07 1315.26C1570.28 1316.07 1564.54 1317.6 1558 1316.28C1511.31 1307.27 1473.58 1320.57 1431.72 1323.6C1418.95 1333.71 1402.71 1336.05 1383.29 1330.79C1382.35 1330.5 1381.72 1331.28 1380.99 1331.51C1331.15 1344.83 1276.62 1347.38 1226.09 1359.29C1207.7 1363.62 1190.89 1371.3 1172.84 1376.15C1142.66 1383.95 1111.94 1390.69 1081.36 1397.78C1078.15 1398.57 1074.8 1399.01 1071.23 1398.92C1023.31 1398.59 983.632 1416.42 939.043 1423.49C936.603 1423.86 934.475 1425.3 931.963 1425.5C887.934 1430.15 847.917 1443.63 805.396 1451.46C791.465 1453.99 778.288 1458.1 764.756 1461.33C759.974 1462.61 755.618 1464.95 750.381 1464.81C699.368 1463.8 659.892 1488 612.421 1494.93C592.668 1497.91 575.174 1507.1 553.686 1505.46C536.293 1504.06 520.267 1505.48 504.595 1507.78C496.246 1508.96 488.508 1511.38 480.443 1513.28C475.59 1514.38 471.163 1516.55 465.855 1516.23C423.278 1513.65 385.763 1523.11 346.073 1527.43C321.468 1530.05 296.579 1531.96 272.017 1534.4C262.384 1535.32 252.384 1532.98 240.823 1525.29C230.116 1518.27 219.364 1512.89 204.593 1504.53L205.862 1505.35ZM768.527 1130.16C811.27 1136.36 846.033 1124.75 881.124 1113.66C881.966 1113.41 881.016 1109.29 880.878 1106.01C859.444 1096.89 849.673 1113.89 832.492 1114.48C809.531 1115.33 789.682 1124.52 768.527 1130.16ZM901.545 1102.97C914.356 1105.27 929.631 1110.48 938.194 1100.15L901.545 1102.97ZM-75.8588 275.343C-60.8009 282.947 -52.0315 277.528 -39.781 272.572C-54.7331 270.8 -67.654 265.587 -75.8588 275.343ZM1356 1018.97C1363.95 1023.84 1372.79 1031.19 1371.97 1016.83C1369.08 1015.78 1365.68 1013.48 1363.54 1014.01C1360.6 1014.6 1358.44 1017.14 1356 1018.97ZM-15.5057 270.89C-17.0891 270.465 -18.7435 269.862 -20.2988 269.798C-20.5271 269.816 -20.4151 271.267 -20.4732 272.002C-18.8899 272.428 -17.2355 273.031 -15.6801 273.094C-15.4518 273.076 -15.5639 271.625 -15.5057 270.89ZM1443.79 989.053L1444.78 991.531L1446.18 990.329L1443.79 989.053ZM965.445 1571.3C976.741 1574.82 986.478 1571.51 997.421 1572.68C1008.94 1573.8 1022.04 1583.57 1034.05 1583.01C1077.95 1580.37 1122.7 1579.85 1167.81 1580.22C1245.67 1580.99 1323.86 1582.84 1401.97 1584.5C1433.09 1585.22 1464.45 1586.82 1495.64 1587.71C1501.75 1587.97 1508.83 1588.89 1505.56 1574.9C1490.71 1557.25 1474.73 1541.5 1456.71 1528.28C1442.71 1541.77 1421.98 1540.26 1401.13 1538.76C1390.22 1537.95 1380.89 1531.73 1371.7 1516.74C1375.41 1514.27 1379.01 1511.8 1382.49 1509.34C1371.86 1503.96 1363.04 1502.81 1354.54 1502.73C1338.55 1502.5 1323 1503.33 1307.09 1503.27C1248.98 1503.35 1190.8 1503.26 1132.65 1503.53C1122.44 1503.58 1111.54 1502.23 1109.47 1517.9C1108.75 1523.43 1100.42 1524.07 1094.52 1524.34C1050.49 1526.63 1006.05 1528.22 961.865 1530.15C949.735 1530.72 937.676 1531.46 925.972 1533.09C920.977 1533.84 917.418 1537.58 922.494 1550.51C936.169 1557.31 951.253 1566.74 965.374 1571.13L965.445 1571.3ZM928.745 1450.02C931.542 1450.53 934.437 1451.59 936.949 1451.39C976.409 1448.55 1015.73 1445.34 1055.33 1442.85C1069.9 1441.91 1084.87 1441.68 1100.18 1442.87C1136.26 1445.4 1173.4 1451.12 1207.69 1448.31C1223.11 1447.12 1239.16 1447.53 1255.21 1447.94C1290.84 1449.04 1326.4 1449.96 1362.53 1452.29C1389.48 1454.06 1413.69 1447.82 1442.95 1455.61C1450.86 1457.74 1458.88 1457.49 1463.67 1450.37C1460.65 1448.41 1458.4 1446.03 1456.77 1445.79C1416.96 1439.54 1376.68 1431.86 1338.78 1431.85C1307.95 1431.85 1275.99 1428.46 1245.15 1428.46C1203.87 1428.52 1162.97 1429.84 1122.28 1431.69C1071.29 1433.96 1020.55 1437.13 969.913 1440.28C955.457 1441.21 941.455 1443.57 927.283 1445.2C927.923 1446.79 928.334 1448.41 928.974 1450L928.745 1450.02ZM1235.89 1486.29C1254.86 1485.75 1273.4 1484.14 1294.24 1488.56C1304.28 1490.71 1314.4 1491.58 1323.1 1485.98C1318.73 1483.03 1315.56 1479.81 1313.24 1479.62C1268.79 1475.01 1226.09 1475.36 1184.47 1479.29C1201.72 1481.8 1219.51 1486.82 1235.89 1486.29ZM1168.71 1124.97L1124.42 1128.38C1124.42 1128.38 1124.91 1129.62 1125.2 1130.32C1140.57 1130.79 1156.05 1131.24 1171.34 1131.53C1170.49 1129.4 1169.57 1127.1 1168.71 1124.97ZM1235.37 1126.24C1226.06 1127.69 1216.75 1129.13 1207.38 1130.4C1207.73 1131.29 1208.09 1132.17 1208.44 1133.06L1237.79 1130.8C1236.92 1129.23 1236.05 1127.65 1235.18 1126.08L1235.37 1126.24ZM-202.225 251.101C-211.23 251.245 -218.636 251.266 -225.928 251.278C-212.372 258.268 -204.471 258.208 -202.225 251.101ZM671.301 1283.99L647.193 1287.85C647.62 1288.91 648.047 1289.98 648.473 1291.04L673.819 1289.09C672.88 1287.34 672.126 1285.76 671.187 1284L671.301 1283.99ZM1281.04 1132.41C1277.04 1132.72 1273.3 1133.37 1269.16 1133.32C1265.14 1133.27 1260.83 1132.5 1256.59 1131.91C1257.16 1133.33 1257.8 1134.92 1258.37 1136.34L1281.89 1134.53L1281.11 1132.59L1281.04 1132.41ZM735.545 47.1312L716.251 48.613C716.748 49.8523 717.175 50.9146 717.558 52.1627C724.307 52.557 731.127 53.1282 737.876 53.5225C737.023 51.3979 736.284 49.2646 735.545 47.1312ZM1356.95 1479.73C1350.92 1479.65 1345.98 1479.66 1341.04 1479.68C1350.19 1486.64 1355.5 1486.66 1356.95 1479.73ZM962.453 63.8348L953.091 64.5538C953.446 65.439 953.916 66.3155 954.457 67.369L963.463 65.7648C963.463 65.7648 962.851 64.5342 962.453 63.8348ZM1490.48 989.847C1489.43 991.935 1488.5 994.014 1487.46 996.102C1489.08 997.802 1491.57 1001.08 1492.37 1001.02C1494.13 1000.7 1494.99 998.444 1496.36 996.878C1493.64 993.62 1492.06 991.734 1490.43 990.033L1490.48 989.847ZM1126.65 75.3162C1125.71 75.0234 1124.94 75.4477 1124.14 75.5091C1125.3 76.3329 1126.55 77.6967 1127.49 77.9894C1128.32 78.2909 1128.88 77.3355 1129.53 76.92C1128.63 76.4415 1127.59 75.6089 1126.65 75.3162ZM790.005 52.6219C788.307 52.2047 786.582 51.4247 785.027 51.3616C784.342 51.4143 783.941 52.175 783.398 52.5817C784.895 53.3793 786.35 54.3627 787.847 55.1603C788.59 54.3732 789.262 53.409 790.005 52.6219ZM1562.54 1021C1562.54 1021 1563.25 1024.23 1563.54 1025.85C1564.91 1025.74 1566.4 1025.63 1567.55 1024.99C1568.01 1024.96 1567.34 1023 1567.14 1021.92C1565.56 1021.5 1563.72 1020.72 1562.42 1021.01L1562.54 1021ZM-267.655 332.596C-266.756 333.075 -265.117 334.226 -264.917 333.846C-264.516 333.085 -264.928 331.474 -264.968 330.2C-265.768 330.261 -266.681 330.331 -267.551 330.216C-267.538 331.127 -267.597 331.862 -267.584 332.773L-267.655 332.596ZM903.056 58.3583C900.245 58.3917 897.434 58.425 894.737 58.4496L896.23 62.1677L904.336 61.5451C903.909 60.4829 903.483 59.4206 903.056 58.3583ZM1054.69 75.1847C1055.47 75.672 1056.32 75.4249 1057.07 75.5493C1056.28 74.1505 1055.59 72.7428 1054.8 71.344C1054.25 71.7507 1053.71 72.1574 1053.17 72.5641C1053.64 73.4405 1054.09 74.8657 1054.69 75.1847Z" fill="#394B46"/>
</g>
</svg>
