<svg width="1520" height="1060" viewBox="0 0 1520 1060" fill="none" xmlns="http://www.w3.org/2000/svg">
<mask id="mask0_1469_2364" style="mask-type:alpha" maskUnits="userSpaceOnUse" x="0" y="0" width="1520" height="1060">
<rect width="1520" height="1060" fill="#D9D9D9"/>
</mask>
<g mask="url(#mask0_1469_2364)">
<path d="M-18.9484 1867.13C-3.61263 1854.19 6.82445 1842.18 19.6499 1835.41C30.7251 1829.69 35.7656 1819.1 34.978 1799.67C34.8024 1795.3 35.1347 1791.32 35.1402 1786.27C56.3805 1772.3 84.8912 1777.77 109.561 1766.53C98.9253 1755.54 92.3666 1759.92 85.2956 1758C75.0058 1755.3 65.0479 1754.11 54.6274 1750.99C49.6385 1749.52 44.1721 1744.8 35.487 1739.32C38.822 1733.72 39.8988 1728.79 42.5996 1728.3C81.975 1720.62 121.159 1712.74 160.992 1706.55C175.693 1704.2 191.958 1706.51 206.981 1704.79C219.112 1703.35 230.071 1698.52 241.875 1696.02C250.853 1694.03 259.891 1691.8 269.456 1691.72C309.037 1691.04 347.643 1687.6 382.337 1672.28C384.841 1671.15 387.341 1669.58 390.112 1669.74C442.08 1673.52 485.581 1652.27 533.571 1643.95C550.153 1640.97 566.218 1636.72 582.604 1633.11C610.728 1626.78 640.794 1625.07 666.203 1612.44C687.981 1601.48 712.59 1601.42 735.755 1596.25C756.095 1591.58 775.78 1584.78 798.423 1577.9C779.413 1566.65 766.206 1567.54 753.064 1568.64C707.604 1572.54 662.208 1576.66 617.075 1581.63C589.856 1584.58 563.099 1589.46 536.076 1593.05C534.442 1593.21 531.962 1591.05 529.493 1589.76C527.503 1575.27 527.273 1560.6 523.266 1545.88C515.192 1516.65 501.368 1502.03 483.629 1502.93C471.237 1503.52 459.116 1505.83 447.699 1509.17C388.236 1526.98 324.926 1533.11 262.269 1541.37C189.368 1550.88 115.623 1558.06 42.3293 1566.29C29.2529 1567.61 16.5686 1570.19 0.89827 1559.27C-1.68568 1547.91 3.65561 1547.15 7.9256 1546.29C31.921 1542.12 56.3085 1539.24 80.1781 1535.09C96.7601 1532.11 112.824 1527.87 129.21 1524.25C137.308 1522.34 145.34 1520.22 153.633 1518.95C192.526 1513.07 232.006 1509.11 270.25 1501.54C308.62 1493.96 345.491 1481.93 383.468 1473.08C433.184 1461.51 483.489 1451.86 533.014 1440.09C549.208 1436.27 563.845 1428.23 579.446 1422.06C552.546 1408.75 530.542 1410.96 512.536 1427.02C509.855 1429.26 505.374 1428.18 501.793 1428.75C491.804 1430.41 481.429 1431.24 471.767 1433.96C454.954 1438.72 440.609 1450.24 420.019 1443.98C415.976 1442.63 411.957 1443.47 408.829 1445.1C376.111 1462.63 336.234 1459.4 301.043 1469.73C281.533 1475.42 263.196 1484.49 240.69 1481.27C228.924 1498.24 208.723 1487.33 191.537 1487.08C169.444 1486.88 146.193 1484.61 130.284 1502.43C127.859 1505.09 123.398 1505.76 119.601 1503.94C92.5145 1490.88 73.261 1502.46 52.3182 1509.38C39.4024 1513.75 25.2548 1514.95 11.2983 1516.35C8.28065 1516.65 3.32212 1512.32 -0.434403 1508.54C-11.6387 1497.38 -21.2947 1495.06 -30.7049 1497.76C-43.9424 1501.5 -57.5018 1504.62 -70.8047 1508.14C-72.5949 1505.69 -75.2653 1503.33 -75.7932 1501.19C-81.6014 1477.51 -92.0373 1461.96 -107.101 1454.56C-111.341 1452.57 -115.525 1449.92 -119.83 1447.72C-122.867 1446.27 -125.774 1445.25 -133.046 1442.25C-121.739 1434.76 -113.244 1429.08 -104.186 1423.13C-108.173 1410.16 -111.255 1399.28 -114.905 1388.25C-118.942 1376.38 -120.39 1365.34 -116.888 1357.75C-110.123 1343.92 -115.693 1324.52 -120.56 1306.16C-115.353 1293.57 -104.44 1295.77 -95.3918 1294.42C-80.5651 1292.06 -66.6434 1287.59 -53.3753 1281C-38.6035 1273.81 -21.4432 1271.87 -4.9869 1268.9C12.4753 1265.84 30.6514 1264.67 48.1789 1261.81C100.887 1253.24 153.983 1245.5 205.912 1234.8C234.107 1229.12 261.648 1221.32 290.034 1215.84C337.638 1206.67 384.326 1194.53 431.407 1183.67C435.737 1182.58 440.002 1181.27 443.005 1174.17C438.836 1172.84 434.079 1169.59 430.624 1170.16C396.71 1176.63 362.279 1181.84 329.275 1190.85C264.083 1208.57 197.071 1221.22 129.144 1230.89C69.5105 1239.28 9.28868 1245.77 -50.7371 1252.89C-68.5864 1255.12 -87.4965 1252.63 -107.065 1242.09C-118.555 1222.42 -103.869 1218.75 -108.947 1203.91C-118.234 1199 -123.966 1202.28 -126.143 1213.75C-128.673 1212.69 -131.821 1212.57 -134.305 1209.97C-148.507 1195.38 -161.276 1190.53 -173.96 1193.12C-184.758 1195.51 -196.401 1195.59 -209.678 1190.34C-195.666 1188.28 -181.589 1186.43 -167.647 1183.71C-159.419 1182.23 -150.809 1181.14 -143.551 1177.35C-132.103 1171.15 -131.956 1156.45 -141.6 1133.08C-147.297 1119.18 -153.054 1105.51 -159.912 1089.09C-166.848 1088.03 -173.728 1086.31 -180.336 1086.32C-221.054 1086.68 -261.314 1088.52 -302.363 1087.38C-323.707 1086.67 -345.696 1084.71 -371.263 1066.89C-372.784 1038.32 -386.169 1006.99 -388.897 977.447C-389.404 971.578 -392.19 964.622 -392.762 958.541C-393.541 950.945 -393.118 943.886 -393.203 936.44C-393.373 927.029 -396.309 917.895 -402.011 909.039C-406.24 902.447 -410.283 895.618 -416.247 885.911C-410.483 883.578 -406.666 881.661 -402.652 880.381C-399.267 879.164 -395.626 878.36 -390.732 876.992C-396.364 868.787 -401.403 862.934 -405.134 855.854C-416.71 834.212 -416.275 817.067 -403.098 813.552C-389.669 810.011 -375.004 810.075 -360.987 808.449C-356.335 807.982 -351.808 807.527 -343.133 806.657C-364.616 788.203 -378.563 795.961 -394.264 787.889C-407.575 768.614 -420.885 749.34 -435.413 728.214C-437.991 711.809 -441.238 691.963 -445.31 666.061C-444.111 655.197 -425.433 659.462 -432.496 630.571C-440.789 620.878 -451.314 608.56 -462.794 595.241C-451.533 589.287 -440.805 580.756 -428.186 577.955C-414.687 575.065 -399.297 577.906 -384.888 577.556C-370.479 577.206 -356.14 576.206 -341.927 575.218C-316.268 573.52 -290.351 572.235 -264.822 570.111C-258.284 569.455 -251.369 568.761 -252.489 553.306C-289.016 551.271 -321.211 565.027 -360.87 547.739C-363.717 546.489 -366.789 541.974 -369.273 539.373C-372.119 527.161 -366.516 527.256 -362.563 526.202C-351.956 523.603 -341.087 521.854 -330.787 519.943C-331.782 515.439 -331.672 514.112 -332.184 513.287C-332.954 512.048 -334.296 510.21 -335.116 510.073C-353.015 507.922 -370.915 505.772 -389.065 503.647C-398.603 478.512 -412.439 473.981 -426.736 467.522C-391.149 469.871 -359.745 464.088 -330.021 454.527C-348.568 445.207 -366.608 441.755 -384.035 442.407C-394.541 442.804 -405.957 440.661 -417.132 437.616C-430.58 433.923 -444.426 428.515 -458.536 405.374C-455.618 401.793 -453.183 394.532 -449.648 395.493C-428.746 401.508 -414.316 386.466 -393.294 392.03C-373.916 396.882 -355.554 395.478 -336.981 396.026C-317.462 396.698 -298.205 396.52 -279.138 396.141C-272.721 395.936 -267.088 393.178 -258.492 390.781C-279.296 365.68 -289.197 391.669 -306.767 374.138C-323.126 358.02 -334.243 376.676 -351.658 367.241C-348.872 363.234 -346.583 359.716 -343.117 354.544C-370.803 349.649 -396.789 344.802 -422.64 340.818C-439.161 338.091 -455.611 330.533 -473.518 311.062C-469.857 306.529 -466.632 302.258 -463.343 298.201C-473.766 267.235 -492.555 269.779 -511.152 250.596C-493.972 250.407 -480.946 250.196 -466.914 249.884C-470.313 238.823 -473.5 229.715 -475.803 220.957C-478.176 211.548 -479.668 202.05 -482.197 190.025C-476.162 189.42 -469.875 188.789 -463.462 188.145C-434.488 184.58 -405.192 181.64 -376.479 177.223C-370.449 176.18 -364.453 172.07 -361.128 165.597C-349.79 144.287 -334.429 133.537 -310.41 142.528C-307.629 143.564 -305.134 141.56 -302.63 140.432C-301.815 140.131 -301.644 138.579 -301.09 137.427C-305.621 126.48 -310.208 127.16 -314.075 130.179C-324.059 137.759 -335.496 139.345 -351.916 128.933C-350.653 123.764 -350.773 118.733 -348.958 117.893C-324.303 105.333 -297.103 100.63 -267.37 102.908C-255.717 103.712 -245.517 98.5226 -234.392 97.1869C-207.304 93.8107 -180.221 89.9964 -152.74 87.8964C-98.6593 83.7847 -44.6389 79.8984 9.89944 77.2756C63.5577 74.7411 117.417 73.2828 171.407 72.2498C190.599 71.8586 210.837 74.8706 230.617 76.3937C233.514 76.5415 236.667 77.1021 239.498 77.0372C285.2 77.7131 331.093 78.589 376.663 78.8395C420.348 79.2792 464.626 82.0713 509.296 86.1395C539.034 88.8559 568.174 88.7819 597.581 89.9968C613.448 90.597 613.448 90.597 633.468 113.145C636.304 113.518 639.462 114.517 642.163 114.026C658.876 111.472 675.543 110.457 694.75 116.862C711.24 122.442 726.771 121.103 742.583 122.366C769.294 124.51 795.939 126.44 822.584 128.371C826.552 128.63 830.249 127.163 834.297 128.949C853.594 137.756 869.905 133.05 887.814 136.076C925.337 142.616 960.035 138.695 996.447 141.619C1005.33 142.262 1014.27 142.681 1023.42 144.613C1046.7 149.512 1068.93 151.008 1091.09 150.977C1127.72 151.248 1165.13 153.632 1205.33 168.455C1234.41 179.131 1263.47 188.931 1291.23 189.434C1326.42 190.069 1329.72 191.931 1374.24 227.587C1388.66 239.076 1401.57 245.673 1414.75 247.64C1428.81 249.518 1442.66 250.32 1456.99 253.487C1469.92 256.355 1482.26 256.432 1497.16 271.601C1506.39 280.979 1517.78 280.494 1528.28 285.579C1548.35 295.187 1568.51 308.073 1587.7 308.12C1592.99 308.028 1600.25 315.193 1606.52 318.73C1613.86 322.816 1621.35 327.766 1628.29 329.7C1637.64 332.27 1646.09 333.615 1655.92 346.222C1660.65 352.325 1668.48 354.171 1674.4 355.33C1688.53 357.859 1702.65 359.512 1716.38 360.327C1725.51 360.945 1734.43 364.654 1747.21 376.308C1740.22 380.957 1735.74 386.229 1729.84 387.26C1705.03 391.723 1679.89 395.123 1654.76 398.522C1645.46 399.894 1635.7 399.777 1626.4 401.149C1619.36 401.855 1615.08 407.766 1615.66 419.329C1616.26 433.521 1625.62 437.843 1632.13 445.96C1630.33 458.639 1624.41 469.319 1639.28 487.341C1644.25 493.419 1646.9 504.993 1651.43 515.94C1659.15 519.55 1667.32 523.336 1679.15 528.945C1671.27 533.244 1665.43 534.926 1660.95 539.322C1647 552.562 1651.69 582.569 1671.03 606.281C1683.09 621.076 1695.17 631.266 1707.87 630.43C1719.32 629.719 1730.9 629.873 1743.42 629.712C1746.93 633.964 1751.26 637.915 1754.34 643.307C1765.7 662.558 1777.87 670.107 1790.46 670.597C1802.3 671.163 1813.95 671.091 1825.59 671.019C1835.16 670.936 1844.05 667.412 1858.05 680.479C1853.31 684.9 1850.17 690.259 1845.4 691.615C1839.38 693.534 1832.39 693.578 1825.33 692.532C1809.07 690.218 1799.16 699.324 1795.26 721.642C1805.57 742.095 1819.2 751.032 1832.81 758.217C1833.44 768.679 1833.85 777.626 1834.49 789.402C1845.44 795.1 1855.64 800.436 1866.85 806.546C1864.6 819.05 1862.58 830.215 1860.63 840.717C1847.05 842.08 1833.91 843.179 1820.77 844.717C1812.34 845.562 1803.6 846.22 1796.15 849.38C1784.44 854.283 1785.82 871.027 1798.62 889.476C1808.22 903.422 1818.2 912.287 1828.9 912.528C1837.66 912.746 1846.27 912.101 1855.15 912.745C1864.79 913.312 1874.82 915.156 1884.9 916.337C1889.13 928.41 1883.57 926.337 1881.83 928.704C1878.92 932.724 1875.31 936.156 1873.54 941.376C1872.14 945.682 1874.06 953.603 1872.85 958.109C1871.77 962.603 1869.37 967.448 1866.17 967.989C1850.59 970.429 1843.76 984.489 1845.1 1008.25C1837.72 1012.5 1831.41 1016.42 1824.97 1019.92C1821.78 1021.78 1818.11 1025.87 1814.88 1023.78C1785.33 1004.82 1769.26 1030.55 1744.63 1028.86C1721.07 1027.28 1720.24 1036.79 1730.48 1079.83C1664.7 1095.21 1589.31 1079.31 1524.04 1095.95C1525.55 1106.76 1530.09 1108.06 1534.07 1109.19C1544.05 1112.14 1553.45 1109 1566.13 1122.42C1562.31 1123.9 1560.14 1126.53 1557.29 1125.72C1542.33 1121.3 1530.15 1124.27 1519.68 1133.66C1512.58 1140.07 1504.21 1145.73 1494.83 1145.58C1454.48 1144.59 1424.26 1171.96 1383.97 1171.18C1376.67 1171.03 1370.95 1177.31 1363.01 1181.39C1383.26 1207.64 1393.43 1177.9 1410.58 1197.01C1406.45 1221.98 1398.53 1233.74 1385.02 1235.31C1374.08 1236.41 1363.21 1237.72 1350.32 1239.23C1355.19 1247.08 1357.91 1253.38 1359.8 1254.07C1366.95 1256.64 1373.81 1257.05 1380.95 1259.18C1381.64 1259.33 1383.23 1266.63 1384.8 1271.73C1392.11 1271.88 1399.98 1272.62 1407.21 1271.68C1410.6 1271.34 1415.36 1268.67 1415.25 1264.95C1414.71 1250.97 1421.08 1251.43 1428.19 1251.81C1432.04 1252.08 1435.93 1251.25 1438.8 1249.21C1446.29 1243.64 1454.18 1245.26 1464.8 1255.37C1470.27 1260.52 1476.82 1260.74 1487.13 1264.75C1482.07 1268.55 1480.15 1271.59 1477.2 1272.11C1458.73 1275.28 1440.53 1279.29 1421.54 1280.76C1380.54 1284 1343.11 1296.75 1305.55 1309.5C1301.35 1311.02 1294.51 1312.8 1294.69 1317.61C1295.33 1340.79 1282.1 1333.56 1272.09 1333.91C1268.26 1334.08 1264.16 1333.39 1260.19 1332.69C1250.03 1330.86 1239.22 1326.47 1229.85 1327.19C1213 1328.88 1196.88 1333.35 1179.73 1336.6C1188.03 1352.21 1194.53 1348.05 1200.64 1348.54C1230.37 1350.81 1259.91 1352.45 1289.57 1354.52C1292.47 1354.67 1295.63 1356.11 1300.06 1357.42C1291.99 1373.35 1277.43 1371.53 1265.19 1374.29C1254.39 1376.69 1242.17 1375.28 1230.46 1375.14C1217.8 1374.88 1204.24 1372.07 1192.37 1374.36C1162.04 1380.26 1127.75 1370.32 1095.96 1370.22C1063.86 1369.94 1032.39 1369.59 1003.89 1381.87C969.383 1396.96 931.049 1402.12 891.604 1403.67C864.802 1404.6 839.449 1411.09 813.568 1415.45C810.112 1416.01 807.436 1418.69 798.866 1423.28C827.246 1422.84 849.225 1423.93 870.413 1422.02C902.606 1419.23 934.804 1416.87 968.777 1421.14C969.723 1421.26 970.663 1420.95 971.543 1420.86C1003.42 1406.92 1043.31 1422.43 1078.61 1421.3C1082.45 1421.13 1086.67 1422.24 1090.51 1422.08C1132.13 1417.9 1175.93 1422.49 1219.32 1424.94C1224.06 1425.19 1230.21 1421.14 1237.75 1412.78C1232.04 1409.41 1228.12 1407.17 1222.48 1404.01C1232.72 1385.88 1249.87 1399.94 1267.79 1397.93C1261.26 1404.94 1258.84 1407.6 1256.28 1410.26C1257.82 1412.3 1259.81 1416.27 1260.82 1416.17C1275.36 1416.24 1289.7 1415.68 1305.81 1415.38C1298.36 1418.54 1292.16 1421.14 1285.96 1423.73L1287.66 1429.26C1293.02 1430.7 1298.51 1431.68 1304.07 1433.75C1309.07 1435.66 1314.26 1438.65 1321.16 1442.12C1319.14 1447.37 1317.98 1450.34 1316.75 1453.09C1334.05 1468.9 1348.53 1474.24 1363.17 1472.55C1398.62 1468.12 1434.26 1464.32 1469.91 1460.52C1504.61 1457.04 1539.31 1453.56 1572.91 1446.9C1553.86 1454.07 1534.74 1461.03 1515.56 1468.22C1502.65 1473.02 1490.7 1478.83 1474.81 1476.48C1461.06 1474.35 1449.7 1482.5 1436.69 1484.47C1404.34 1489.69 1371.92 1494.69 1339.11 1498.86C1328.87 1500.11 1319.65 1503.01 1307.69 1514.3C1317.42 1517.27 1321.29 1519.73 1324.11 1519.23C1342.52 1516.28 1363.48 1521.63 1380.06 1512.73C1384.81 1510.07 1391.11 1510.75 1397.16 1511.46C1432.65 1516.45 1463.31 1506.13 1496.12 1502.4C1517.75 1500.23 1540.62 1502.1 1562.83 1501.85C1571.52 1501.85 1580.59 1502.7 1588.76 1501C1598.61 1498.91 1609.36 1503.54 1619.36 1513.28C1631.39 1525.01 1643.95 1539.31 1648.73 1561.2C1628.74 1586.01 1600.87 1592.31 1573.31 1598.8C1548.08 1604.84 1521.88 1608.57 1496.06 1613.13C1489.66 1614.22 1483.26 1616.17 1476.19 1614.69C1425.66 1604.63 1383.37 1621.37 1337.29 1625.78C1322.57 1638.22 1304.61 1641.34 1283.71 1635.32C1282.7 1634.98 1281.95 1635.94 1281.14 1636.24C1225.57 1653.22 1165.63 1657.26 1109.41 1672.55C1088.96 1678.11 1070 1687.68 1049.86 1693.87C1016.24 1703.82 982.1 1712.51 948.091 1721.62C944.515 1722.64 940.809 1723.23 936.906 1723.19C884.42 1723.63 839.671 1745.88 790.308 1755.22C787.607 1755.71 785.172 1757.49 782.406 1757.77C733.827 1764.18 689.019 1781.17 641.868 1791.38C626.423 1794.69 611.692 1799.89 596.633 1804.04C591.302 1805.67 586.363 1808.57 580.634 1808.49C524.804 1808.17 479.829 1838.12 427.316 1847.34C405.459 1851.29 385.637 1862.7 362.205 1861.11C343.245 1859.72 325.582 1861.71 308.245 1864.77C299.011 1866.35 290.36 1869.41 281.388 1871.85C275.991 1873.27 270.987 1875.96 265.193 1875.67C218.717 1873.31 176.937 1885.4 133.136 1891.33C105.987 1894.93 78.5774 1897.68 51.4891 1901.06C40.867 1902.34 30.0743 1899.7 17.9495 1890.61C6.71483 1882.31 -4.68609 1876 -20.2811 1866.16L-18.9484 1867.13ZM624.239 1403.75C670.639 1410.49 709.558 1395.84 748.798 1381.82C749.739 1381.51 748.99 1376.54 749.071 1372.58C726.228 1361.94 714.317 1382.65 695.447 1383.67C670.224 1385.1 647.823 1396.56 624.239 1403.75ZM771.934 1368.54C785.81 1371.09 802.18 1377.12 812.295 1364.49L771.934 1368.54ZM-240.487 385.685C-224.525 394.607 -214.531 387.904 -200.755 381.697C-217.014 379.821 -230.804 373.75 -240.487 385.685ZM1275.9 1258.98C1284.27 1264.72 1293.44 1273.45 1293.55 1256.11C1290.45 1254.89 1286.9 1252.18 1284.52 1252.85C1281.25 1253.62 1278.71 1256.73 1275.9 1258.98ZM-174.034 379.235C-175.739 378.749 -177.509 378.049 -179.209 378C-179.46 378.026 -179.44 379.778 -179.556 380.666C-177.851 381.153 -176.081 381.852 -174.381 381.901C-174.129 381.876 -174.149 380.124 -174.034 379.235ZM1374.22 1221.27L1375.14 1224.25L1376.76 1222.77L1374.22 1221.27ZM808.762 1933.38C820.893 1937.42 831.797 1933.26 843.706 1934.48C856.244 1935.63 869.908 1947.19 883.115 1946.31C931.407 1942.34 980.483 1940.92 1029.89 1940.57C1115.16 1940.12 1200.71 1940.97 1286.19 1941.6C1320.24 1941.91 1354.49 1943.29 1388.61 1943.82C1395.29 1944.02 1402.98 1945 1400.39 1928.16C1385.36 1907.09 1368.97 1888.34 1350.17 1872.69C1333.86 1889.23 1311.25 1887.77 1288.52 1886.33C1276.61 1885.55 1266.83 1878.2 1257.82 1860.25C1262.06 1857.19 1266.18 1854.15 1270.18 1851.11C1258.9 1844.79 1249.32 1843.56 1240.01 1843.62C1222.51 1843.62 1205.4 1844.9 1187.97 1845.11C1124.29 1846.24 1060.54 1847.16 996.803 1848.51C985.602 1848.76 973.753 1847.32 970.382 1866.29C969.199 1872.99 960.021 1873.91 953.543 1874.34C905.12 1877.88 856.31 1880.59 807.757 1883.71C794.424 1884.61 781.156 1885.72 768.215 1887.89C762.688 1888.89 758.523 1893.47 763.169 1909.01C777.673 1916.98 793.534 1928.11 808.697 1933.16L808.762 1933.38ZM777.143 1787.45C780.17 1788.03 783.268 1789.25 786.034 1788.97C829.478 1784.83 872.791 1780.27 916.366 1776.55C932.399 1775.16 948.82 1774.61 965.512 1775.79C1004.88 1778.19 1045.17 1784.46 1082.95 1780.45C1099.92 1778.74 1117.48 1778.95 1135.05 1779.16C1174.01 1779.86 1212.91 1780.34 1252.34 1782.52C1281.75 1784.18 1308.72 1776.21 1340.23 1785.1C1348.76 1787.54 1357.56 1787.09 1363.32 1778.4C1360.14 1776.09 1357.85 1773.25 1356.08 1772.99C1312.89 1766.14 1269.3 1757.58 1227.77 1758.24C1193.98 1758.78 1159.19 1755.25 1125.4 1755.79C1080.16 1756.61 1035.25 1758.92 990.53 1761.87C934.493 1765.52 878.656 1770.25 822.946 1774.97C807.038 1776.34 791.527 1779.43 775.881 1781.66C776.469 1783.58 776.806 1785.52 777.394 1787.43L777.143 1787.45ZM1111.16 1825.85C1131.98 1824.86 1152.41 1822.59 1174.93 1827.56C1185.79 1829.98 1196.81 1830.85 1206.74 1823.93C1202.17 1820.45 1198.91 1816.61 1196.39 1816.42C1148 1811.63 1101.19 1812.82 1055.31 1818.3C1074.03 1821.03 1093.17 1826.78 1111.16 1825.85ZM1063.15 1390.4L1014.37 1395.29C1014.37 1395.29 1014.82 1396.78 1015.08 1397.63C1031.89 1397.92 1048.83 1398.19 1065.57 1398.27C1064.78 1395.72 1063.93 1392.95 1063.15 1390.4ZM1136.1 1390.75C1125.8 1392.66 1115.5 1394.57 1105.13 1396.27C1105.46 1397.33 1105.79 1398.4 1106.12 1399.46L1138.43 1396.22C1137.59 1394.33 1136.75 1392.44 1135.91 1390.55L1136.1 1390.75ZM-377.247 358.627C-387.124 358.961 -395.242 359.118 -403.233 359.262C-388.874 367.468 -380.212 367.257 -377.247 358.627ZM506.791 1591.38L480.099 1596.47C480.492 1597.75 480.884 1599.02 481.276 1600.3L509.189 1597.5C508.284 1595.4 507.57 1593.5 506.665 1591.39L506.791 1591.38ZM1185.71 1397.39C1181.31 1397.84 1177.16 1398.69 1172.63 1398.71C1168.23 1398.71 1163.56 1397.86 1158.96 1397.23C1159.48 1398.93 1160.07 1400.84 1160.59 1402.55L1186.49 1399.95L1185.78 1397.61L1185.71 1397.39ZM664.863 95.5232L643.613 97.6557C644.071 99.1446 644.463 100.421 644.795 101.922C652.163 102.279 659.596 102.849 666.964 103.206C666.18 100.653 665.521 98.0882 664.863 95.5232ZM1244.28 1815.78C1237.68 1815.79 1232.26 1815.89 1226.85 1816C1236.39 1824.25 1242.2 1824.18 1244.28 1815.78ZM912.334 111.69L902.024 112.724C902.351 113.788 902.803 114.839 903.321 116.102L913.305 114.004C913.305 114.004 912.722 112.528 912.334 111.69ZM1425.33 1221.4C1424.04 1223.94 1422.87 1226.47 1421.58 1229.01C1423.24 1231.04 1425.74 1234.95 1426.62 1234.87C1428.56 1234.45 1429.66 1231.71 1431.28 1229.79C1428.53 1225.9 1426.93 1223.65 1425.27 1221.63L1425.33 1221.4ZM1091.46 122.656C1090.45 122.319 1089.57 122.845 1088.69 122.934C1089.9 123.909 1091.18 125.535 1092.19 125.872C1093.07 126.221 1093.75 125.057 1094.5 124.543C1093.55 123.981 1092.47 122.993 1091.46 122.656ZM724.153 101.194C722.322 100.72 720.487 99.8077 718.787 99.7591C718.032 99.8348 717.539 100.761 716.916 101.262C718.5 102.2 720.023 103.362 721.608 104.3C722.478 103.335 723.282 102.158 724.153 101.194ZM1502.09 1257.77C1502.09 1257.77 1502.64 1261.66 1502.85 1263.61C1504.36 1263.46 1505.99 1263.3 1507.3 1262.51C1507.81 1262.46 1507.21 1260.11 1507.07 1258.8C1505.37 1258.32 1503.41 1257.42 1501.96 1257.78L1502.09 1257.77ZM-454.724 458.272C-453.773 458.834 -452.058 460.197 -451.812 459.733C-451.319 458.807 -451.656 456.867 -451.61 455.328C-452.49 455.416 -453.496 455.517 -454.442 455.393C-454.492 456.494 -454.608 457.383 -454.658 458.484L-454.724 458.272ZM847.632 106.124C844.55 106.214 841.466 106.304 838.509 106.381L839.882 110.848L848.809 109.952C848.417 108.676 848.025 107.4 847.632 106.124ZM1012.61 123.772C1013.43 124.347 1014.37 124.033 1015.19 124.17C1014.42 122.494 1013.77 120.805 1013 119.129C1012.37 119.63 1011.75 120.131 1011.12 120.632C1011.58 121.683 1011.97 123.397 1012.61 123.772Z" fill="#202C25"/>
</g>
</svg>
