<svg width="148" height="132" viewBox="0 0 148 132" fill="none" xmlns="http://www.w3.org/2000/svg">
<ellipse cx="74.2733" cy="36.9892" rx="12.0604" ry="36.9892" fill="#F20056"/>
<ellipse cx="72.7413" cy="94.4053" rx="12.0604" ry="36.9892" transform="rotate(-180 72.7413 94.4053)" fill="#F20056"/>
<ellipse cx="11.8176" cy="37.7786" rx="11.8176" ry="37.7786" transform="matrix(-0.703274 -0.710919 0.738078 -0.674716 27.0884 124.562)" fill="#F20056"/>
<ellipse cx="11.8173" cy="37.7795" rx="11.8173" ry="37.7795" transform="matrix(-0.702831 -0.711357 0.738497 -0.674257 78.8237 77.6953)" fill="#F20056"/>
<ellipse cx="11.8648" cy="37.6276" rx="11.8648" ry="37.6276" transform="matrix(0.771564 -0.636152 0.665754 0.746171 17.7988 25.0332)" fill="#F20056"/>
<ellipse cx="11.8079" cy="37.8094" rx="11.8079" ry="37.8094" transform="matrix(-0.688304 0.725422 -0.751903 -0.659274 134.558 105.429)" fill="#F20056"/>
<ellipse cx="11.5958" cy="38.4716" rx="11.5958" ry="38.4716" transform="matrix(0.0710649 -0.997472 0.99784 0.0656946 0 73.9766)" fill="#F20056"/>
<ellipse cx="11.5936" cy="38.4784" rx="11.5936" ry="38.4784" transform="matrix(0.0038528 0.999993 -0.999994 0.00356033 147.329 55.415)" fill="#F20056"/>
</svg>
