<svg width="1512" height="925" viewBox="0 0 1512 925" fill="none" xmlns="http://www.w3.org/2000/svg">
<mask id="mask0_1649_2404" style="mask-type:alpha" maskUnits="userSpaceOnUse" x="0" y="0" width="1512" height="925">
<rect width="1512" height="925" fill="#D9D9D9"/>
</mask>
<g mask="url(#mask0_1649_2404)">
<path d="M190.026 1505.35C202.317 1494.83 210.523 1485.03 221.001 1479.59C230.057 1475.01 233.783 1466.3 232.158 1450.19C231.794 1446.57 231.877 1443.28 231.632 1439.1C248.85 1427.82 273.159 1432.73 293.403 1423.74C283.892 1414.5 278.579 1418.04 272.522 1416.36C263.713 1413.99 255.258 1412.86 246.318 1410.14C242.039 1408.85 237.197 1404.88 229.602 1400.22C232.138 1395.62 232.802 1391.55 235.054 1391.18C267.874 1385.35 300.522 1379.35 333.801 1374.76C346.079 1373 359.907 1375.14 372.488 1373.91C382.645 1372.88 391.647 1369.03 401.476 1367.12C408.946 1365.58 416.457 1363.86 424.518 1363.92C457.856 1363.89 490.236 1361.56 518.731 1349.33C520.787 1348.43 522.817 1347.17 525.161 1347.34C569.164 1351.16 604.791 1334.14 644.842 1327.89C658.675 1325.64 672.01 1322.35 685.647 1319.57C709.047 1314.7 734.312 1313.69 755.111 1303.57C772.931 1294.79 793.677 1295.07 812.953 1291.09C829.871 1287.49 846.132 1282.13 864.883 1276.73C848.299 1267.16 837.207 1267.72 826.181 1268.45C788.044 1271.08 749.974 1273.88 712.165 1277.39C689.362 1279.47 667.043 1283.15 644.436 1285.77C643.066 1285.88 640.869 1284.05 638.724 1282.96C636.329 1270.93 635.41 1258.78 631.303 1246.52C623.05 1222.21 610.671 1209.91 595.76 1210.42C585.341 1210.74 575.235 1212.5 565.774 1215.11C516.519 1229.06 463.443 1233.29 411.023 1239.3C350.027 1246.2 288.205 1251.16 226.815 1257C215.855 1257.91 205.288 1259.88 191.535 1250.62C188.795 1241.18 193.261 1240.62 196.818 1239.96C216.844 1236.84 237.263 1234.77 257.184 1231.66C271.017 1229.41 284.352 1226.11 297.989 1223.33C304.721 1221.86 311.389 1220.21 318.318 1219.27C350.82 1214.92 383.911 1212.17 415.782 1206.42C447.759 1200.65 478.251 1191.18 509.834 1184.36C551.179 1175.44 593.116 1168.12 634.29 1159.04C647.756 1156.09 659.699 1149.62 672.548 1144.72C649.209 1133.34 630.766 1134.87 616.378 1147.93C614.228 1149.75 610.397 1148.8 607.406 1149.23C599.067 1150.47 590.359 1151.01 582.348 1153.14C568.407 1156.85 556.882 1166.21 539.212 1160.74C535.736 1159.57 532.39 1160.21 529.833 1161.52C503.114 1175.61 469.332 1172.39 440.172 1180.48C424.004 1184.93 408.991 1192.2 389.856 1189.23C380.775 1203.12 363.203 1193.82 348.701 1193.38C330.063 1192.92 310.348 1190.73 297.815 1205.28C295.902 1207.45 292.174 1207.94 288.883 1206.39C265.399 1195.2 249.738 1204.53 232.423 1209.99C221.749 1213.43 209.88 1214.24 198.181 1215.21C195.652 1215.42 191.257 1211.77 187.903 1208.58C177.904 1199.2 169.648 1197.14 161.848 1199.25C150.871 1202.17 139.593 1204.57 128.551 1207.32C126.921 1205.26 124.552 1203.27 124.001 1201.49C117.933 1181.8 108.365 1168.78 95.2984 1162.45C91.6257 1160.75 87.9668 1158.5 84.2284 1156.62C81.5956 1155.38 79.0941 1154.49 72.8144 1151.91C81.977 1145.85 88.859 1141.27 96.2022 1136.46C92.199 1125.66 89.0628 1116.61 85.4394 1107.42C81.4482 1097.53 79.6821 1088.37 82.2589 1082.13C87.2793 1070.77 81.6235 1054.63 76.612 1039.35C80.3797 1029 89.6897 1030.96 97.2518 1029.97C109.636 1028.21 121.153 1024.69 132.014 1019.41C144.113 1013.66 158.486 1012.28 172.214 1010.04C186.785 1007.74 202.053 1007.01 216.69 1004.88C260.706 998.483 305.09 992.783 348.345 984.622C371.836 980.295 394.672 974.197 418.334 970.039C458.018 963.087 496.782 953.657 535.941 945.289C539.538 944.442 543.069 943.418 545.25 937.579C541.669 936.417 537.497 933.661 534.612 934.084C506.338 938.991 477.565 942.845 450.185 949.868C396.095 963.676 340.22 973.252 283.425 980.35C233.561 986.506 183.106 991.068 132.848 996.162C117.909 997.77 101.842 995.457 84.8222 986.47C74.1614 970.018 86.3625 967.178 81.3471 954.82C73.2738 950.625 68.603 953.264 67.3348 962.738C65.1494 961.825 62.4888 961.681 60.2656 959.494C47.5708 947.227 36.5645 943.032 25.9979 945.006C17.0122 946.849 7.1991 946.753 -4.25461 942.23C7.45736 940.709 19.235 939.364 30.8554 937.302C37.7196 936.183 44.9258 935.401 50.8572 932.353C60.2028 927.378 59.5998 915.2 50.3129 895.714C44.8223 884.125 39.2919 872.722 32.6977 859.035C26.7979 858.066 20.9119 856.548 15.3403 856.464C-18.9726 856.216 -52.8261 857.207 -87.493 855.711C-105.524 854.839 -124.16 852.922 -146.599 837.815C-149.294 814.131 -162.129 788.005 -165.89 763.497C-166.608 758.629 -169.3 752.83 -170.084 747.785C-171.116 741.483 -171.108 735.642 -171.548 729.474C-172.157 721.676 -175.084 714.072 -180.33 706.661C-184.222 701.144 -187.968 695.433 -193.477 687.313C-188.732 685.459 -185.608 683.921 -182.288 682.915C-179.494 681.952 -176.464 681.335 -172.405 680.268C-177.56 673.396 -182.097 668.481 -185.593 662.567C-196.423 644.487 -196.905 630.291 -185.969 627.556C-174.821 624.804 -162.453 625.052 -150.715 623.893C-146.816 623.569 -143.022 623.253 -135.75 622.648C-154.776 607.075 -166.152 613.315 -179.789 606.419C-191.965 590.276 -204.141 574.133 -217.435 556.441C-220.42 542.819 -224.139 526.337 -228.853 504.828C-228.38 495.846 -212.42 499.629 -219.804 475.604C-227.275 467.466 -236.759 457.122 -247.097 445.936C-237.897 441.156 -229.273 434.233 -218.772 432.082C-207.533 429.869 -194.417 432.428 -182.286 432.331C-170.154 432.235 -158.114 431.598 -146.179 430.97C-124.628 429.907 -102.841 429.19 -81.4212 427.773C-75.941 427.317 -70.1447 426.834 -71.8533 414.019C-102.752 411.844 -129.216 422.806 -163.51 407.956C-165.971 406.883 -168.785 403.102 -171.008 400.914C-174.011 390.761 -169.283 390.915 -166.002 390.095C-157.187 388.084 -148.11 386.781 -139.52 385.337C-140.582 381.592 -140.554 380.495 -141.027 379.804C-141.737 378.768 -142.96 377.227 -143.658 377.103C-158.856 375.082 -174.054 373.061 -189.462 371.058C-198.747 350.112 -210.637 346.174 -223.011 340.633C-192.89 343.055 -166.698 338.685 -142.109 331.165C-158.208 323.196 -173.589 320.095 -188.25 320.403C-197.088 320.59 -206.82 318.662 -216.392 315.991C-227.914 312.752 -239.855 308.088 -252.896 288.732C-250.613 285.804 -248.919 279.823 -245.891 280.666C-227.97 285.928 -216.547 273.662 -198.547 278.552C-181.969 282.831 -166.557 281.914 -150.87 282.616C-134.38 283.434 -118.152 283.544 -102.095 283.486C-96.6943 283.402 -92.0811 281.193 -84.9526 279.322C-103.734 258.254 -110.797 279.647 -126.478 264.891C-141.068 251.322 -149.518 266.626 -164.669 258.578C-162.517 255.297 -160.762 252.413 -158.095 248.176C-181.681 243.75 -203.83 239.388 -225.823 235.742C-239.887 233.262 -254.131 226.782 -270.192 210.415C-267.329 206.709 -264.822 203.215 -262.249 199.898C-272.568 174.111 -288.285 175.966 -304.913 159.828C-290.437 159.902 -279.465 159.901 -267.649 159.831C-271.062 150.624 -274.2 143.038 -276.574 135.752C-279.04 127.927 -280.769 120.041 -283.495 110.047C-278.437 109.626 -273.167 109.188 -267.792 108.741C-243.539 106.175 -218.984 104.132 -194.993 100.859C-189.96 100.075 -185.109 96.7515 -182.625 91.4347C-174.119 73.9363 -161.7 65.2377 -141.003 73.0063C-138.607 73.902 -136.603 72.2752 -134.547 71.3742C-133.875 71.1357 -133.807 69.8526 -133.398 68.9059C-137.759 59.7783 -141.593 60.2798 -144.704 62.7288C-152.748 68.8732 -162.312 70.0339 -176.671 61.1905C-175.862 56.9255 -176.212 52.757 -174.723 52.0856C-154.556 42.0124 -131.856 38.4813 -106.674 40.7665C-96.8092 41.5884 -88.4658 37.4266 -79.1519 36.4693C-56.4795 34.0355 -33.833 31.2389 -10.767 29.8675C34.6275 27.1859 79.9822 24.6902 125.836 23.248C170.952 21.8672 216.291 21.3804 261.761 21.2477C277.923 21.1807 295.135 23.9464 311.888 25.4728C314.338 25.634 317.025 26.1405 319.409 26.1247C357.975 27.2963 396.712 28.6363 435.147 29.4539C472.001 30.403 509.472 33.3084 547.336 37.2761C572.544 39.9242 597.11 40.253 621.964 41.653C635.372 42.3626 635.372 42.3626 653.366 61.3064C655.776 61.6535 658.488 62.5229 660.741 62.1529C674.706 60.2611 688.709 59.6437 705.219 65.2054C719.399 70.0485 732.428 69.1471 745.822 70.4053C768.449 72.5381 791.01 74.4938 813.571 76.4495C816.93 76.7176 819.974 75.5518 823.476 77.0856C840.181 84.6386 853.7 80.9588 868.95 83.7053C900.911 89.6242 929.972 86.8414 960.817 89.7505C968.337 90.4024 975.898 90.8685 983.706 92.5915C1003.58 96.9611 1022.4 98.4979 1041.08 98.7691C1071.98 99.4835 1103.64 101.96 1138.26 114.775C1163.31 124.007 1188.29 132.513 1211.73 133.301C1241.43 134.298 1244.3 135.884 1283.6 166.013C1296.33 175.723 1307.54 181.36 1318.75 183.165C1330.69 184.909 1342.42 185.759 1354.65 188.574C1365.7 191.123 1376.1 191.352 1389.42 204.115C1397.66 212.007 1407.24 211.757 1416.35 216.11C1433.74 224.336 1451.38 235.279 1467.56 235.575C1472.02 235.57 1478.49 241.602 1483.95 244.615C1490.35 248.098 1496.9 252.298 1502.85 253.993C1510.86 256.247 1518.05 257.474 1526.97 268.047C1531.25 273.166 1537.94 274.799 1543 275.839C1555.04 278.123 1567.02 279.681 1578.64 280.539C1586.37 281.174 1594.07 284.366 1605.42 294.189C1599.76 297.946 1596.25 302.253 1591.32 303.028C1570.62 306.392 1549.6 308.872 1528.57 311.351C1520.8 312.362 1512.56 312.135 1504.79 313.147C1498.89 313.638 1495.58 318.476 1496.63 328.061C1497.84 339.823 1505.95 343.529 1511.84 350.339C1510.95 360.817 1506.48 369.583 1519.91 384.709C1524.41 389.81 1527.21 399.432 1531.58 408.56C1538.26 411.654 1545.33 414.898 1555.59 419.703C1549.15 423.158 1544.32 424.473 1540.76 428.054C1529.65 438.834 1535.09 463.75 1552.56 483.65C1563.47 496.066 1574.15 504.667 1584.82 504.144C1594.44 503.709 1604.21 503.992 1614.76 504.026C1617.93 507.595 1621.77 510.926 1624.64 515.433C1635.17 531.53 1645.8 537.945 1656.45 538.52C1666.46 539.147 1676.27 539.243 1686.08 539.34C1694.14 539.399 1701.47 536.599 1713.92 547.609C1710.14 551.208 1707.75 555.605 1703.8 556.664C1698.82 558.173 1692.93 558.116 1686.93 557.155C1673.1 555.02 1665.2 562.43 1663.02 580.863C1672.71 597.942 1684.65 605.527 1696.48 611.66C1697.53 620.334 1698.32 627.75 1699.44 637.513C1708.96 642.379 1717.82 646.934 1727.57 652.146C1726.29 662.472 1725.15 671.693 1724.02 680.365C1712.63 681.312 1701.61 682.047 1690.61 683.144C1683.55 683.732 1676.21 684.16 1670.08 686.677C1660.45 690.581 1662.44 704.468 1674.15 719.92C1682.93 731.6 1691.78 739.076 1700.82 739.42C1708.21 739.718 1715.44 739.298 1722.96 739.95C1731.11 740.55 1739.66 742.211 1748.22 743.324C1752.38 753.381 1747.59 751.589 1746.25 753.526C1743.99 756.817 1741.11 759.611 1739.88 763.911C1738.92 767.459 1740.92 774.045 1740.13 777.761C1739.44 781.469 1737.65 785.45 1734.98 785.855C1721.96 787.668 1716.9 799.222 1719.21 818.923C1713.2 822.344 1708.07 825.508 1702.81 828.318C1700.21 829.812 1697.32 833.155 1694.49 831.383C1668.65 815.282 1656.37 836.38 1635.52 834.646C1615.58 833.02 1615.34 840.888 1626.11 876.676C1571.41 888.527 1507.05 874.353 1452.85 887.258C1454.65 896.233 1458.55 897.369 1461.96 898.363C1470.52 900.936 1478.29 898.464 1489.64 909.748C1486.49 910.922 1484.79 913.071 1482.36 912.361C1469.52 908.502 1459.4 910.804 1451.04 918.435C1445.37 923.652 1438.59 928.231 1430.68 927.977C1396.6 926.614 1372.48 948.879 1338.47 947.693C1332.31 947.476 1327.8 952.596 1321.3 955.875C1339.67 977.89 1346.78 953.39 1362.18 969.447C1359.94 990.074 1353.84 999.707 1342.52 1000.83C1333.36 1001.59 1324.25 1002.53 1313.46 1003.61C1317.96 1010.17 1320.56 1015.43 1322.19 1016.03C1328.34 1018.25 1334.15 1018.68 1340.27 1020.55C1340.86 1020.68 1342.57 1026.74 1344.14 1030.99C1350.31 1031.21 1356.99 1031.93 1363.03 1031.25C1365.88 1031.01 1369.75 1028.86 1369.48 1025.78C1368.34 1014.2 1373.72 1014.66 1379.74 1015.07C1383 1015.35 1386.24 1014.71 1388.56 1013.06C1394.6 1008.54 1401.33 1009.99 1410.78 1018.51C1415.65 1022.85 1421.18 1023.12 1430.07 1026.58C1426 1029.66 1424.53 1032.15 1422.07 1032.54C1406.65 1034.92 1391.5 1038 1375.56 1038.96C1341.15 1041.1 1310.23 1051.15 1279.19 1061.22C1275.73 1062.42 1270.05 1063.8 1270.44 1067.79C1272.12 1086.99 1260.61 1080.83 1252.19 1080.98C1248.96 1081.07 1245.47 1080.45 1242.09 1079.82C1233.44 1078.16 1224.1 1074.38 1216.24 1074.85C1202.12 1076.02 1188.74 1079.51 1174.45 1081.98C1182.21 1095.02 1187.49 1091.66 1192.66 1092.14C1217.85 1094.43 1242.83 1096.18 1267.95 1098.29C1270.4 1098.45 1273.13 1099.68 1276.93 1100.83C1270.92 1113.92 1258.55 1112.21 1248.37 1114.34C1239.38 1116.18 1229 1114.85 1219.12 1114.58C1208.44 1114.19 1196.87 1111.69 1186.97 1113.42C1161.69 1117.9 1132.29 1109.21 1105.48 1108.7C1078.4 1108.04 1051.85 1107.32 1028.43 1117.12C1000.08 1129.15 968.013 1132.91 934.831 1133.67C912.28 1134.08 891.225 1139.12 869.618 1142.38C866.733 1142.8 864.609 1144.99 857.61 1148.67C881.517 1148.69 900.101 1149.88 917.872 1148.58C944.877 1146.7 971.908 1145.18 1000.76 1149.17C1001.57 1149.29 1002.34 1149.04 1003.08 1148.98C1029.27 1137.86 1063.67 1151.24 1093.37 1150.77C1096.6 1150.69 1100.22 1151.66 1103.45 1151.58C1138.33 1148.68 1175.49 1153.07 1212.19 1155.67C1216.21 1155.95 1221.18 1152.67 1227.13 1145.85C1222.15 1142.98 1218.73 1141.08 1213.82 1138.38C1221.56 1123.5 1236.72 1135.38 1251.72 1133.95C1246.57 1139.67 1244.65 1141.84 1242.64 1144.01C1244.03 1145.72 1245.91 1149.03 1246.75 1148.96C1259.01 1149.22 1271.08 1148.95 1284.65 1148.91C1278.52 1151.43 1273.42 1153.5 1268.32 1155.57L1270.03 1160.17C1274.62 1161.43 1279.3 1162.32 1284.09 1164.11C1288.39 1165.76 1292.92 1168.3 1298.91 1171.27C1297.47 1175.59 1296.64 1178.03 1295.74 1180.3C1311.1 1193.62 1323.57 1198.24 1335.84 1197.04C1365.5 1193.84 1395.37 1191.17 1425.23 1188.5C1454.32 1186.08 1483.41 1183.66 1511.41 1178.6C1495.7 1184.28 1479.92 1189.79 1464.11 1195.49C1453.46 1199.3 1443.67 1203.94 1430.16 1201.78C1418.46 1199.83 1409.28 1206.44 1398.42 1207.89C1371.39 1211.78 1344.31 1215.49 1316.85 1218.51C1308.28 1219.4 1300.65 1221.68 1291.13 1230.87C1299.47 1233.46 1302.86 1235.55 1305.21 1235.17C1320.59 1232.98 1338.52 1237.69 1352.06 1230.54C1355.94 1228.4 1361.28 1229.05 1366.42 1229.72C1396.59 1234.32 1421.93 1226.19 1449.41 1223.54C1467.54 1222.03 1486.91 1223.89 1505.63 1223.97C1512.95 1224.09 1520.64 1224.92 1527.44 1223.62C1535.65 1222.02 1544.94 1226 1553.85 1234.2C1564.57 1244.07 1575.87 1256.09 1580.99 1274.28C1565.36 1294.56 1542.17 1299.41 1519.26 1304.42C1498.28 1309.09 1476.38 1311.82 1454.83 1315.26C1449.49 1316.07 1444.19 1317.6 1438.16 1316.28C1395.06 1307.27 1360.23 1320.57 1321.59 1323.6C1309.8 1333.71 1294.81 1336.05 1276.89 1330.79C1276.02 1330.5 1275.44 1331.28 1274.76 1331.51C1228.75 1344.83 1178.42 1347.38 1131.77 1359.29C1114.8 1363.62 1099.29 1371.3 1082.62 1376.15C1054.76 1383.95 1026.41 1390.69 998.182 1397.78C995.217 1398.57 992.121 1399.01 988.828 1398.92C944.597 1398.59 907.968 1416.42 866.809 1423.49C864.557 1423.86 862.592 1425.3 860.273 1425.5C819.632 1430.15 782.692 1443.63 743.443 1451.46C730.583 1453.99 718.42 1458.1 705.929 1461.33C701.514 1462.61 697.494 1464.95 692.66 1464.81C645.571 1463.8 609.131 1488 565.312 1494.93C547.078 1497.91 530.93 1507.1 511.095 1505.46C495.04 1504.06 480.246 1505.48 465.78 1507.78C458.073 1508.96 450.93 1511.38 443.486 1513.28C439.006 1514.38 434.92 1516.55 430.02 1516.23C390.718 1513.65 356.089 1523.11 319.452 1527.43C296.74 1530.05 273.765 1531.96 251.093 1534.4C242.201 1535.32 232.97 1532.98 222.298 1525.29C212.415 1518.27 202.49 1512.89 188.855 1504.53L190.026 1505.35ZM709.409 1130.16C748.865 1136.36 780.954 1124.75 813.346 1113.66C814.123 1113.41 813.246 1109.29 813.119 1106.01C793.333 1096.89 784.314 1113.89 768.454 1114.48C747.259 1115.33 728.938 1124.52 709.409 1130.16ZM832.196 1102.97C844.021 1105.27 858.121 1110.48 866.025 1100.15L832.196 1102.97ZM-70.0234 275.343C-56.1238 282.947 -48.029 277.528 -36.7208 272.572C-50.5228 270.8 -62.4498 265.587 -70.0234 275.343ZM1251.69 1018.97C1259.04 1023.84 1267.19 1031.19 1266.43 1016.83C1263.76 1015.78 1260.63 1013.48 1258.65 1014.01C1255.94 1014.6 1253.95 1017.14 1251.69 1018.97ZM-14.3129 270.89C-15.7744 270.465 -17.3016 269.862 -18.7373 269.798C-18.948 269.816 -18.8446 271.267 -18.8982 272.002C-17.4367 272.428 -15.9095 273.031 -14.4739 273.094C-14.2631 273.076 -14.3666 271.625 -14.3129 270.89ZM1332.73 989.053L1333.65 991.531L1334.94 990.329L1332.73 989.053ZM891.18 1571.3C901.608 1574.82 910.595 1571.51 920.697 1572.68C931.325 1573.8 943.417 1583.57 954.509 1583.01C995.03 1580.37 1036.34 1579.85 1077.97 1580.22C1149.85 1580.99 1222.02 1582.84 1294.12 1584.5C1322.85 1585.22 1351.8 1586.82 1380.59 1587.71C1386.23 1587.97 1392.76 1588.89 1389.75 1574.9C1376.04 1557.25 1361.29 1541.5 1344.66 1528.28C1331.73 1541.77 1312.6 1540.26 1293.35 1538.76C1283.28 1537.95 1274.67 1531.73 1266.18 1516.74C1269.61 1514.27 1272.93 1511.8 1276.15 1509.34C1266.33 1503.96 1258.19 1502.81 1250.34 1502.73C1235.59 1502.5 1221.23 1503.33 1206.54 1503.27C1152.91 1503.35 1099.2 1503.26 1045.53 1503.53C1036.1 1503.58 1026.03 1502.23 1024.13 1517.9C1023.46 1523.43 1015.77 1524.07 1010.33 1524.34C969.679 1526.63 928.659 1528.22 887.875 1530.15C876.678 1530.72 865.547 1531.46 854.744 1533.09C850.133 1533.84 846.848 1537.58 851.533 1550.51C864.156 1557.31 878.08 1566.74 891.114 1571.13L891.18 1571.3ZM857.304 1450.02C859.885 1450.53 862.557 1451.59 864.876 1451.39C901.3 1448.55 937.594 1445.34 974.149 1442.85C987.599 1441.91 1001.42 1441.68 1015.55 1442.87C1048.86 1445.4 1083.14 1451.12 1114.79 1448.31C1129.02 1447.12 1143.84 1447.53 1158.66 1447.94C1191.55 1449.04 1224.37 1449.96 1257.72 1452.29C1282.6 1454.06 1304.95 1447.82 1331.95 1455.61C1339.26 1457.74 1346.66 1457.49 1351.08 1450.37C1348.29 1448.41 1346.22 1446.03 1344.71 1445.79C1307.96 1439.54 1270.79 1431.86 1235.8 1431.85C1207.34 1431.85 1177.83 1428.46 1149.37 1428.46C1111.26 1428.52 1073.51 1429.84 1035.95 1431.69C988.887 1433.96 942.043 1437.13 895.305 1440.28C881.96 1441.21 869.035 1443.57 855.953 1445.2C856.544 1446.79 856.924 1448.41 857.514 1450L857.304 1450.02ZM1140.82 1486.29C1158.33 1485.75 1175.44 1484.14 1194.68 1488.56C1203.95 1490.71 1213.29 1491.58 1221.32 1485.98C1217.29 1483.03 1214.36 1479.81 1212.23 1479.62C1171.19 1475.01 1131.78 1475.36 1093.36 1479.29C1109.28 1481.8 1125.7 1486.82 1140.82 1486.29ZM1078.81 1124.97L1037.92 1128.38C1037.92 1128.38 1038.38 1129.62 1038.64 1130.32C1052.83 1130.79 1067.12 1131.24 1081.24 1131.53C1080.45 1129.4 1079.6 1127.1 1078.81 1124.97ZM1140.34 1126.24C1131.75 1127.69 1123.16 1129.13 1114.5 1130.4C1114.83 1131.29 1115.16 1132.17 1115.49 1133.06L1142.57 1130.8C1141.77 1129.23 1140.97 1127.65 1140.17 1126.08L1140.34 1126.24ZM-186.669 251.101C-194.981 251.245 -201.818 251.266 -208.548 251.278C-196.035 258.268 -188.742 258.208 -186.669 251.101ZM619.662 1283.99L597.41 1287.85C597.803 1288.91 598.197 1289.98 598.591 1291.04L621.987 1289.09C621.12 1287.34 620.424 1285.76 619.557 1284L619.662 1283.99ZM1182.49 1132.41C1178.81 1132.72 1175.35 1133.37 1171.53 1133.32C1167.82 1133.27 1163.84 1132.5 1159.93 1131.91C1160.46 1133.33 1161.05 1134.92 1161.57 1136.34L1183.28 1134.53L1182.56 1132.59L1182.49 1132.41ZM678.965 47.1312L661.154 48.613C661.614 49.8523 662.008 50.9146 662.361 52.1627C668.591 52.557 674.887 53.1282 681.117 53.5225C680.329 51.3979 679.647 49.2646 678.965 47.1312ZM1252.57 1479.73C1247 1479.65 1242.44 1479.66 1237.88 1479.68C1246.33 1486.64 1251.23 1486.66 1252.57 1479.73ZM888.418 63.8348L879.776 64.5538C880.104 65.439 880.538 66.3155 881.037 67.369L889.351 65.7648C889.351 65.7648 888.786 64.5342 888.418 63.8348ZM1375.82 989.847C1374.86 991.935 1374 994.014 1373.04 996.102C1374.54 997.802 1376.84 1001.08 1377.57 1001.02C1379.2 1000.7 1379.99 998.444 1381.26 996.878C1378.74 993.62 1377.28 991.734 1375.78 990.033L1375.82 989.847ZM1039.99 75.3162C1039.12 75.0234 1038.41 75.4477 1037.67 75.5091C1038.73 76.3329 1039.89 77.6967 1040.76 77.9894C1041.52 78.2909 1042.04 77.3355 1042.65 76.9201C1041.82 76.4415 1040.86 75.6089 1039.99 75.3162ZM729.235 52.6219C727.668 52.2048 726.076 51.4247 724.64 51.3617C724.008 51.4143 723.638 52.175 723.137 52.5818C724.519 53.3793 725.861 54.3627 727.243 55.1603C727.929 54.3732 728.549 53.409 729.235 52.6219ZM1442.34 1021C1442.34 1021 1443 1024.23 1443.27 1025.85C1444.54 1025.74 1445.9 1025.63 1446.97 1024.99C1447.39 1024.96 1446.78 1023 1446.59 1021.92C1445.13 1021.5 1443.44 1020.72 1442.24 1021.01L1442.34 1021ZM-247.066 332.596C-246.237 333.075 -244.723 334.226 -244.538 333.846C-244.169 333.085 -244.548 331.474 -244.586 330.2C-245.324 330.261 -246.167 330.331 -246.97 330.216C-246.958 331.127 -247.012 331.862 -247 332.773L-247.066 332.596ZM833.59 58.3583C830.995 58.3917 828.4 58.425 825.911 58.4496L827.289 62.1677L834.771 61.5452C834.378 60.4829 833.984 59.4206 833.59 58.3583ZM973.561 75.1847C974.284 75.672 975.062 75.4249 975.76 75.5493C975.024 74.1505 974.394 72.7428 973.658 71.344C973.157 71.7507 972.656 72.1574 972.155 72.5641C972.588 73.4406 973.008 74.8657 973.561 75.1847Z" fill="#A3C585"/>
</g>
</svg>
