<svg width="802" height="530" viewBox="0 0 802 530" fill="none" xmlns="http://www.w3.org/2000/svg">
<mask id="mask0_1692_4329" style="mask-type:alpha" maskUnits="userSpaceOnUse" x="1" y="1" width="801" height="529">
<path d="M39.4024 472.546C45.9621 469.542 50.7571 466.655 55.8247 465.208C60.1874 463.993 62.9976 461.339 64.7352 456.208C65.1262 455.055 65.6502 454.018 66.1727 452.692C74.8502 449.57 83.9976 451.748 93.5621 449.431C91.0735 446.265 88.3867 447.248 86.1763 446.559C82.9492 445.584 79.6803 445.012 76.4526 443.921C74.9051 443.404 73.5295 442.023 71.1373 440.355C72.851 438.97 73.7269 437.701 74.6975 437.643C88.9032 436.645 103.064 435.591 117.272 434.997C122.523 434.76 127.824 435.791 133.12 435.726C137.401 435.664 141.632 434.679 145.911 434.328C149.176 434.036 152.484 433.686 155.751 433.912C169.305 434.76 182.81 434.858 196.21 431.73C197.18 431.499 198.193 431.152 199.12 431.266C216.433 433.607 233.445 429.149 250.652 428.206C256.608 427.853 262.518 427.154 268.473 426.628C278.707 425.693 289.125 426.026 299.085 423.363C307.634 421.048 316.023 421.671 324.448 420.912C331.859 420.211 339.266 418.934 347.689 417.714C342.375 414.263 337.784 414.154 333.194 414.102C317.305 413.949 301.416 413.853 285.529 413.988C275.952 414.058 266.334 414.646 256.759 414.888C256.185 414.889 255.564 414.256 254.855 413.853C255.673 409.992 257.109 406.129 257.264 402.153C257.53 394.259 254.33 390.057 248.194 389.834C243.912 389.667 239.544 389.96 235.311 390.542C213.217 393.68 191.017 393.65 168.821 394.196C143.006 394.804 117.143 394.779 91.3266 395.041C86.7367 395.047 82.1487 395.398 77.9382 392.119C78.2307 389.065 80.1281 389.005 81.6722 388.888C90.2757 388.416 98.8811 388.29 107.441 387.819C113.397 387.466 119.307 386.767 125.262 386.241C128.217 385.949 131.172 385.6 134.129 385.481C147.984 384.945 161.842 384.928 175.65 383.931C189.503 382.935 203.305 380.728 217.156 379.386C235.285 377.635 253.417 376.402 271.502 374.594C277.413 374.01 283.229 372.274 289.181 371.057C281.391 366.861 273.667 366.87 265.876 370.625C264.731 371.145 263.317 370.743 262.037 370.803C258.463 370.98 254.844 370.927 251.272 371.392C245.053 372.207 238.977 374.864 232.61 372.683C231.372 372.223 229.916 372.34 228.682 372.688C215.727 376.449 202.477 374.564 189.423 376.366C182.191 377.355 175.007 379.265 167.673 377.834C161.914 381.989 156.158 378.597 150.33 378.086C142.824 377.461 135.138 376.261 127.879 380.533C126.779 381.169 125.191 381.228 124.084 380.653C116.206 376.515 108.452 379.059 100.604 380.337C95.7532 381.149 90.8099 381.098 85.9111 381.104C84.8519 381.105 83.6093 379.839 82.7208 378.746C80.0553 375.522 77.0055 374.662 73.5214 375.127C68.626 375.767 63.6856 376.234 58.7899 376.816C58.4331 376.125 57.7673 375.434 57.8084 374.858C58.2741 368.481 56.3234 364.124 51.9562 361.786C50.7171 361.154 49.5653 360.348 48.3258 359.658C47.4406 359.199 46.5561 358.854 44.3883 357.877C49.0133 356.2 52.493 354.929 56.193 353.599C56.174 350.084 56.2464 347.145 56.142 344.149C55.9922 340.923 56.6383 337.983 58.614 336.079C62.3467 332.618 62.4508 327.374 62.6889 322.419C65.7611 319.246 69.2523 320.106 72.4734 319.986C77.7682 319.749 82.9716 318.936 88.1718 317.547C93.9452 316.042 99.9912 315.977 105.903 315.624C112.168 315.27 118.48 315.435 124.746 315.139C143.586 314.252 162.472 313.595 181.265 312.131C191.456 311.369 201.643 310.031 211.878 309.327C229.04 308.154 246.197 306.173 263.357 304.539C264.944 304.364 266.532 304.131 268.288 302.343C267.005 301.884 265.72 300.906 264.485 300.965C252.264 301.787 239.998 302.263 227.825 303.776C203.788 306.744 179.655 308.33 155.518 309.109C134.338 309.769 113.154 309.91 91.9719 310.225C85.6615 310.348 79.4766 309.203 73.898 305.926C72.0149 300.454 77.396 299.871 77.1977 295.838C74.5414 294.305 72.2503 295.018 70.3244 297.978C69.5723 297.634 68.5125 297.52 67.9347 296.771C64.602 292.569 60.7537 290.961 56.1656 291.312C52.2396 291.663 48.2661 291.38 44.2847 289.656C49.2709 289.477 54.2573 289.355 59.2867 289.004C62.2427 288.827 65.2876 288.766 68.1519 287.955C72.6905 286.625 74.2584 282.762 73.3854 276.367C72.8794 272.565 72.3296 268.821 71.6874 264.327C69.4341 263.869 67.2682 263.238 65.0164 263.068C51.1091 262.105 37.204 261.546 23.3386 260.181C16.1408 259.441 8.85288 258.355 1.98327 253.005C4.41398 245.454 3.08776 236.87 5.20799 229.031C5.64092 227.475 5.40999 225.574 5.84261 223.96C6.36132 221.942 7.23404 220.098 7.97373 218.138C8.88715 215.659 8.82964 213.181 7.80119 210.705C7.04097 208.862 6.3687 206.961 5.33901 204.255C7.54319 203.791 9.04155 203.386 10.5408 203.153C11.8195 202.921 13.1429 202.804 14.9511 202.572C13.8794 200.268 12.7671 198.599 12.2269 196.64C10.5175 190.65 12.4351 186.153 17.2866 185.571C22.2265 184.989 27.2157 185.386 32.1584 185.322C33.7913 185.32 35.3801 185.318 38.4253 185.314C33.0118 179.905 27.46 181.583 22.9447 179.053C20.3998 173.64 17.855 168.227 15.0867 162.296C15.9016 157.915 16.8439 152.613 18.1306 145.697C19.66 142.872 25.5826 144.478 26.1584 136.699C24.334 133.935 22.0201 130.423 19.484 126.624C23.9346 125.351 28.4698 123.386 33.0575 122.977C37.9541 122.567 42.9033 123.714 47.8478 123.996C52.7923 124.278 57.78 124.387 62.7235 124.496C71.6397 124.715 80.6007 125.05 89.5163 125.154C91.8112 125.151 94.2385 125.148 95.4522 121.056C83.2191 119.573 70.8326 122.354 59.107 116.779C58.2663 116.377 57.6858 115.11 57.108 114.362C57.3992 111.077 59.2978 111.248 60.7533 111.073C64.6349 110.665 68.5177 110.487 72.2236 110.252C72.3495 109.042 72.5242 108.696 72.4347 108.466C72.3004 108.12 72.0328 107.602 71.7677 107.545C65.8923 106.515 60.017 105.485 54.0534 104.455C53.3985 97.5991 49.1533 96.0486 44.9494 93.9795C56.8297 95.5206 68.1241 94.8151 79.2364 93.0728C73.8804 90.1408 68.0915 88.7652 62.0878 88.4845C58.4679 88.3161 54.8002 87.4564 51.3077 86.3659C47.1079 85.0459 42.9497 83.2648 40.5316 76.8144C41.8951 75.9485 43.4739 74.1027 44.5791 74.447C51.0783 76.5709 57.5466 72.9905 64.1334 74.999C70.2334 76.7777 76.6334 76.885 82.9038 77.511C89.4834 78.1943 96.0617 78.6471 102.596 79.0424C104.803 79.1549 107.007 78.576 110.182 78.1687C105.686 71.0295 99.631 77.6056 95.455 72.5402C91.5461 67.8779 85.8336 72.4945 80.8748 69.5621C82.2377 68.5808 83.3805 67.7151 85.0948 66.4454C76.169 64.4398 67.8172 62.491 59.4225 60.7728C54.0762 59.6271 49.2525 57.213 45.1621 51.629C46.8774 50.5321 48.4164 49.4931 49.9558 48.5116C49.6015 40.0996 42.9383 40.2807 38.5833 34.7547C44.4552 35.1507 48.9143 35.4333 53.7264 35.7155C53.7102 32.7193 53.5644 30.2418 53.6841 27.8793C53.8469 25.3438 54.3187 22.808 54.6985 19.5808C56.8169 19.5782 59.0235 19.5755 61.2743 19.5727C71.5124 19.3871 81.7955 19.3744 92.0322 18.9584C94.1942 18.8405 96.6606 17.9155 98.4614 16.3C104.523 10.9915 110.865 8.5636 118.119 11.5508C118.96 11.8955 120.017 11.4332 120.986 11.2016C121.295 11.1436 121.513 10.74 121.821 10.4515C121.407 7.45578 119.775 7.51542 118.145 8.20887C113.962 9.94263 109.902 10.0629 105.384 6.89942C106.348 5.57298 106.826 4.24715 107.531 4.07341C117.226 1.41092 126.977 0.880275 136.87 2.25089C140.757 2.76466 144.767 1.66492 148.695 1.60244C158.271 1.41773 167.89 1.11773 177.468 1.27873C196.315 1.60112 215.118 1.98118 233.967 2.7069C252.507 3.433 271.004 4.44725 289.502 5.57674C296.081 5.97193 302.664 7.28903 309.244 8.2028C310.216 8.31683 311.232 8.54605 312.204 8.60247C327.702 9.96615 343.245 11.3874 358.742 12.6358C373.578 13.8851 388.373 15.7682 403.17 17.9971C413.02 19.483 422.954 20.2197 432.845 21.3023C438.189 21.8718 438.189 21.8718 442.681 28.3197C443.609 28.4914 444.582 28.8359 445.552 28.7771C451.509 28.5392 457.291 28.7049 463.173 30.8872C468.214 32.7824 473.643 32.8333 478.899 33.5758C487.777 34.8324 496.654 36.0315 505.531 37.2305C506.856 37.4017 508.267 37.1119 509.462 37.6866C515.126 40.5029 521.168 39.6888 526.956 40.9492C539.064 43.6423 551.288 43.512 563.39 45.2256C566.349 45.6252 569.352 45.9673 572.269 46.7127C579.693 48.6049 587.113 49.5753 594.663 50.1421C607.114 51.1639 619.613 52.7617 631.776 57.702C640.578 61.2635 649.467 64.5944 658.872 65.447C670.794 66.527 671.724 67.1021 683.211 77.6322C686.937 81.0272 690.655 83.0969 694.941 83.9558C699.535 84.8144 704.173 85.3849 708.725 86.5893C712.835 87.679 717.03 88.0195 720.54 92.3942C722.717 95.0996 726.646 95.2676 729.7 96.8772C735.542 99.9238 741.08 103.835 747.614 104.346C749.424 104.459 751.157 106.531 752.928 107.623C755.009 108.888 757.047 110.384 759.214 111.073C762.131 111.991 764.871 112.564 766.92 116.134C767.9 117.861 770.376 118.549 772.276 119.008C776.827 120.039 781.466 120.84 786.059 121.411C789.106 121.81 791.761 123.017 794.912 126.413C792.049 127.454 789.982 128.724 787.864 128.842C778.952 129.371 770.038 129.613 761.125 129.854C757.815 129.974 754.504 129.69 751.194 129.809C748.723 129.812 746.656 131.255 745.658 134.31C744.398 138.057 747.142 139.436 748.522 141.739C746.598 145.026 743.479 147.68 746.684 152.805C747.753 154.532 747.461 157.644 747.874 160.639C750.131 161.789 752.521 162.996 755.973 164.778C752.844 165.704 750.683 165.995 748.703 167.034C742.585 170.153 741.084 178.164 745.225 184.9C747.807 189.103 750.868 192.096 755.282 192.206C759.255 192.316 763.185 192.657 767.467 192.94C768.224 194.149 769.29 195.3 769.783 196.797C771.666 202.154 775.032 204.454 779.271 204.91C783.246 205.366 787.22 205.649 791.193 205.932C794.46 206.159 797.855 205.463 801.274 209.262C799.205 210.301 797.579 211.629 795.815 211.861C793.566 212.21 791.182 212.04 788.885 211.582C783.583 210.551 779.269 212.688 775.637 218.455C777.036 224.1 780.758 226.803 784.654 229.046C783.786 231.813 783.004 234.176 782.006 237.289C785.149 239.071 788.071 240.738 791.259 242.636C789.202 245.865 787.364 248.748 785.613 251.459C780.847 251.464 776.257 251.412 771.623 251.476C768.666 251.479 765.62 251.426 762.755 252.063C758.259 253.048 757.003 257.486 759.458 262.669C761.289 266.585 763.775 269.175 767.395 269.516C770.354 269.8 773.355 269.854 776.314 270.254C779.538 270.653 782.764 271.398 786.077 271.97C786.271 275.254 784.591 274.565 783.755 275.142C782.348 276.124 780.764 276.932 779.623 278.259C778.703 279.355 778.537 281.487 777.661 282.64C776.829 283.794 775.511 285.005 774.364 285.065C768.805 285.302 765.028 288.821 763.032 295.104C760.08 296.03 757.525 296.897 754.969 297.65C753.691 298.054 752.02 299.036 751.133 298.403C743.026 292.651 734.896 299 726.681 297.915C718.819 296.888 717.553 299.367 716.6 310.95C692.604 313.284 668.562 307.148 644.612 309.829C644.01 312.71 645.425 313.17 646.663 313.571C649.758 314.605 653.285 314.024 656.219 317.881C654.764 318.171 653.752 318.806 652.868 318.519C648.226 316.969 643.771 317.435 639.237 319.631C636.156 321.133 632.72 322.404 629.541 322.12C615.896 320.812 602.779 327.224 589.135 325.973C586.662 325.746 584.067 327.247 580.938 328.115C585.127 335.543 591.662 327.987 595.531 333.456C591.549 339.914 587.637 342.8 582.871 342.863C579.031 342.868 575.192 342.931 570.647 342.994C571.497 345.182 571.771 346.91 572.346 347.14C574.513 348.002 576.81 348.287 579.021 349.033C579.242 349.091 579.031 351.05 579.039 352.433C581.512 352.66 584.118 353.06 586.677 353C587.869 352.998 589.763 352.42 590.111 351.44C591.371 347.75 593.491 348.036 595.876 348.321C597.157 348.492 598.568 348.375 599.757 347.913C602.884 346.641 605.403 347.272 607.979 350.208C609.311 351.704 611.519 351.932 614.615 353.253C612.501 354.12 611.535 354.87 610.476 354.929C603.857 355.283 597.241 355.868 590.62 355.761C576.319 355.548 562.254 357.928 548.144 360.307C546.556 360.598 544.042 360.889 543.608 362.157C541.434 368.267 537.671 366.025 534.227 365.856C532.903 365.8 531.578 365.514 530.296 365.227C527.026 364.482 523.797 363.046 520.53 362.992C514.617 362.999 508.663 363.756 502.486 364.167C503.701 368.487 506.344 367.562 508.376 367.847C518.269 369.218 528.162 370.415 538.055 371.728C539.026 371.843 539.955 372.302 541.326 372.762C536.934 376.743 532.163 375.884 527.708 376.293C523.782 376.644 519.762 375.957 515.788 375.617C511.505 375.219 507.174 374.129 502.895 374.423C491.954 375.185 481.298 371.684 470.481 370.833C459.575 369.924 448.89 369.016 437.914 371.507C424.602 374.577 411.011 374.94 397.414 374.323C388.188 373.873 378.882 374.922 369.616 375.394C368.381 375.453 367.192 376.089 363.799 377.072C373.512 377.694 380.887 378.549 388.302 378.598C399.556 378.699 410.768 378.916 421.9 380.919C422.209 380.976 422.562 380.918 422.871 380.917C435.169 378.079 447.157 383.192 459.297 383.811C460.621 383.867 461.948 384.269 463.272 384.325C477.88 384.306 492.324 386.651 506.854 388.419C508.444 388.609 510.954 387.703 514.386 385.702C512.792 384.667 511.685 383.977 510.091 382.999C515.451 378.498 519.842 382.641 526.153 382.576C523.205 384.25 522.105 384.885 520.961 385.521C521.273 386.097 521.544 387.191 521.897 387.191C526.842 387.588 531.786 387.812 537.305 388.151C534.439 388.788 532.059 389.31 529.679 389.831L529.687 391.329C531.367 391.846 533.134 392.247 534.815 392.936C536.319 393.568 537.78 394.489 539.772 395.581C538.544 396.908 537.842 397.658 537.139 398.35C541.401 402.954 545.78 404.735 550.943 404.671C563.476 404.425 576.009 404.352 588.543 404.279C600.724 404.264 612.904 404.248 625.037 403.369C617.806 404.761 610.575 406.095 603.301 407.487C598.407 408.415 593.735 409.631 588.566 408.6C584.104 407.684 579.391 409.533 574.758 409.712C563.198 410.245 551.638 410.72 540.032 410.965C536.413 411.027 532.974 411.55 527.736 414.207C530.743 415.24 531.806 415.988 532.821 415.929C539.395 415.633 545.981 417.584 552.547 415.674C554.442 415.096 556.518 415.439 558.506 415.782C570.081 418.015 581.589 416.099 593.152 415.97C600.743 415.96 608.34 417.046 615.933 417.555C618.891 417.782 621.895 418.239 624.851 418.005C628.424 417.712 631.61 419.206 634.008 422.027C636.895 425.423 639.698 429.51 639.067 435.388C629.699 441.392 619.554 442.327 609.496 443.319C600.277 444.252 590.967 444.552 581.702 445.082C579.407 445.2 577.026 445.548 574.772 444.975C558.598 441.019 542.463 444.324 526.31 444.286C520.014 447.175 513.572 447.528 507.073 445.404C506.764 445.29 506.412 445.521 506.103 445.579C485.421 448.6 464.587 448.108 443.858 450.668C436.316 451.6 428.869 453.626 421.372 454.73C408.891 456.474 396.365 457.872 383.839 459.386C382.516 459.56 381.192 459.619 379.868 459.506C361.943 458.26 344.403 462.949 326.623 464.124C325.653 464.183 324.64 464.587 323.669 464.588C306.459 465.013 289.441 468.318 272.325 469.78C266.723 470.248 261.167 471.234 255.61 471.933C253.626 472.223 251.643 472.859 249.7 472.689C230.715 471.157 212.303 477.863 193.464 478.924C185.61 479.395 177.68 481.882 169.862 480.855C163.547 479.998 157.324 480.063 151.103 480.417C147.794 480.594 144.531 481.174 141.224 481.581C139.239 481.814 137.256 482.393 135.313 482.165C119.724 480.34 104.244 482.434 88.7113 482.856C79.0915 483.099 69.4704 483.111 59.8944 483.295C56.1434 483.358 52.7398 482.382 49.5476 479.678C46.5773 477.204 43.3449 475.249 39.0478 472.258L39.4024 472.546ZM306.329 367.406C321.439 370.383 336.208 367.542 351.023 364.873C351.376 364.815 351.633 363.489 352.069 362.452C345.387 359.06 339.192 364.196 332.659 363.974C323.919 363.696 315.105 366.127 306.329 367.406ZM360.275 361.98C364.739 363.012 369.692 365.023 374.442 361.963L360.275 361.98ZM116.841 77.2962C121.358 80.0563 125.454 78.5531 130.788 77.2789C125.442 76.3636 121.372 74.4096 116.841 77.2962ZM543.257 346.254C545.517 347.98 547.738 350.513 549.567 345.958C548.638 345.556 547.707 344.751 546.825 344.867C545.634 344.984 544.446 345.734 543.257 346.254ZM140.144 77.3249C139.614 77.1527 139.083 76.9229 138.509 76.866C138.421 76.8661 138.246 77.3273 138.115 77.5579C138.646 77.7301 139.177 77.9599 139.751 78.0169C139.839 78.0167 140.013 77.5556 140.144 77.3249ZM580.643 338.89L580.647 339.697L581.352 339.35L580.643 338.89ZM314.521 511.444C318.236 512.823 322.38 512.011 326.312 512.64C330.464 513.268 333.924 516.664 338.515 516.773C355.375 516.983 372.239 517.884 389.104 519.073C418.2 521.169 447.253 523.61 476.306 525.995C487.874 526.96 499.4 528.213 510.968 529.236C513.22 529.464 515.739 529.921 516.597 525.426C513.652 519.495 510.004 514.141 505.213 509.537C497.952 513.464 490.4 512.494 482.804 511.524C478.829 511.01 476.257 508.824 475.039 503.87C476.801 503.177 478.518 502.483 480.191 501.79C477.003 499.834 473.867 499.262 470.688 499.036C464.727 498.582 458.769 498.474 452.808 498.078C430.999 496.722 409.189 495.309 387.336 494.011C383.495 493.785 379.608 493.098 376.501 498C375.407 499.73 372.185 499.734 369.934 499.679C353.073 499.354 336.167 498.799 319.305 498.359C314.671 498.249 310.037 498.197 305.404 498.434C303.418 498.551 301.527 499.648 301.505 503.855C305.623 506.327 309.878 509.664 314.521 511.387L314.521 511.444ZM318.811 472.258C319.784 472.487 320.713 472.889 321.684 472.888C336.91 472.927 352.136 472.85 367.363 473.004C372.968 473.055 378.618 473.336 384.183 474.078C397.344 475.733 410.422 478.425 423.706 478.351C429.664 478.343 435.625 478.855 441.586 479.366C454.788 480.559 467.99 481.696 481.195 483.293C491.043 484.49 501.054 483.095 510.869 486.252C513.521 487.113 516.567 487.224 519.424 485.089C518.582 484.399 518.092 483.592 517.518 483.478C503.512 480.557 489.547 477.174 475.331 476.27C463.764 475.535 452.28 473.706 440.713 472.971C425.217 472.011 409.678 471.454 394.141 471.07C374.676 470.575 355.167 470.369 335.703 470.163C330.142 470.112 324.539 470.522 318.98 470.702C318.982 471.22 318.897 471.739 318.9 472.258L318.811 472.258ZM428.629 491.021C435.824 491.3 443.018 491.234 450.178 493.126C453.625 494.044 457.291 494.558 461.387 492.997C460.19 491.961 459.478 490.868 458.639 490.753C442.649 488.238 426.579 487.336 410.383 487.586C416.48 488.789 422.405 490.798 428.629 491.021ZM457.221 375.286L440.097 375.307C440.097 375.307 440.099 375.71 440.1 375.941C445.796 376.452 451.537 376.964 457.232 377.418C457.229 376.726 457.225 375.977 457.221 375.286ZM482.035 377.272C478.329 377.507 474.623 377.742 470.917 377.919C470.918 378.207 470.92 378.495 470.921 378.784L482.263 378.77C482.172 378.251 482.081 377.733 481.99 377.214L482.035 377.272ZM73.0473 66.6332C69.6481 66.4645 66.8668 66.2951 64.1296 66.1256C68.1741 68.6559 71.1467 68.8251 73.0473 66.6332ZM246.954 413.69L237.337 414.336C237.339 414.682 237.341 415.027 237.342 415.373L247.14 415.361C247.049 414.785 247.002 414.266 246.91 413.69L246.954 413.69ZM498.248 380.306C496.704 380.307 495.204 380.425 493.658 380.311C492.157 380.198 490.655 379.854 489.153 379.568C489.155 380.029 489.158 380.547 489.16 381.008L498.252 380.997L498.249 380.363L498.248 380.306ZM455.194 24.5013L447.736 24.5105C447.738 24.9138 447.74 25.2596 447.698 25.663C450.171 25.948 452.644 26.2906 455.117 26.5757C455.114 25.8842 455.154 25.1928 455.194 24.5013ZM475.018 491.828C472.766 491.658 470.912 491.545 469.058 491.432C471.454 493.849 473.441 493.981 475.018 491.828ZM537.826 35.1738L534.207 35.1783C534.209 35.4664 534.255 35.7544 534.301 36.1001L537.918 35.8075C537.918 35.8075 537.872 35.4042 537.826 35.1738ZM598.039 340.252C597.336 340.886 596.678 341.521 595.975 342.156C596.331 342.731 596.778 343.826 597.087 343.825C597.793 343.767 598.451 343.075 599.199 342.613C598.664 341.519 598.351 340.885 597.995 340.309L598.039 340.252ZM597.712 42.7055C597.403 42.5906 597.05 42.7063 596.741 42.7067C597.052 42.9944 597.319 43.455 597.629 43.5699C597.894 43.6848 598.246 43.3962 598.554 43.2806C598.288 43.1081 598.022 42.8203 597.712 42.7055ZM474.806 27.5308C474.231 27.3587 473.7 27.0712 473.126 27.0143C472.861 27.0147 472.598 27.2455 472.334 27.361C472.777 27.6486 473.176 27.9938 473.619 28.2814C474.015 28.0504 474.41 27.7618 474.806 27.5308ZM620.433 351.805C620.433 351.805 620.218 352.843 620.088 353.362C620.618 353.361 621.192 353.36 621.72 353.187C621.897 353.187 621.938 352.553 622.024 352.207C621.493 352.035 620.918 351.747 620.389 351.806L620.433 351.805ZM36.3704 90.8211C36.6362 90.9936 37.0797 91.3964 37.2114 91.281C37.475 91.0502 37.5605 90.5315 37.7348 90.128C37.4259 90.1284 37.0728 90.1288 36.7636 90.0716C36.6327 90.3598 36.5016 90.5905 36.3707 90.8787L36.3704 90.8211ZM516.36 32.0313C515.301 31.975 514.241 31.9187 513.226 31.8623L513.232 33.0724L516.366 33.0685C516.364 32.7228 516.362 32.377 516.36 32.0313ZM570.737 40.9526C570.959 41.1252 571.311 41.0672 571.577 41.1245C571.486 40.6636 571.439 40.2027 571.348 39.7419C571.084 39.8574 570.82 39.973 570.556 40.0886C570.602 40.3766 570.56 40.8376 570.737 40.9526Z" fill="#1F2F27"/>
</mask>
<g mask="url(#mask0_1692_4329)">
<rect x="17.4258" y="-3.64844" width="771.248" height="510.351" fill="#E2EAD3"/>
</g>
</svg>
