<svg width="802" height="530" viewBox="0 0 802 530" fill="none" xmlns="http://www.w3.org/2000/svg">
<mask id="mask0_1667_4284" style="mask-type:alpha" maskUnits="userSpaceOnUse" x="1" y="1" width="801" height="529">
<path d="M39.4024 472.546C45.9621 469.542 50.7571 466.655 55.8247 465.208C60.1874 463.993 62.9976 461.339 64.7352 456.209C65.1262 455.056 65.6502 454.018 66.1727 452.692C74.8502 449.57 83.9976 451.748 93.5621 449.432C91.0735 446.266 88.3867 447.249 86.1763 446.56C82.9492 445.584 79.6803 445.012 76.4526 443.921C74.9051 443.405 73.5295 442.024 71.1373 440.356C72.851 438.971 73.7269 437.702 74.6975 437.643C88.9032 436.646 103.064 435.591 117.272 434.997C122.523 434.76 127.824 435.791 133.12 435.727C137.401 435.664 141.632 434.679 145.911 434.328C149.176 434.036 152.484 433.686 155.751 433.913C169.305 434.76 182.81 434.859 196.21 431.731C197.18 431.499 198.193 431.152 199.12 431.266C216.433 433.607 233.445 429.149 250.652 428.206C256.608 427.853 262.518 427.154 268.473 426.628C278.707 425.694 289.125 426.027 299.085 423.364C307.634 421.048 316.023 421.672 324.448 420.912C331.859 420.212 339.266 418.935 347.689 417.715C342.375 414.264 337.784 414.154 333.194 414.102C317.305 413.949 301.416 413.854 285.529 413.989C275.952 414.058 266.334 414.646 256.759 414.888C256.185 414.889 255.564 414.256 254.855 413.854C255.673 409.992 257.109 406.13 257.264 402.154C257.53 394.26 254.33 390.058 248.194 389.835C243.912 389.667 239.544 389.961 235.311 390.542C213.217 393.681 191.017 393.651 168.821 394.197C143.006 394.805 117.143 394.779 91.3266 395.042C86.7367 395.047 82.1487 395.399 77.9382 392.12C78.2307 389.065 80.1281 389.006 81.6722 388.888C90.2757 388.417 98.8811 388.291 107.441 387.819C113.397 387.466 119.307 386.767 125.262 386.242C128.217 385.95 131.172 385.6 134.129 385.481C147.984 384.946 161.842 384.929 175.65 383.932C189.503 382.935 203.305 380.729 217.156 379.386C235.285 377.635 253.417 376.403 271.502 374.594C277.413 374.011 283.229 372.275 289.181 371.058C281.391 366.861 273.667 366.871 265.876 370.625C264.731 371.145 263.317 370.744 262.037 370.803C258.463 370.98 254.844 370.927 251.272 371.393C245.053 372.207 238.977 374.865 232.61 372.683C231.372 372.224 229.916 372.341 228.682 372.688C215.727 376.449 202.477 374.564 189.423 376.367C182.191 377.355 175.007 379.266 167.673 377.834C161.914 381.99 156.158 378.598 150.33 378.086C142.824 377.462 135.138 376.261 127.879 380.534C126.779 381.169 125.191 381.229 124.084 380.654C116.206 376.515 108.452 379.06 100.604 380.337C95.7532 381.15 90.8099 381.098 85.9111 381.105C84.8519 381.106 83.6093 379.84 82.7208 378.746C80.0553 375.523 77.0055 374.662 73.5214 375.127C68.626 375.767 63.6856 376.234 58.7899 376.817C58.4331 376.126 57.7673 375.435 57.8084 374.859C58.2741 368.482 56.3234 364.124 51.9562 361.786C50.7171 361.154 49.5653 360.349 48.3258 359.659C47.4406 359.199 46.5561 358.854 44.3883 357.878C49.0133 356.201 52.493 354.929 56.193 353.599C56.174 350.084 56.2464 347.146 56.142 344.15C55.9922 340.923 56.6383 337.984 58.614 336.08C62.3467 332.618 62.4508 327.375 62.6889 322.419C65.7611 319.246 69.2523 320.106 72.4734 319.987C77.7682 319.75 82.9716 318.937 88.1718 317.548C93.9452 316.042 99.9912 315.977 105.903 315.624C112.168 315.271 118.48 315.436 124.746 315.14C143.586 314.252 162.472 313.595 181.265 312.131C191.456 311.37 201.643 310.032 211.878 309.328C229.04 308.154 246.197 306.174 263.357 304.539C264.944 304.364 266.532 304.132 268.288 302.343C267.005 301.884 265.72 300.906 264.485 300.965C252.264 301.787 239.998 302.263 227.825 303.776C203.788 306.745 179.655 308.33 155.518 309.109C134.338 309.769 113.154 309.911 91.9719 310.225C85.6615 310.348 79.4766 309.203 73.898 305.926C72.0149 300.455 77.396 299.872 77.1977 295.839C74.5414 294.305 72.2503 295.019 70.3244 297.979C69.5723 297.634 68.5125 297.52 67.9347 296.772C64.602 292.57 60.7537 290.961 56.1656 291.313C52.2396 291.663 48.2661 291.38 44.2847 289.656C49.2709 289.477 54.2573 289.356 59.2867 289.004C62.2427 288.827 65.2876 288.766 68.1519 287.956C72.6905 286.625 74.2584 282.763 73.3854 276.368C72.8794 272.566 72.3296 268.821 71.6874 264.328C69.4341 263.869 67.2682 263.238 65.0164 263.068C51.1091 262.106 37.204 261.547 23.3386 260.181C16.1408 259.441 8.85288 258.355 1.98327 253.005C4.41398 245.454 3.08776 236.87 5.20799 229.032C5.64092 227.475 5.40999 225.574 5.84261 223.96C6.36132 221.943 7.23404 220.098 7.97373 218.138C8.88715 215.659 8.82964 213.182 7.80119 210.705C7.04097 208.862 6.3687 206.962 5.33901 204.255C7.54319 203.791 9.04155 203.386 10.5408 203.154C11.8195 202.922 13.1429 202.805 14.9511 202.572C13.8794 200.269 12.7671 198.599 12.2269 196.641C10.5175 190.65 12.4351 186.154 17.2866 185.572C22.2265 184.989 27.2157 185.386 32.1584 185.323C33.7913 185.321 35.3801 185.319 38.4253 185.315C33.0118 179.905 27.46 181.583 22.9447 179.054C20.3998 173.64 17.855 168.227 15.0867 162.296C15.9016 157.916 16.8439 152.614 18.1306 145.698C19.66 142.873 25.5826 144.479 26.1584 136.699C24.334 133.936 22.0201 130.424 19.484 126.624C23.9346 125.351 28.4698 123.386 33.0575 122.977C37.9541 122.568 42.9033 123.714 47.8478 123.996C52.7923 124.278 57.78 124.387 62.7235 124.496C71.6397 124.716 80.6007 125.05 89.5163 125.155C91.8112 125.152 94.2385 125.149 95.4522 121.056C83.2191 119.573 70.8326 122.354 59.107 116.78C58.2663 116.378 57.6858 115.111 57.108 114.362C57.3992 111.078 59.2978 111.248 60.7533 111.073C64.6349 110.665 68.5177 110.488 72.2236 110.253C72.3495 109.042 72.5242 108.696 72.4347 108.466C72.3004 108.121 72.0328 107.602 71.7677 107.545C65.8923 106.515 60.017 105.485 54.0534 104.455C53.3985 97.5996 49.1533 96.0491 44.9494 93.98C56.8297 95.5211 68.1241 94.8156 79.2364 93.0733C73.8804 90.1413 68.0915 88.7656 62.0878 88.485C58.4679 88.3166 54.8002 87.4569 51.3077 86.3664C47.1079 85.0464 42.9497 83.2653 40.5316 76.8149C41.8951 75.9489 43.4739 74.1032 44.5791 74.4475C51.0783 76.5714 57.5466 72.991 64.1334 74.9995C70.2334 76.7781 76.6334 76.8855 82.9038 77.5115C89.4834 78.1948 96.0617 78.6476 102.596 79.0429C104.803 79.1554 107.007 78.5765 110.182 78.1692C105.686 71.0299 99.631 77.6061 95.455 72.5407C91.5461 67.8784 85.8336 72.495 80.8748 69.5626C82.2377 68.5813 83.3805 67.7156 85.0948 66.4459C76.169 64.4403 67.8172 62.4915 59.4225 60.7733C54.0762 59.6276 49.2525 57.2135 45.1621 51.6295C46.8774 50.5326 48.4164 49.4936 49.9558 48.5121C49.6015 40.1001 42.9383 40.2812 38.5833 34.7552C44.4552 35.1512 48.9143 35.4338 53.7264 35.7159C53.7102 32.7198 53.5644 30.2423 53.6841 27.8798C53.8469 25.3443 54.3187 22.8085 54.6985 19.5813C56.8169 19.5787 59.0235 19.576 61.2743 19.5732C71.5124 19.3876 81.7955 19.3749 92.0322 18.9589C94.1942 18.841 96.6606 17.916 98.4614 16.3004C104.523 10.992 110.865 8.56409 118.119 11.5513C118.96 11.896 120.017 11.4337 120.986 11.2021C121.295 11.1441 121.513 10.7404 121.821 10.452C121.407 7.45627 119.775 7.51591 118.145 8.20936C113.962 9.94312 109.902 10.0634 105.384 6.89991C106.348 5.57347 106.826 4.24763 107.531 4.0739C117.226 1.41141 126.977 0.880763 136.87 2.25138C140.757 2.76515 144.767 1.66541 148.695 1.60293C158.271 1.41822 167.89 1.11822 177.468 1.27922C196.315 1.6016 215.118 1.98166 233.967 2.70738C252.507 3.43349 271.004 4.44774 289.502 5.57723C296.081 5.97242 302.664 7.28952 309.244 8.20328C310.216 8.31732 311.232 8.54654 312.204 8.60296C327.702 9.96664 343.245 11.3879 358.742 12.6363C373.578 13.8856 388.373 15.7687 403.17 17.9976C413.02 19.4835 422.954 20.2202 432.845 21.3027C438.189 21.8723 438.189 21.8723 442.681 28.3201C443.609 28.4919 444.582 28.8364 445.552 28.7775C451.509 28.5397 457.291 28.7054 463.173 30.8876C468.214 32.7828 473.643 32.8337 478.899 33.5763C487.777 34.8329 496.654 36.032 505.531 37.231C506.856 37.4022 508.267 37.1123 509.462 37.6871C515.126 40.5034 521.168 39.6892 526.956 40.9497C539.064 43.6428 551.288 43.5125 563.39 45.2261C566.349 45.6257 569.352 45.9677 572.269 46.7132C579.693 48.6054 587.113 49.5758 594.663 50.1426C607.114 51.1644 619.613 52.7622 631.776 57.7024C640.578 61.2639 649.467 64.5949 658.872 65.4475C670.794 66.5275 671.724 67.1026 683.211 77.6327C686.937 81.0276 690.655 83.0973 694.941 83.9563C699.535 84.8149 704.173 85.3854 708.725 86.5898C712.835 87.6794 717.03 88.02 720.54 92.3947C722.717 95.1001 726.646 95.2681 729.7 96.8777C735.542 99.9243 741.08 103.836 747.614 104.346C749.424 104.459 751.157 106.531 752.928 107.624C755.009 108.889 757.047 110.384 759.214 111.073C762.131 111.991 764.871 112.564 766.92 116.134C767.9 117.861 770.376 118.55 772.276 119.008C776.827 120.04 781.466 120.841 786.059 121.411C789.106 121.811 791.761 123.018 794.912 126.413C792.049 127.454 789.982 128.724 787.864 128.842C778.952 129.372 770.038 129.613 761.125 129.855C757.815 129.974 754.504 129.69 751.194 129.809C748.723 129.812 746.656 131.255 745.658 134.311C744.398 138.057 747.142 139.437 748.522 141.74C746.598 145.027 743.479 147.681 746.684 152.805C747.753 154.532 747.461 157.644 747.874 160.64C750.131 161.789 752.521 162.997 755.973 164.778C752.844 165.704 750.683 165.995 748.703 167.035C742.585 170.154 741.084 178.165 745.225 184.901C747.807 189.104 750.868 192.096 755.282 192.206C759.255 192.316 763.185 192.657 767.467 192.94C768.224 194.149 769.29 195.3 769.783 196.798C771.666 202.154 775.032 204.455 779.271 204.91C783.246 205.366 787.22 205.65 791.193 205.933C794.46 206.159 797.855 205.464 801.274 209.262C799.205 210.302 797.579 211.629 795.815 211.862C793.566 212.21 791.182 212.04 788.885 211.582C783.583 210.552 779.269 212.689 775.637 218.455C777.036 224.1 780.758 226.804 784.654 229.046C783.786 231.813 783.004 234.176 782.006 237.289C785.149 239.071 788.071 240.739 791.259 242.636C789.202 245.865 787.364 248.749 785.613 251.459C780.847 251.465 776.257 251.413 771.623 251.476C768.666 251.48 765.62 251.426 762.755 252.063C758.259 253.049 757.003 257.487 759.458 262.67C761.289 266.585 763.775 269.175 767.395 269.516C770.354 269.801 773.355 269.855 776.314 270.254C779.538 270.654 782.764 271.399 786.077 271.971C786.271 275.255 784.591 274.566 783.755 275.143C782.348 276.124 780.764 276.933 779.623 278.259C778.703 279.355 778.537 281.487 777.661 282.641C776.829 283.794 775.511 285.006 774.364 285.065C768.805 285.302 765.028 288.822 763.032 295.105C760.08 296.03 757.525 296.898 754.969 297.65C753.691 298.055 752.02 299.037 751.133 298.404C743.026 292.652 734.896 299 726.681 297.916C718.819 296.888 717.553 299.367 716.6 310.95C692.604 313.285 668.562 307.149 644.612 309.829C644.01 312.711 645.425 313.17 646.663 313.572C649.758 314.605 653.285 314.025 656.219 317.881C654.764 318.171 653.752 318.806 652.868 318.519C648.226 316.969 643.771 317.436 639.237 319.631C636.156 321.133 632.72 322.405 629.541 322.121C615.896 320.812 602.779 327.224 589.135 325.974C586.662 325.746 584.067 327.248 580.938 328.116C585.127 335.543 591.662 327.987 595.531 333.456C591.549 339.915 587.637 342.8 582.871 342.864C579.031 342.869 575.192 342.931 570.647 342.994C571.497 345.183 571.771 346.911 572.346 347.141C574.513 348.002 576.81 348.288 579.021 349.034C579.242 349.091 579.031 351.051 579.039 352.433C581.512 352.661 584.118 353.061 586.677 353C587.869 352.999 589.763 352.42 590.111 351.44C591.371 347.751 593.491 348.036 595.876 348.322C597.157 348.493 598.568 348.376 599.757 347.913C602.884 346.642 605.403 347.273 607.979 350.208C609.311 351.705 611.519 351.932 614.615 353.254C612.501 354.121 611.535 354.871 610.476 354.93C603.857 355.284 597.241 355.868 590.62 355.761C576.319 355.548 562.254 357.928 548.144 360.308C546.556 360.598 544.042 360.889 543.608 362.157C541.434 368.268 537.671 366.025 534.227 365.857C532.903 365.801 531.578 365.514 530.296 365.228C527.026 364.483 523.797 363.046 520.53 362.993C514.617 363 508.663 363.756 502.486 364.167C503.701 368.487 506.344 367.562 508.376 367.848C518.269 369.218 528.162 370.416 538.055 371.729C539.026 371.843 539.955 372.303 541.326 372.762C536.934 376.743 532.163 375.885 527.708 376.294C523.782 376.644 519.762 375.958 515.788 375.617C511.505 375.219 507.174 374.13 502.895 374.423C491.954 375.186 481.298 371.684 470.481 370.833C459.575 369.925 448.89 369.016 437.914 371.507C424.602 374.578 411.011 374.94 397.414 374.323C388.188 373.874 378.882 374.922 369.616 375.395C368.381 375.454 367.192 376.089 363.799 377.073C373.512 377.695 380.887 378.55 388.302 378.598C399.556 378.7 410.768 378.916 421.9 380.919C422.209 380.976 422.562 380.918 422.871 380.918C435.169 378.079 447.157 383.193 459.297 383.811C460.621 383.867 461.948 384.269 463.272 384.325C477.88 384.307 492.324 386.651 506.854 388.42C508.444 388.61 510.954 387.704 514.386 385.702C512.792 384.667 511.685 383.977 510.091 382.999C515.451 378.498 519.842 382.642 526.153 382.576C523.205 384.251 522.105 384.886 520.961 385.521C521.273 386.097 521.544 387.191 521.897 387.191C526.842 387.588 531.786 387.813 537.305 388.151C534.439 388.789 532.059 389.31 529.679 389.832L529.687 391.33C531.367 391.846 533.134 392.248 534.815 392.937C536.319 393.569 537.78 394.489 539.772 395.581C538.544 396.908 537.842 397.658 537.139 398.35C541.401 402.955 545.78 404.735 550.943 404.671C563.476 404.425 576.009 404.352 588.543 404.279C600.724 404.264 612.904 404.249 625.037 403.37C617.806 404.761 610.575 406.096 603.301 407.488C598.407 408.416 593.735 409.631 588.566 408.601C584.104 407.684 579.391 409.534 574.758 409.712C563.198 410.245 551.638 410.721 540.032 410.965C536.413 411.028 532.974 411.55 527.736 414.207C530.743 415.241 531.806 415.988 532.821 415.93C539.395 415.633 545.981 417.584 552.547 415.675C554.442 415.096 556.518 415.439 558.506 415.783C570.081 418.015 581.589 416.1 593.152 415.97C600.743 415.961 608.34 417.046 615.933 417.555C618.891 417.782 621.895 418.239 624.851 418.005C628.424 417.713 631.61 419.207 634.008 422.027C636.895 425.423 639.698 429.511 639.067 435.389C629.699 441.393 619.554 442.327 609.496 443.319C600.277 444.252 590.967 444.552 581.702 445.082C579.407 445.2 577.026 445.549 574.772 444.975C558.598 441.02 542.463 444.324 526.31 444.286C520.014 447.175 513.572 447.529 507.073 445.405C506.764 445.29 506.412 445.521 506.103 445.579C485.421 448.601 464.587 448.108 443.858 450.669C436.316 451.6 428.869 453.626 421.372 454.73C408.891 456.474 396.365 457.873 383.839 459.386C382.516 459.561 381.192 459.62 379.868 459.506C361.943 458.261 344.403 462.95 326.623 464.124C325.653 464.183 324.64 464.588 323.669 464.589C306.459 465.013 289.441 468.319 272.325 469.78C266.723 470.248 261.167 471.235 255.61 471.933C253.626 472.224 251.643 472.86 249.7 472.689C230.715 471.157 212.303 477.864 193.464 478.924C185.61 479.395 177.68 481.882 169.862 480.855C163.547 479.999 157.324 480.064 151.103 480.417C147.794 480.594 144.531 481.174 141.224 481.582C139.239 481.815 137.256 482.393 135.313 482.165C119.724 480.341 104.244 482.434 88.7113 482.857C79.0915 483.099 69.4704 483.111 59.8944 483.296C56.1434 483.358 52.7398 482.383 49.5476 479.679C46.5773 477.205 43.3449 475.25 39.0478 472.259L39.4024 472.546ZM306.329 367.406C321.439 370.384 336.208 367.542 351.023 364.873C351.376 364.815 351.633 363.49 352.069 362.452C345.387 359.061 339.192 364.197 332.659 363.974C323.919 363.697 315.105 366.128 306.329 367.406ZM360.275 361.981C364.739 363.013 369.692 365.023 374.442 361.963L360.275 361.981ZM116.841 77.2966C121.358 80.0568 125.454 78.5536 130.788 77.2794C125.442 76.3641 121.372 74.4101 116.841 77.2966ZM543.257 346.255C545.517 347.981 547.738 350.513 549.567 345.959C548.638 345.557 547.707 344.751 546.825 344.868C545.634 344.984 544.446 345.735 543.257 346.255ZM140.144 77.3254C139.614 77.1532 139.083 76.9234 138.509 76.8665C138.421 76.8666 138.246 77.3278 138.115 77.5584C138.646 77.7306 139.177 77.9604 139.751 78.0173C139.839 78.0172 140.013 77.5561 140.144 77.3254ZM580.643 338.891L580.647 339.698L581.352 339.351L580.643 338.891ZM314.521 511.445C318.236 512.823 322.38 512.011 326.312 512.64C330.464 513.269 333.924 516.664 338.515 516.774C355.375 516.983 372.239 517.884 389.104 519.073C418.2 521.169 447.253 523.611 476.306 525.995C487.874 526.96 499.4 528.214 510.968 529.236C513.22 529.464 515.739 529.922 516.597 525.427C513.652 519.495 510.004 514.141 505.213 509.538C497.952 513.465 490.4 512.495 482.804 511.525C478.829 511.011 476.257 508.825 475.039 503.871C476.801 503.177 478.518 502.484 480.191 501.79C477.003 499.835 473.867 499.263 470.688 499.036C464.727 498.583 458.769 498.475 452.808 498.079C430.999 496.723 409.189 495.309 387.336 494.011C383.495 493.785 379.608 493.099 376.501 498C375.407 499.73 372.185 499.734 369.934 499.679C353.073 499.355 336.167 498.799 319.305 498.359C314.671 498.25 310.037 498.198 305.404 498.434C303.418 498.552 301.527 499.649 301.505 503.855C305.623 506.328 309.878 509.664 314.521 511.387L314.521 511.445ZM318.811 472.258C319.784 472.487 320.713 472.89 321.684 472.889C336.91 472.927 352.136 472.851 367.363 473.005C372.968 473.055 378.618 473.337 384.183 474.079C397.344 475.733 410.422 478.425 423.706 478.351C429.664 478.344 435.625 478.855 441.586 479.366C454.788 480.56 467.99 481.696 481.195 483.293C491.043 484.491 501.054 483.096 510.869 486.252C513.521 487.113 516.567 487.225 519.424 485.089C518.582 484.399 518.092 483.593 517.518 483.478C503.512 480.557 489.547 477.175 475.331 476.271C463.764 475.536 452.28 473.706 440.713 472.972C425.217 472.011 409.678 471.454 394.141 471.07C374.676 470.576 355.167 470.369 335.703 470.163C330.142 470.112 324.539 470.523 318.98 470.702C318.982 471.221 318.897 471.74 318.9 472.258L318.811 472.258ZM428.629 491.021C435.824 491.301 443.018 491.234 450.178 493.127C453.625 494.044 457.291 494.558 461.387 492.998C460.19 491.962 459.478 490.868 458.639 490.754C442.649 488.238 426.579 487.336 410.383 487.587C416.48 488.789 422.405 490.799 428.629 491.021ZM457.221 375.286L440.097 375.307C440.097 375.307 440.099 375.711 440.1 375.941C445.796 376.453 451.537 376.964 457.232 377.418C457.229 376.727 457.225 375.978 457.221 375.286ZM482.035 377.272C478.329 377.507 474.623 377.742 470.917 377.92C470.918 378.208 470.92 378.496 470.921 378.784L482.263 378.77C482.172 378.252 482.081 377.733 481.99 377.215L482.035 377.272ZM73.0473 66.6337C69.6481 66.465 66.8668 66.2956 64.1296 66.1261C68.1741 68.6564 71.1467 68.8255 73.0473 66.6337ZM246.954 413.691L237.337 414.336C237.339 414.682 237.341 415.028 237.342 415.373L247.14 415.361C247.049 414.785 247.002 414.267 246.91 413.691L246.954 413.691ZM498.248 380.306C496.704 380.308 495.204 380.425 493.658 380.312C492.157 380.198 490.655 379.854 489.153 379.568C489.155 380.029 489.158 380.548 489.16 381.009L498.252 380.997L498.249 380.364L498.248 380.306ZM455.194 24.5018L447.736 24.511C447.738 24.9143 447.74 25.2601 447.698 25.6634C450.171 25.9485 452.644 26.2911 455.117 26.5762C455.114 25.8847 455.154 25.1933 455.194 24.5018ZM475.018 491.828C472.766 491.658 470.912 491.545 469.058 491.432C471.454 493.849 473.441 493.981 475.018 491.828ZM537.826 35.1743L534.207 35.1788C534.209 35.4669 534.255 35.7549 534.301 36.1006L537.918 35.808C537.918 35.808 537.872 35.4047 537.826 35.1743ZM598.039 340.252C597.336 340.887 596.678 341.522 595.975 342.156C596.331 342.732 596.778 343.826 597.087 343.826C597.793 343.767 598.451 343.075 599.199 342.613C598.664 341.519 598.351 340.886 597.995 340.31L598.039 340.252ZM597.712 42.7059C597.403 42.5911 597.05 42.7068 596.741 42.7071C597.052 42.9949 597.319 43.4555 597.629 43.5703C597.894 43.6853 598.246 43.3967 598.554 43.2811C598.288 43.1086 598.022 42.8208 597.712 42.7059ZM474.806 27.5313C474.231 27.3592 473.7 27.0717 473.126 27.0148C472.861 27.0152 472.598 27.246 472.334 27.3615C472.777 27.6491 473.176 27.9943 473.619 28.2818C474.015 28.0509 474.41 27.7623 474.806 27.5313ZM620.433 351.806C620.433 351.806 620.218 352.843 620.088 353.362C620.618 353.361 621.192 353.361 621.72 353.187C621.897 353.187 621.938 352.553 622.024 352.207C621.493 352.035 620.918 351.748 620.389 351.806L620.433 351.806ZM36.3704 90.8216C36.6362 90.9941 37.0797 91.3969 37.2114 91.2815C37.475 91.0507 37.5605 90.532 37.7348 90.1285C37.4259 90.1288 37.0728 90.1293 36.7636 90.072C36.6327 90.3603 36.5016 90.5909 36.3707 90.8792L36.3704 90.8216ZM516.36 32.0318C515.301 31.9755 514.241 31.9192 513.226 31.8628L513.232 33.0728L516.366 33.069C516.364 32.7232 516.362 32.3775 516.36 32.0318ZM570.737 40.9531C570.959 41.1257 571.311 41.0677 571.577 41.125C571.486 40.6641 571.439 40.2032 571.348 39.7424C571.084 39.8579 570.82 39.9735 570.556 40.0891C570.602 40.3771 570.56 40.8381 570.737 40.9531Z" fill="#1F2F27"/>
</mask>
<g mask="url(#mask0_1667_4284)">
<rect x="17.4258" y="-3.64893" width="771.248" height="510.351" fill="#1F2F27"/>
</g>
</svg>
