<svg width="1513" height="919" viewBox="0 0 1513 919" fill="none" xmlns="http://www.w3.org/2000/svg">
<path d="M70.5541 819.235C82.9627 814.016 92.037 809.006 101.618 806.488C109.866 804.372 115.19 799.771 118.502 790.886C119.247 788.89 120.243 787.092 121.237 784.795C137.647 779.367 154.914 783.112 172.995 779.076C168.312 773.603 163.231 775.312 159.059 774.126C152.969 772.446 146.797 771.465 140.706 769.586C137.786 768.695 135.195 766.309 130.686 763.428C133.931 761.026 135.593 758.828 137.427 758.723C164.267 756.958 191.024 755.094 217.866 754.027C227.786 753.602 237.795 755.372 247.799 755.246C255.885 755.126 263.884 753.409 271.97 752.79C278.138 752.276 284.389 751.661 290.559 752.044C316.157 753.474 341.669 753.607 366.999 748.156C368.832 747.753 370.748 747.149 372.499 747.344C405.19 751.349 437.351 743.586 469.86 741.906C481.114 741.279 492.282 740.053 503.534 739.126C522.872 737.481 542.549 738.028 561.378 733.392C577.541 729.361 593.384 730.417 609.304 729.079C623.307 727.846 637.307 725.616 653.225 723.48C643.206 717.522 634.535 717.345 625.864 717.268C595.851 717.046 565.837 716.924 535.825 717.201C517.734 717.348 499.562 718.392 481.472 718.838C480.389 718.841 479.219 717.747 477.883 717.052C479.45 710.366 482.184 703.677 482.499 696.794C483.048 683.129 477.026 675.864 465.437 675.495C457.349 675.217 449.097 675.737 441.096 676.755C399.342 682.249 357.408 682.257 315.475 683.263C266.707 684.387 217.853 684.413 169.083 684.938C160.413 684.961 151.744 685.581 143.809 679.917C144.379 674.63 147.964 674.521 150.881 674.314C167.136 673.474 183.392 673.232 199.564 672.393C210.817 671.765 221.985 670.54 233.238 669.613C238.822 669.1 244.406 668.487 249.992 668.273C276.167 667.308 302.345 667.24 328.435 665.477C354.608 663.714 380.693 659.857 406.865 657.495C441.122 654.415 475.381 652.232 509.554 649.052C520.723 648.025 531.72 645.005 542.969 642.881C528.278 635.639 513.688 635.677 498.949 642.197C496.783 643.101 494.114 642.409 491.696 642.515C484.944 642.832 478.108 642.75 471.357 643.565C459.606 644.992 448.112 649.609 436.098 645.851C433.761 645.059 431.011 645.265 428.678 645.87C404.184 652.416 379.165 649.189 354.496 652.345C340.828 654.075 327.247 657.402 313.401 654.944C302.499 662.153 291.645 656.297 280.638 655.428C266.463 654.368 251.951 652.311 238.214 659.726C236.133 660.829 233.132 660.936 231.045 659.944C216.187 652.802 201.525 657.228 186.692 659.461C177.525 660.881 168.187 660.805 158.933 660.829C156.932 660.834 154.592 658.646 152.92 656.755C147.903 651.183 142.147 649.702 135.563 650.517C126.312 651.638 116.977 652.46 107.725 653.481C107.055 652.286 105.802 651.093 105.882 650.095C106.799 639.056 103.139 631.519 94.9025 627.484C92.5653 626.393 90.3941 625.002 88.0567 623.812C86.3873 623.018 84.7183 622.424 80.6289 620.739C89.3751 617.824 95.9556 615.613 102.953 613.301C102.937 607.217 103.091 602.131 102.91 596.945C102.646 591.361 103.883 586.271 107.626 582.97C114.697 576.968 114.924 567.892 115.402 559.313C121.224 553.813 127.814 555.292 133.899 555.077C143.902 554.652 153.736 553.23 163.567 550.811C174.482 548.19 185.903 548.061 197.073 547.433C208.91 546.804 220.833 547.073 232.67 546.543C268.264 544.955 303.943 543.766 339.452 541.181C358.707 539.835 377.959 537.491 397.298 536.244C429.723 534.166 462.145 530.691 494.568 527.815C497.568 527.508 500.569 527.101 503.895 524.001C501.476 523.209 499.054 521.52 496.719 521.626C473.63 523.081 450.455 523.939 427.452 526.592C382.029 531.796 336.434 534.606 290.834 536.021C250.82 537.221 210.803 537.524 170.788 538.126C158.866 538.357 147.19 536.392 136.671 530.734C133.145 521.269 143.313 520.245 142.961 513.265C137.952 510.618 133.62 511.86 129.965 516.989C128.547 516.394 126.545 516.2 125.458 514.906C119.187 507.642 111.926 504.868 103.258 505.489C95.8392 506.106 88.3348 505.627 80.8238 502.654C90.2437 502.331 99.6639 502.107 109.166 501.484C114.751 501.17 120.504 501.056 125.919 499.645C134.5 497.329 137.484 490.64 135.871 479.573C134.937 472.993 133.92 466.513 132.733 458.737C128.479 457.95 124.391 456.864 120.138 456.576C93.8728 454.948 67.6091 454.019 41.4251 451.693C27.8326 450.431 14.0718 448.572 1.1257 439.33C5.76058 426.253 3.30446 411.399 7.35447 397.825C8.1812 395.13 7.75584 391.84 8.58231 389.045C9.57372 385.552 11.2328 382.356 12.6413 378.962C14.381 374.669 14.2865 370.38 12.358 366.097C10.9325 362.909 9.67341 359.621 7.74381 354.939C11.9102 354.13 14.7429 353.424 17.5764 353.018C19.9931 352.613 22.4937 352.407 25.9107 351.999C23.8996 348.015 21.8079 345.128 20.7987 341.74C17.6039 331.376 21.252 323.587 30.42 322.566C39.7547 321.545 49.1772 322.219 58.5142 322.095C61.5989 322.087 64.6002 322.079 70.3526 322.064C60.1574 312.716 49.6604 315.635 41.1454 311.269C36.3691 301.906 31.5929 292.544 26.3975 282.284C27.9619 274.701 29.7723 265.521 32.2424 253.546C35.1477 248.652 46.3263 251.415 47.4587 237.948C44.0282 233.17 39.6773 227.098 34.9082 220.527C43.3228 218.312 51.901 214.898 60.5696 214.178C69.8217 213.456 79.1642 215.426 88.5028 215.901C97.8414 216.375 107.263 216.551 116.6 216.726C133.442 217.081 150.367 217.636 167.208 217.792C171.544 217.781 176.129 217.769 178.445 210.682C155.345 208.148 131.931 212.996 109.813 203.379C108.227 202.685 107.138 200.494 106.051 199.2C106.619 193.514 110.205 193.804 112.955 193.497C120.29 192.78 127.626 192.462 134.628 192.045C134.872 189.95 135.204 189.351 135.037 188.952C134.785 188.355 134.282 187.458 133.782 187.36C122.689 185.593 111.597 183.827 100.337 182.061C99.1393 170.196 91.1289 167.523 83.1996 163.954C105.633 166.588 126.972 165.336 147.973 162.29C137.873 157.23 126.945 154.864 115.606 154.395C108.769 154.114 101.845 152.635 95.254 150.758C87.3281 148.484 79.4834 145.413 74.9526 134.254C77.5332 132.752 80.5262 129.552 82.612 130.145C94.8767 133.804 107.116 127.589 119.547 131.047C131.06 134.109 143.149 134.277 154.99 135.344C167.415 136.509 179.839 137.274 192.18 137.941C196.348 138.129 200.514 137.121 206.515 136.408C198.063 124.062 186.587 135.462 178.728 126.705C171.371 118.646 160.553 126.653 151.203 121.591C153.783 119.888 155.947 118.387 159.192 116.184C142.343 112.737 126.577 109.387 110.73 106.436C100.637 104.467 91.5387 100.302 83.8438 90.6478C87.0902 88.7445 90.0035 86.9418 92.917 85.2388C92.2958 70.6793 79.7079 71.011 71.513 61.4578C82.6029 62.1273 91.0244 62.6042 100.113 63.0793C100.099 57.8932 99.8383 53.6054 100.078 49.5157C100.4 45.1266 101.306 40.736 102.042 35.149C106.043 35.1387 110.212 35.1279 114.464 35.1169C133.804 34.7677 153.229 34.7175 172.569 33.9693C176.654 33.7593 181.318 32.1515 184.729 29.3502C196.21 20.145 208.204 15.9252 221.89 21.076C223.476 21.6703 225.475 20.8672 227.308 20.4636C227.891 20.3623 228.306 19.6631 228.888 19.1629C228.125 13.9788 225.04 14.0865 221.959 15.2912C214.046 18.3037 206.377 18.523 197.859 13.0597C199.687 10.7611 200.599 8.46487 201.932 8.16222C220.261 3.5271 238.683 2.58187 257.364 4.92717C264.703 5.8058 272.284 3.89127 279.704 3.77235C297.794 3.42638 315.967 2.88073 334.059 3.13316C369.659 3.63953 405.176 4.24584 440.778 5.45033C475.796 6.65633 510.732 8.36121 545.669 10.2656C558.093 10.9316 570.521 13.1933 582.947 14.7569C584.782 14.9516 586.7 15.3456 588.534 15.4406C617.803 17.7585 647.155 20.176 676.423 22.2945C704.441 24.4162 732.378 27.6351 760.317 31.4525C778.915 33.9975 797.676 35.2455 816.356 37.0922C826.446 38.0634 826.446 38.0634 834.895 49.2117C836.646 49.5064 838.482 50.1001 840.316 49.9956C851.57 49.5675 862.492 49.8385 873.59 53.5997C883.102 56.8663 893.357 56.9395 903.281 58.2104C920.044 60.3612 936.806 62.4123 953.569 64.4633C956.071 64.7561 958.737 64.2505 960.991 65.242C971.675 70.1013 983.093 68.6755 994.02 70.8414C1016.87 75.4698 1039.97 75.2106 1062.82 78.1436C1068.41 78.8272 1074.08 79.411 1079.58 80.6933C1093.6 83.9483 1107.61 85.6075 1121.87 86.568C1145.38 88.3024 1168.98 91.0339 1191.93 99.5516C1208.54 105.692 1225.31 111.433 1243.07 112.883C1265.58 114.72 1267.34 115.713 1288.98 133.908C1296 139.774 1303.01 143.347 1311.1 144.822C1319.77 146.295 1328.53 147.27 1337.12 149.342C1344.88 151.217 1352.8 151.795 1359.41 159.358C1363.5 164.035 1370.92 164.315 1376.68 167.092C1387.7 172.35 1398.14 179.104 1410.48 179.97C1413.9 180.161 1417.16 183.743 1420.5 185.629C1424.42 187.813 1428.27 190.396 1432.35 191.582C1437.86 193.164 1443.03 194.148 1446.88 200.321C1448.73 203.309 1453.4 204.493 1456.98 205.282C1465.58 207.055 1474.33 208.429 1483.01 209.403C1488.76 210.087 1493.77 212.168 1499.7 218.037C1494.29 219.846 1490.38 222.051 1486.37 222.26C1469.54 223.202 1452.7 223.644 1435.86 224.086C1429.6 224.302 1423.35 223.82 1417.1 224.035C1412.43 224.047 1408.52 226.551 1406.61 231.841C1404.21 238.33 1409.39 240.711 1411.98 244.693C1408.33 250.387 1402.42 254.99 1408.45 263.851C1410.46 266.838 1409.89 272.225 1410.65 277.409C1414.91 279.393 1419.41 281.476 1425.93 284.551C1420.01 286.162 1415.93 286.671 1412.18 288.476C1400.61 293.891 1397.72 307.762 1405.51 319.41C1410.36 326.678 1416.13 331.85 1424.46 332.027C1431.97 332.207 1439.39 332.787 1447.48 333.265C1448.9 335.355 1450.91 337.345 1451.83 339.935C1455.36 349.201 1461.7 353.174 1469.71 353.952C1477.21 354.73 1484.72 355.209 1492.22 355.689C1498.39 356.072 1504.81 354.858 1511.24 361.424C1507.33 363.229 1504.25 365.531 1500.92 365.939C1496.67 366.548 1492.17 366.26 1487.83 365.474C1477.82 363.704 1469.66 367.416 1462.76 377.407C1465.37 387.174 1472.39 391.843 1479.74 395.714C1478.08 400.505 1476.59 404.598 1474.69 409.989C1480.61 413.065 1486.12 415.943 1492.14 419.219C1488.23 424.814 1484.74 429.81 1481.42 434.506C1472.42 434.529 1463.75 434.452 1454.99 434.574C1449.41 434.589 1443.65 434.504 1438.24 435.615C1429.74 437.332 1427.34 445.018 1431.95 453.982C1435.38 460.755 1440.07 465.231 1446.9 465.812C1452.49 466.296 1458.16 466.381 1463.75 467.065C1469.83 467.747 1475.92 469.028 1482.18 470.009C1482.53 475.693 1479.36 474.504 1477.77 475.506C1475.11 477.208 1472.11 478.612 1469.95 480.911C1468.21 482.811 1467.88 486.502 1466.22 488.501C1464.64 490.5 1462.15 492.601 1459.98 492.706C1449.47 493.132 1442.32 499.234 1438.51 510.115C1432.93 511.725 1428.1 513.234 1423.27 514.543C1420.85 515.247 1417.69 516.951 1416.02 515.858C1400.74 505.924 1385.34 516.935 1369.83 515.08C1354.99 513.323 1352.58 517.618 1350.71 537.669C1305.37 541.775 1259.99 531.221 1214.73 535.926C1213.58 540.916 1216.25 541.707 1218.59 542.399C1224.43 544.179 1231.09 543.164 1236.61 549.832C1233.86 550.338 1231.95 551.44 1230.28 550.946C1221.52 548.275 1213.1 549.095 1204.52 552.907C1198.69 555.515 1192.2 557.726 1186.19 557.243C1160.43 555.016 1135.61 566.15 1109.84 564.023C1105.17 563.636 1100.26 566.242 1094.35 567.753C1102.22 580.598 1114.61 567.501 1121.88 576.957C1114.33 588.147 1106.92 593.153 1097.91 593.276C1090.66 593.294 1083.41 593.413 1074.82 593.535C1076.42 597.32 1076.92 600.311 1078.01 600.707C1082.1 602.193 1086.43 602.68 1090.61 603.966C1091.02 604.065 1090.61 607.457 1090.62 609.85C1095.29 610.237 1100.21 610.922 1105.05 610.81C1107.3 610.804 1110.88 609.798 1111.54 608.101C1113.94 601.711 1117.95 602.2 1122.45 602.687C1124.87 602.98 1127.54 602.773 1129.78 601.97C1135.7 599.76 1140.45 600.845 1145.3 605.919C1147.81 608.505 1151.98 608.894 1157.82 611.172C1153.82 612.679 1151.99 613.98 1149.99 614.085C1137.49 614.716 1124.98 615.745 1112.48 615.578C1085.47 615.249 1058.88 619.407 1032.21 623.565C1029.21 624.071 1024.46 624.582 1023.64 626.779C1019.49 637.361 1012.4 633.49 1005.89 633.207C1003.39 633.114 1000.89 632.622 998.472 632.129C992.299 630.849 986.207 628.371 980.037 628.288C968.866 628.316 957.615 629.642 945.945 630.37C948.215 637.844 953.213 636.236 957.049 636.725C975.73 639.07 994.41 641.116 1013.09 643.361C1014.93 643.556 1016.68 644.35 1019.26 645.141C1010.95 652.044 1001.94 650.571 993.519 651.291C986.101 651.909 978.511 650.732 971.007 650.153C962.918 649.475 954.743 647.601 946.658 648.121C925.986 649.471 905.878 643.439 885.449 641.996C864.852 640.454 844.673 638.91 823.925 643.252C798.762 648.603 773.086 649.268 747.405 648.237C729.979 647.484 712.393 649.325 694.887 650.168C692.553 650.274 690.305 651.377 683.89 653.089C702.234 654.139 716.161 655.599 730.167 655.662C751.426 655.807 772.603 656.151 793.621 659.587C794.205 659.685 794.872 659.584 795.455 659.582C818.702 654.635 841.318 663.453 864.248 664.491C866.749 664.584 869.252 665.276 871.753 665.369C899.348 665.298 926.62 669.316 954.057 672.337C957.059 672.662 961.807 671.087 968.301 667.613C965.295 665.825 963.207 664.634 960.202 662.946C970.353 655.141 978.625 662.3 990.546 662.17C984.968 665.076 982.887 666.179 980.722 667.281C981.308 668.277 981.813 670.171 982.48 670.169C991.819 670.843 1001.16 671.218 1011.58 671.789C1006.16 672.901 1001.66 673.81 997.165 674.719L997.172 677.312C1000.34 678.201 1003.68 678.891 1006.85 680.08C1009.69 681.169 1012.44 682.758 1016.2 684.643C1013.87 686.943 1012.54 688.243 1011.21 689.443C1019.23 697.401 1027.49 700.472 1037.25 700.347C1060.92 699.886 1084.6 699.725 1108.28 699.565C1131.29 699.505 1154.3 699.446 1177.22 697.89C1163.55 700.319 1149.89 702.648 1136.14 705.078C1126.89 706.697 1118.06 708.815 1108.3 707.045C1099.87 705.471 1090.96 708.685 1082.21 709.007C1060.37 709.961 1038.53 710.815 1016.6 711.271C1009.77 711.388 1003.26 712.303 993.356 716.916C999.029 718.697 1001.03 719.988 1002.95 719.883C1015.37 719.352 1027.8 722.711 1040.22 719.388C1043.8 718.381 1047.72 718.97 1051.47 719.558C1073.32 723.391 1095.07 720.044 1116.92 719.788C1131.26 719.751 1145.6 721.609 1159.94 722.469C1165.53 722.854 1171.2 723.637 1176.78 723.224C1183.54 722.708 1189.55 725.285 1194.06 730.16C1199.49 736.031 1204.76 743.098 1203.54 753.274C1185.81 763.692 1166.64 765.337 1147.64 767.082C1130.22 768.723 1112.63 769.267 1095.12 770.21C1090.79 770.421 1086.29 771.03 1082.03 770.044C1051.5 763.241 1021 769.005 990.489 768.984C978.58 774.002 966.41 774.632 954.145 770.973C953.561 770.775 952.895 771.176 952.312 771.277C913.225 776.564 873.873 775.768 834.701 780.258C820.449 781.891 806.368 785.418 792.201 787.349C768.615 790.402 744.944 792.857 721.274 795.511C718.774 795.817 716.273 795.923 713.772 795.73C679.918 793.624 646.758 801.788 613.166 803.869C611.332 803.974 609.416 804.677 607.582 804.681C575.07 805.464 542.904 811.232 510.564 813.808C499.978 814.634 489.478 816.356 478.977 817.58C475.226 818.089 471.478 819.195 467.809 818.906C431.953 816.306 397.135 827.965 361.541 829.852C346.703 830.688 331.708 835.015 316.947 833.258C305.021 831.793 293.267 831.923 281.513 832.552C275.261 832.868 269.095 833.881 262.844 834.595C259.093 835.004 255.344 836.011 251.675 835.621C222.237 832.506 192.984 836.172 163.64 836.946C145.467 837.392 127.292 837.439 109.202 837.785C102.116 837.903 95.6922 836.224 89.6776 831.552C84.0808 827.278 77.9861 823.903 69.8859 818.738L70.5541 819.235ZM575.384 636.514C603.909 641.627 631.825 636.668 659.825 632.008C660.492 631.906 660.986 629.611 661.815 627.814C649.211 621.962 637.479 630.869 625.14 630.502C608.631 630.046 591.968 634.277 575.384 636.514ZM677.32 626.976C685.745 628.749 695.091 632.216 704.081 626.907L677.32 626.976ZM219.1 134.879C227.616 139.644 235.363 137.031 245.444 134.811C235.353 133.241 227.674 129.87 219.1 134.879ZM1023.06 599.254C1027.32 602.235 1031.5 606.612 1034.98 598.724C1033.23 598.031 1031.48 596.639 1029.81 596.843C1027.56 597.048 1025.31 598.35 1023.06 599.254ZM263.119 134.865C262.118 134.568 261.116 134.172 260.032 134.075C259.865 134.075 259.534 134.874 259.285 135.274C260.286 135.57 261.288 135.967 262.372 136.064C262.538 136.063 262.87 135.264 263.119 134.865ZM1093.73 586.405L1093.73 587.801L1095.06 587.199L1093.73 586.405ZM590.034 885.81C597.043 888.186 604.876 886.769 612.299 887.847C620.139 888.924 626.657 894.791 635.328 894.968C667.175 895.285 699.026 896.798 730.879 898.81C785.828 902.358 840.696 906.505 895.564 910.552C917.411 912.191 939.176 914.329 961.023 916.068C965.276 916.455 970.03 917.241 971.677 909.458C966.148 899.199 959.288 889.942 950.264 881.987C936.525 888.804 922.265 887.145 907.921 885.487C900.415 884.609 895.57 880.831 893.297 872.26C896.629 871.055 899.877 869.85 903.042 868.645C897.031 865.269 891.109 864.287 885.105 863.904C873.848 863.135 862.593 862.965 851.337 862.296C810.146 860.009 768.955 857.622 727.682 855.434C720.428 855.054 713.088 853.876 707.191 862.369C705.115 865.366 699.029 865.382 694.777 865.293C662.928 864.777 630.995 863.863 599.146 863.147C590.392 862.97 581.638 862.893 572.885 863.315C569.134 863.524 565.554 865.428 565.49 872.709C573.254 876.977 581.273 882.741 590.034 885.71L590.034 885.81ZM598.362 817.97C600.198 818.364 601.95 819.058 603.784 819.053C632.547 819.078 661.309 818.904 690.072 819.129C700.66 819.201 711.332 819.672 721.84 820.942C746.692 823.77 771.381 828.393 796.475 828.229C807.73 828.2 818.987 829.068 830.244 829.937C855.176 831.967 880.109 833.897 905.043 836.625C923.64 838.671 942.559 836.229 961.081 841.666C966.087 843.149 971.84 843.334 977.249 839.63C975.662 838.437 974.741 837.043 973.657 836.846C947.216 831.828 920.856 826.012 894.007 824.486C872.161 823.246 850.477 820.111 828.631 818.871C799.364 817.251 770.016 816.329 740.668 815.707C703.9 814.904 667.05 814.601 630.283 814.297C619.779 814.224 609.193 814.95 598.689 815.276C598.691 816.174 598.527 817.072 598.529 817.969L598.362 817.97ZM805.702 850.146C819.292 850.61 832.881 850.475 846.396 853.731C852.902 855.31 859.824 856.19 867.571 853.477C865.315 851.688 863.976 849.796 862.392 849.601C832.201 845.291 801.851 843.773 771.255 844.251C782.766 846.316 793.946 849.778 805.702 850.146ZM860.375 649.74L828.027 649.824C828.027 649.824 828.029 650.522 828.03 650.921C838.787 651.791 849.627 652.66 860.384 653.43C860.381 652.234 860.378 650.937 860.375 649.74ZM907.237 653.11C900.235 653.527 893.233 653.944 886.231 654.261C886.232 654.76 886.233 655.259 886.235 655.757L907.66 655.702C907.491 654.805 907.322 653.907 907.153 653.01L907.237 653.11ZM136.433 116.542C130.013 116.26 124.76 115.974 119.591 115.688C127.216 120.057 132.831 120.341 136.433 116.542ZM462.959 716.791L444.788 717.935C444.789 718.534 444.791 719.132 444.792 719.731L463.3 719.683C463.131 718.686 463.045 717.788 462.876 716.792L462.959 716.791ZM937.847 658.317C934.929 658.324 932.095 658.531 929.177 658.339C926.341 658.147 923.505 657.556 920.67 657.064C920.672 657.862 920.674 658.76 920.676 659.558L937.85 659.513L937.847 658.416L937.847 658.317ZM858.555 42.5681L844.465 42.6046C844.467 43.3027 844.469 43.9011 844.387 44.5994C849.057 45.086 853.727 45.6724 858.397 46.159C858.394 44.9622 858.474 43.7652 858.555 42.5681ZM893.327 851.416C889.074 851.128 885.572 850.937 882.07 850.747C886.583 854.924 890.335 855.147 893.327 851.416ZM1014.59 60.8149L1007.75 60.8326C1007.75 61.3312 1007.84 61.8297 1007.92 62.4279L1014.76 61.9115C1014.76 61.9115 1014.67 61.2136 1014.59 60.8149ZM1126.58 588.713C1125.25 589.814 1124 590.914 1122.67 592.015C1123.34 593.01 1124.18 594.903 1124.76 594.902C1126.1 594.798 1127.35 593.598 1128.76 592.797C1127.75 590.905 1127.17 589.809 1126.5 588.813L1126.58 588.713ZM1127.67 73.6874C1127.08 73.4894 1126.42 73.6906 1125.83 73.6921C1126.42 74.1893 1126.92 74.9858 1127.51 75.1838C1128.01 75.382 1128.67 74.8816 1129.25 74.6806C1128.75 74.3827 1128.25 73.8853 1127.67 73.6874ZM895.584 47.7583C894.499 47.4619 893.498 46.9658 892.414 46.8689C891.914 46.8702 891.414 47.2704 890.915 47.4712C891.75 47.9677 892.502 48.5641 893.337 49.0606C894.086 48.6598 894.835 48.1592 895.584 47.7583ZM1168.82 608.651C1168.82 608.651 1168.41 610.447 1168.16 611.345C1169.16 611.343 1170.24 611.34 1171.24 611.038C1171.58 611.037 1171.66 609.94 1171.82 609.341C1170.82 609.044 1169.74 608.548 1168.74 608.651L1168.82 608.651ZM67.0118 158.51C67.5128 158.808 68.3483 159.504 68.5979 159.304C69.0971 158.904 69.2615 158.006 69.5932 157.307C69.0096 157.308 68.3427 157.31 67.7588 157.212C67.51 157.711 67.2609 158.11 67.0121 158.61L67.0118 158.51ZM974.055 55.4344C972.054 55.3398 970.052 55.2452 968.135 55.1505L968.14 57.2448L974.059 57.2295C974.058 56.6312 974.056 56.0328 974.055 55.4344ZM1076.72 70.7273C1077.14 71.0255 1077.81 70.924 1078.31 71.0224C1078.14 70.225 1078.05 69.4274 1077.88 68.6299C1077.38 68.8307 1076.88 69.0315 1076.38 69.2322C1076.47 69.7307 1076.39 70.5287 1076.72 70.7273Z" fill="white"/>
</svg>
