<svg width="1622" height="1060" viewBox="0 0 1622 1060" fill="none" xmlns="http://www.w3.org/2000/svg">
<mask id="mask0_1469_2364" style="mask-type:alpha" maskUnits="userSpaceOnUse" x="0" y="0" width="1622" height="1060">
<rect width="1622" height="1060" fill="#D9D9D9"/>
</mask>
<g mask="url(#mask0_1469_2364)">
<path d="M-20.2198 1867.13C-3.85493 1854.19 7.28254 1842.18 20.9687 1835.41C32.787 1829.69 38.1658 1819.1 37.3253 1799.67C37.1379 1795.3 37.4926 1791.32 37.4985 1786.27C60.1641 1772.3 90.588 1777.77 116.914 1766.53C105.564 1755.54 98.5651 1759.92 91.0195 1758C80.0393 1755.3 69.4131 1754.11 58.2933 1750.99C52.9696 1749.52 47.1364 1744.8 37.8685 1739.32C41.4273 1733.72 42.5763 1728.79 45.4584 1728.3C87.4761 1720.62 129.29 1712.74 171.796 1706.55C187.483 1704.2 204.839 1706.51 220.87 1704.79C233.815 1703.35 245.51 1698.52 258.106 1696.02C267.686 1694.03 277.331 1691.8 287.538 1691.72C329.775 1691.04 370.972 1687.6 407.994 1672.28C410.666 1671.15 413.334 1669.58 416.291 1669.74C471.746 1673.52 518.166 1652.27 569.377 1643.95C587.072 1640.97 604.214 1636.72 621.7 1633.11C651.711 1626.78 683.795 1625.07 710.909 1612.44C734.149 1601.48 760.409 1601.42 785.129 1596.25C806.833 1591.58 827.839 1584.78 852.001 1577.9C831.716 1566.65 817.623 1567.54 803.599 1568.64C755.088 1572.54 706.646 1576.66 658.484 1581.63C629.438 1584.58 600.886 1589.46 572.05 1593.05C570.306 1593.21 567.66 1591.05 565.025 1589.76C562.901 1575.27 562.656 1560.6 558.38 1545.88C549.764 1516.65 535.013 1502.03 516.084 1502.93C502.86 1503.52 489.925 1505.83 477.742 1509.17C414.288 1526.98 346.73 1533.11 279.869 1541.37C202.076 1550.88 123.382 1558.06 45.17 1566.29C31.2161 1567.61 17.6805 1570.19 0.958673 1559.27C-1.79865 1547.91 3.90106 1547.15 8.45759 1546.29C34.0632 1542.12 60.0872 1539.24 85.5586 1535.09C103.253 1532.11 120.395 1527.87 137.881 1524.25C146.522 1522.34 155.093 1520.22 163.943 1518.95C205.445 1513.07 247.575 1509.11 288.385 1501.54C329.33 1493.96 368.675 1481.93 409.201 1473.08C462.253 1461.51 515.933 1451.86 568.782 1440.09C586.063 1436.27 601.682 1428.23 618.33 1422.06C589.625 1408.75 566.145 1410.96 546.93 1427.02C544.069 1429.26 539.287 1428.18 535.466 1428.75C524.807 1430.41 513.735 1431.24 503.425 1433.96C485.484 1438.72 470.176 1450.24 448.205 1443.98C443.89 1442.63 439.602 1443.47 436.264 1445.1C401.351 1462.63 358.797 1459.4 321.245 1469.73C300.426 1475.42 280.858 1484.49 256.841 1481.27C244.287 1498.24 222.729 1487.33 204.391 1487.08C180.814 1486.88 156.004 1484.61 139.026 1502.43C136.439 1505.09 131.679 1505.76 127.627 1503.94C98.7228 1490.88 78.1774 1502.46 55.8292 1509.38C42.0467 1513.75 26.9497 1514.95 12.0566 1516.35C8.83645 1516.65 3.54518 1512.32 -0.463432 1508.54C-12.4195 1497.38 -22.7236 1495.06 -32.7652 1497.76C-46.8911 1501.5 -61.3603 1504.62 -75.556 1508.14C-77.4663 1505.69 -80.3159 1503.33 -80.8792 1501.19C-87.0771 1477.51 -98.2134 1461.96 -114.288 1454.56C-118.812 1452.57 -123.277 1449.92 -127.871 1447.72C-131.112 1446.27 -134.214 1445.25 -141.974 1442.25C-129.909 1434.76 -120.844 1429.08 -111.177 1423.13C-115.432 1410.16 -118.72 1399.28 -122.616 1388.25C-126.924 1376.38 -128.468 1365.34 -124.732 1357.75C-117.512 1343.92 -123.457 1324.52 -128.65 1306.16C-123.094 1293.57 -111.448 1295.77 -101.793 1294.42C-85.9713 1292.06 -71.1154 1287.59 -56.957 1281C-41.1938 1273.81 -22.882 1271.87 -5.32138 1268.9C13.3126 1265.84 32.7084 1264.67 51.4121 1261.81C107.657 1253.24 164.316 1245.5 219.729 1234.8C249.817 1229.12 279.206 1221.32 309.497 1215.84C360.295 1206.67 410.117 1194.53 460.357 1183.67C464.978 1182.58 469.529 1181.27 472.734 1174.17C468.285 1172.84 463.208 1169.59 459.521 1170.16C423.332 1176.63 386.59 1181.84 351.372 1190.85C281.805 1208.57 210.296 1221.22 137.811 1230.89C74.1752 1239.28 9.91216 1245.77 -54.1417 1252.89C-73.1888 1255.12 -93.3679 1252.63 -114.249 1242.09C-126.51 1222.42 -110.839 1218.75 -116.257 1203.91C-126.168 1199 -132.284 1202.28 -134.608 1213.75C-137.307 1212.69 -140.667 1212.57 -143.318 1209.97C-158.472 1195.38 -172.098 1190.53 -185.633 1193.12C-197.156 1195.51 -209.58 1195.59 -223.748 1190.34C-208.796 1188.28 -193.774 1186.43 -178.897 1183.71C-170.117 1182.23 -160.928 1181.14 -153.184 1177.35C-140.968 1171.15 -140.811 1156.45 -151.102 1133.08C-157.181 1119.18 -163.325 1105.51 -170.643 1089.09C-178.044 1088.03 -185.386 1086.31 -192.438 1086.32C-235.888 1086.68 -278.849 1088.52 -322.653 1087.38C-345.43 1086.67 -368.893 1084.71 -396.176 1066.89C-397.8 1038.32 -412.083 1006.99 -414.994 977.447C-415.535 971.578 -418.508 964.622 -419.119 958.541C-419.95 950.945 -419.498 943.886 -419.589 936.44C-419.77 927.029 -422.903 917.895 -428.988 909.039C-433.501 902.447 -437.815 895.618 -444.179 885.911C-438.029 883.578 -433.955 881.661 -429.672 880.381C-426.06 879.164 -422.175 878.36 -416.952 876.992C-422.962 868.787 -428.339 862.934 -432.321 855.854C-444.673 834.212 -444.21 817.067 -430.148 813.552C-415.818 810.011 -400.169 810.075 -385.211 808.449C-380.247 807.982 -375.416 807.528 -366.159 806.657C-389.084 788.203 -403.967 795.961 -420.721 787.889C-434.925 768.614 -449.129 749.34 -464.631 728.214C-467.383 711.809 -470.848 691.963 -475.192 666.061C-473.914 655.197 -453.982 659.462 -461.519 630.571C-470.368 620.879 -481.599 608.56 -493.85 595.241C-481.833 589.287 -470.385 580.756 -456.919 577.955C-442.514 575.065 -426.092 577.906 -410.716 577.556C-395.34 577.206 -380.039 576.206 -364.872 575.218C-337.491 573.52 -309.835 572.235 -282.593 570.112C-275.616 569.455 -268.237 568.761 -269.432 553.306C-308.411 551.271 -342.765 565.027 -385.086 547.739C-388.124 546.489 -391.403 541.974 -394.053 539.373C-397.09 527.161 -391.111 527.256 -386.893 526.202C-375.574 523.603 -363.976 521.854 -352.984 519.943C-354.047 515.439 -353.928 514.112 -354.476 513.287C-355.297 512.048 -356.729 510.21 -357.604 510.073C-376.704 507.922 -395.805 505.772 -415.173 503.647C-425.352 478.512 -440.115 473.981 -455.372 467.522C-417.397 469.871 -383.886 464.088 -352.167 454.527C-371.959 445.207 -391.209 441.755 -409.805 442.407C-421.017 442.804 -433.199 440.661 -445.124 437.616C-459.474 433.923 -474.249 428.515 -489.306 405.374C-486.192 401.793 -483.594 394.532 -479.821 395.493C-457.517 401.508 -442.118 386.466 -419.686 392.03C-399.008 396.882 -379.413 395.478 -359.594 396.026C-338.765 396.698 -318.216 396.52 -297.87 396.141C-291.022 395.936 -285.011 393.178 -275.838 390.781C-298.038 365.68 -308.603 391.669 -327.353 374.138C-344.809 358.02 -356.672 376.676 -375.256 367.241C-372.283 363.234 -369.84 359.716 -366.142 354.544C-395.686 349.649 -423.416 344.802 -451.001 340.818C-468.631 338.091 -486.185 330.533 -505.294 311.062C-501.386 306.529 -497.946 302.258 -494.435 298.201C-505.558 267.235 -525.608 269.779 -545.453 250.596C-527.12 250.407 -513.22 250.196 -498.246 249.884C-501.873 238.823 -505.274 229.715 -507.731 220.957C-510.264 211.548 -511.857 202.05 -514.555 190.025C-508.115 189.42 -501.406 188.789 -494.563 188.145C-463.644 184.58 -432.382 181.64 -401.743 177.223C-395.308 176.18 -388.91 172.07 -385.362 165.597C-373.263 144.287 -356.871 133.537 -331.24 142.528C-328.273 143.564 -325.61 141.56 -322.938 140.432C-322.068 140.131 -321.886 138.579 -321.295 137.427C-326.129 126.48 -331.024 127.16 -335.151 130.179C-345.805 137.759 -358.01 139.345 -375.531 128.933C-374.184 123.764 -374.312 118.733 -372.374 117.893C-346.065 105.333 -317.041 100.63 -285.312 102.908C-272.877 103.712 -261.993 98.5226 -250.121 97.1869C-221.215 93.8107 -192.314 89.9964 -162.99 87.8964C-105.28 83.7847 -47.6342 79.8984 10.5639 77.2756C67.8229 74.7411 125.296 73.2827 182.909 72.2498C203.389 71.8586 224.985 74.8706 246.093 76.3937C249.184 76.5415 252.549 77.1021 255.57 77.0372C304.339 77.7131 353.311 78.589 401.94 78.8395C448.556 79.2792 495.805 82.0713 543.473 86.1395C575.206 88.8559 606.302 88.7819 637.682 89.9967C654.614 90.597 654.614 90.597 675.977 113.145C679.004 113.518 682.374 114.517 685.256 114.026C703.09 111.472 720.876 110.457 741.371 116.862C758.969 122.442 775.541 121.103 792.414 122.366C820.917 124.51 849.351 126.44 877.784 128.371C882.018 128.63 885.963 127.163 890.283 128.949C910.875 137.756 928.28 133.05 947.391 136.076C987.432 142.616 1024.46 138.695 1063.31 141.619C1072.79 142.262 1082.33 142.681 1092.1 144.613C1116.94 149.512 1140.66 151.008 1164.31 150.977C1203.4 151.248 1243.32 153.632 1286.22 168.455C1317.24 179.131 1348.26 188.931 1377.88 189.434C1415.43 190.069 1418.95 191.931 1466.46 227.587C1481.85 239.076 1495.63 245.673 1509.69 247.64C1524.69 249.518 1539.47 250.32 1554.76 253.487C1568.56 256.355 1581.73 256.432 1597.63 271.601C1607.48 280.979 1619.63 280.494 1630.84 285.579C1652.25 295.187 1673.76 308.073 1694.25 308.12C1699.89 308.028 1707.63 315.193 1714.32 318.73C1722.16 322.816 1730.15 327.766 1737.56 329.7C1747.53 332.27 1756.55 333.615 1767.04 346.222C1772.09 352.325 1780.44 354.171 1786.77 355.33C1801.84 357.859 1816.91 359.512 1831.56 360.327C1841.3 360.945 1850.82 364.654 1864.46 376.308C1856.99 380.957 1852.22 386.229 1845.92 387.26C1819.45 391.723 1792.62 395.123 1765.8 398.522C1755.88 399.894 1745.46 399.777 1735.54 401.149C1728.03 401.855 1723.46 407.766 1724.07 419.329C1724.72 433.521 1734.71 437.843 1741.66 445.96C1739.73 458.639 1733.41 469.319 1749.28 487.341C1754.59 493.419 1757.42 504.993 1762.25 515.94C1770.49 519.55 1779.2 523.336 1791.83 528.945C1783.42 533.244 1777.19 534.926 1772.41 539.322C1757.53 552.562 1762.53 582.569 1783.16 606.281C1796.04 621.076 1808.92 631.266 1822.48 630.43C1834.69 629.719 1847.05 629.873 1860.42 629.712C1864.16 633.964 1868.78 637.916 1872.07 643.307C1884.19 662.558 1897.18 670.107 1910.61 670.597C1923.25 671.163 1935.67 671.091 1948.1 671.019C1958.3 670.936 1967.8 667.412 1982.73 680.479C1977.68 684.9 1974.32 690.259 1969.23 691.615C1962.81 693.534 1955.36 693.578 1947.82 692.532C1930.46 690.218 1919.9 699.324 1915.73 721.642C1926.73 742.095 1941.28 751.032 1955.8 758.217C1956.47 768.679 1956.91 777.626 1957.59 789.402C1969.28 795.1 1980.16 800.436 1992.12 806.546C1989.72 819.05 1987.57 830.215 1985.49 840.717C1970.99 842.08 1956.97 843.179 1942.95 844.717C1933.96 845.562 1924.64 846.22 1916.68 849.38C1904.18 854.283 1905.66 871.027 1919.32 889.476C1929.56 903.422 1940.21 912.287 1951.63 912.528C1960.97 912.746 1970.17 912.101 1979.64 912.745C1989.93 913.312 2000.63 915.156 2011.39 916.337C2015.9 928.41 2009.96 926.337 2008.11 928.704C2005.01 932.724 2001.15 936.156 1999.27 941.376C1997.77 945.682 1999.82 953.603 1998.53 958.109C1997.38 962.603 1994.81 967.448 1991.4 967.989C1974.77 970.429 1967.49 984.489 1968.92 1008.25C1961.04 1012.5 1954.31 1016.42 1947.43 1019.92C1944.03 1021.78 1940.12 1025.87 1936.66 1023.78C1905.14 1004.82 1887.99 1030.56 1861.71 1028.86C1836.57 1027.28 1835.68 1036.79 1846.61 1079.83C1776.41 1095.21 1695.96 1079.31 1626.31 1095.95C1627.92 1106.76 1632.77 1108.06 1637.01 1109.19C1647.66 1112.14 1657.7 1109 1671.23 1122.42C1667.15 1123.9 1664.83 1126.53 1661.8 1125.72C1645.83 1121.3 1632.83 1124.27 1621.66 1133.66C1614.08 1140.07 1605.15 1145.73 1595.14 1145.58C1552.08 1144.59 1519.84 1171.96 1476.85 1171.18C1469.05 1171.03 1462.95 1177.31 1454.47 1181.39C1476.08 1207.64 1486.93 1177.9 1505.23 1197.01C1500.84 1221.98 1492.38 1233.74 1477.96 1235.31C1466.29 1236.41 1454.68 1237.72 1440.93 1239.23C1446.13 1247.08 1449.03 1253.38 1451.05 1254.07C1458.68 1256.64 1466 1257.05 1473.62 1259.18C1474.36 1259.33 1476.06 1266.63 1477.73 1271.73C1485.52 1271.88 1493.93 1272.62 1501.64 1271.68C1505.26 1271.33 1510.33 1268.67 1510.22 1264.95C1509.65 1250.97 1516.44 1251.43 1524.03 1251.81C1528.13 1252.08 1532.29 1251.25 1535.35 1249.21C1543.34 1243.64 1551.76 1245.26 1563.1 1255.37C1568.94 1260.52 1575.92 1260.74 1586.92 1264.75C1581.53 1268.55 1579.48 1271.59 1576.33 1272.11C1556.62 1275.28 1537.19 1279.29 1516.93 1280.76C1473.18 1284 1433.24 1296.75 1393.16 1309.5C1388.68 1311.02 1381.38 1312.8 1381.57 1317.61C1382.26 1340.79 1368.13 1333.56 1357.46 1333.91C1353.36 1334.08 1348.99 1333.39 1344.75 1332.69C1333.92 1330.86 1322.38 1326.47 1312.38 1327.19C1294.4 1328.88 1277.19 1333.35 1258.9 1336.6C1267.75 1352.21 1274.69 1348.05 1281.21 1348.54C1312.93 1350.81 1344.45 1352.45 1376.11 1354.52C1379.2 1354.67 1382.58 1356.11 1387.3 1357.42C1378.69 1373.35 1363.15 1371.53 1350.09 1374.29C1338.57 1376.69 1325.52 1375.28 1313.03 1375.14C1299.53 1374.88 1285.05 1372.07 1272.39 1374.36C1240.02 1380.26 1203.43 1370.32 1169.51 1370.22C1135.25 1369.94 1101.67 1369.59 1071.26 1381.87C1034.43 1396.96 993.528 1402.12 951.435 1403.67C922.835 1404.6 895.781 1411.09 868.162 1415.45C864.475 1416.01 861.62 1418.69 852.474 1423.28C882.759 1422.84 906.212 1423.93 928.823 1422.02C963.176 1419.23 997.535 1416.87 1033.79 1421.14C1034.8 1421.26 1035.8 1420.95 1036.74 1420.86C1070.76 1406.92 1113.32 1422.43 1150.99 1421.3C1155.08 1421.13 1159.6 1422.24 1163.69 1422.08C1208.1 1417.9 1254.84 1422.49 1301.14 1424.94C1306.2 1425.19 1312.76 1421.14 1320.81 1412.78C1314.72 1409.41 1310.53 1407.17 1304.51 1404.01C1315.44 1385.88 1333.75 1399.94 1352.86 1397.93C1345.9 1404.94 1343.31 1407.6 1340.59 1410.26C1342.23 1412.3 1344.36 1416.27 1345.43 1416.17C1360.94 1416.24 1376.25 1415.68 1393.44 1415.38C1385.49 1418.54 1378.87 1421.14 1372.25 1423.73L1374.06 1429.26C1379.79 1430.7 1385.65 1431.68 1391.58 1433.75C1396.91 1435.66 1402.45 1438.65 1409.82 1442.12C1407.66 1447.37 1406.42 1450.34 1405.11 1453.09C1423.57 1468.9 1439.02 1474.24 1454.65 1472.55C1492.47 1468.12 1530.51 1464.32 1568.54 1460.52C1605.58 1457.04 1642.61 1453.56 1678.46 1446.9C1658.13 1454.07 1637.73 1461.03 1617.26 1468.22C1603.49 1473.02 1590.73 1478.83 1573.78 1476.48C1559.11 1474.35 1546.98 1482.5 1533.1 1484.47C1498.58 1489.69 1463.98 1494.69 1428.98 1498.86C1418.04 1500.11 1408.21 1503.01 1395.45 1514.3C1405.83 1517.27 1409.95 1519.73 1412.97 1519.23C1432.61 1516.28 1454.98 1521.63 1472.67 1512.73C1477.74 1510.07 1484.46 1510.75 1490.92 1511.46C1528.79 1516.45 1561.51 1506.13 1596.52 1502.4C1619.6 1500.23 1644 1502.1 1667.71 1501.85C1676.98 1501.85 1686.66 1502.7 1695.37 1501C1705.89 1498.91 1717.36 1503.54 1728.02 1513.28C1740.86 1525.01 1754.27 1539.31 1759.37 1561.2C1738.04 1586.01 1708.3 1592.31 1678.89 1598.8C1651.97 1604.84 1624.01 1608.57 1596.46 1613.13C1589.62 1614.22 1582.79 1616.17 1575.25 1614.69C1521.33 1604.63 1476.2 1621.37 1427.02 1625.78C1411.33 1638.22 1392.15 1641.34 1369.85 1635.32C1368.77 1634.98 1367.98 1635.94 1367.11 1636.24C1307.81 1653.22 1243.85 1657.26 1183.86 1672.55C1162.03 1678.11 1141.8 1687.68 1120.31 1693.87C1084.44 1703.82 1048 1712.51 1011.71 1721.62C1007.9 1722.64 1003.94 1723.23 999.777 1723.19C943.769 1723.63 896.018 1745.88 843.342 1755.22C840.46 1755.71 837.862 1757.49 834.91 1757.77C783.071 1764.18 735.256 1781.17 684.941 1791.38C668.459 1794.69 652.739 1799.89 636.671 1804.04C630.982 1805.67 625.711 1808.57 619.598 1808.49C560.021 1808.17 512.028 1838.12 455.992 1847.34C432.667 1851.29 411.515 1862.7 386.511 1861.11C366.278 1859.72 347.43 1861.71 328.93 1864.77C319.077 1866.35 309.845 1869.41 300.271 1871.85C294.512 1873.27 289.172 1875.96 282.989 1875.67C233.394 1873.31 188.811 1885.4 142.07 1891.33C113.1 1894.93 83.8505 1897.68 54.9444 1901.06C43.6095 1902.34 32.0926 1899.7 19.1542 1890.61C7.16556 1882.31 -5.00041 1876 -21.6419 1866.16L-20.2198 1867.13ZM666.129 1403.75C715.643 1410.49 757.173 1395.85 799.047 1381.82C800.05 1381.51 799.251 1376.54 799.337 1372.58C774.962 1361.94 762.251 1382.65 742.115 1383.67C715.2 1385.1 691.295 1396.56 666.129 1403.75ZM823.735 1368.54C838.542 1371.09 856.011 1377.12 866.805 1364.49L823.735 1368.54ZM-256.625 385.685C-239.591 394.607 -228.927 387.904 -214.226 381.697C-231.577 379.821 -246.292 373.75 -256.625 385.685ZM1361.52 1258.98C1370.45 1264.72 1380.23 1273.45 1380.36 1256.11C1377.05 1254.89 1373.26 1252.18 1370.71 1252.85C1367.23 1253.62 1364.51 1256.73 1361.52 1258.98ZM-185.712 379.235C-187.531 378.749 -189.42 378.049 -191.234 378C-191.503 378.026 -191.481 379.778 -191.605 380.666C-189.786 381.153 -187.897 381.852 -186.083 381.901C-185.814 381.876 -185.836 380.124 -185.712 379.235ZM1466.44 1221.27L1467.42 1224.25L1469.14 1222.77L1466.44 1221.27ZM863.035 1933.38C875.979 1937.42 887.615 1933.26 900.323 1934.48C913.703 1935.63 928.283 1947.19 942.377 1946.31C993.909 1942.34 1046.28 1940.92 1099 1940.57C1190 1940.12 1281.28 1940.97 1372.5 1941.6C1408.83 1941.91 1445.39 1943.29 1481.8 1943.82C1488.92 1944.02 1497.12 1945 1494.37 1928.16C1478.33 1907.09 1460.84 1888.34 1440.77 1872.69C1423.37 1889.23 1399.24 1887.77 1374.98 1886.33C1362.28 1885.55 1351.85 1878.2 1342.23 1860.25C1346.76 1857.19 1351.15 1854.15 1355.41 1851.11C1343.38 1844.79 1333.16 1843.56 1323.22 1843.62C1304.55 1843.62 1286.29 1844.9 1267.69 1845.11C1199.74 1846.24 1131.71 1847.16 1063.69 1848.51C1051.74 1848.76 1039.1 1847.32 1035.5 1866.29C1034.24 1872.99 1024.44 1873.91 1017.53 1874.34C965.859 1877.88 913.773 1880.59 861.961 1883.71C847.734 1884.61 833.576 1885.72 819.767 1887.89C813.869 1888.89 809.424 1893.47 814.382 1909.01C829.859 1916.98 846.785 1928.11 862.965 1933.16L863.035 1933.38ZM829.293 1787.45C832.524 1788.03 835.83 1789.25 838.782 1788.97C885.141 1784.83 931.36 1780.27 977.859 1776.55C994.969 1775.16 1012.49 1774.61 1030.3 1775.79C1072.31 1778.19 1115.3 1784.46 1155.62 1780.45C1173.73 1778.74 1192.47 1778.95 1211.21 1779.16C1252.8 1779.86 1294.31 1780.34 1336.38 1782.52C1367.76 1784.18 1396.55 1776.21 1430.17 1785.1C1439.27 1787.54 1448.66 1787.09 1454.8 1778.4C1451.42 1776.09 1448.96 1773.25 1447.08 1772.99C1400.99 1766.14 1354.48 1757.58 1310.16 1758.24C1274.1 1758.78 1236.98 1755.25 1200.92 1755.79C1152.64 1756.61 1104.72 1758.92 1057 1761.87C997.202 1765.52 937.619 1770.25 878.17 1774.97C861.195 1776.34 844.643 1779.43 827.947 1781.66C828.574 1783.58 828.934 1785.52 829.562 1787.43L829.293 1787.45ZM1185.72 1825.85C1207.94 1824.86 1229.74 1822.59 1253.78 1827.56C1265.36 1829.98 1277.12 1830.85 1287.72 1823.93C1282.84 1820.45 1279.37 1816.61 1276.68 1816.42C1225.04 1811.63 1175.09 1812.82 1126.12 1818.3C1146.1 1821.03 1166.52 1826.78 1185.72 1825.85ZM1134.49 1390.4L1082.43 1395.29C1082.43 1395.29 1082.92 1396.78 1083.2 1397.63C1101.14 1397.92 1119.21 1398.19 1137.07 1398.27C1136.24 1395.72 1135.33 1392.95 1134.49 1390.4ZM1212.34 1390.75C1201.35 1392.66 1190.36 1394.57 1179.3 1396.27C1179.64 1397.33 1179.99 1398.4 1180.34 1399.46L1214.82 1396.22C1213.93 1394.33 1213.03 1392.44 1212.14 1390.55L1212.34 1390.75ZM-402.562 358.627C-413.102 358.961 -421.764 359.118 -430.292 359.262C-414.969 367.468 -405.726 367.257 -402.562 358.627ZM540.799 1591.38L512.317 1596.47C512.735 1597.75 513.154 1599.02 513.572 1600.3L543.358 1597.5C542.393 1595.4 541.631 1593.5 540.665 1591.39L540.799 1591.38ZM1265.28 1397.39C1260.58 1397.84 1256.16 1398.69 1251.32 1398.71C1246.62 1398.71 1241.64 1397.86 1236.73 1397.23C1237.29 1398.93 1237.92 1400.84 1238.47 1402.55L1266.11 1399.95L1265.35 1397.61L1265.28 1397.39ZM709.478 95.5232L686.803 97.6556C687.292 99.1445 687.71 100.421 688.064 101.922C695.926 102.279 703.859 102.849 711.721 103.206C710.884 100.653 710.181 98.0882 709.478 95.5232ZM1327.78 1815.78C1320.73 1815.79 1314.96 1815.89 1309.18 1816C1319.36 1824.25 1325.56 1824.18 1327.78 1815.78ZM973.557 111.69L962.555 112.724C962.903 113.788 963.386 114.839 963.939 116.102L974.592 114.004C974.592 114.004 973.97 112.528 973.557 111.69ZM1520.98 1221.4C1519.6 1223.94 1518.35 1226.47 1516.97 1229.01C1518.74 1231.04 1521.41 1234.95 1522.35 1234.87C1524.43 1234.45 1525.6 1231.71 1527.33 1229.79C1524.39 1225.9 1522.68 1223.65 1520.91 1221.63L1520.98 1221.4ZM1164.7 122.656C1163.62 122.319 1162.69 122.845 1161.75 122.934C1163.04 123.909 1164.4 125.535 1165.48 125.872C1166.42 126.221 1167.15 125.057 1167.95 124.543C1166.93 123.981 1165.78 122.993 1164.7 122.656ZM772.747 101.194C770.794 100.72 768.835 99.8077 767.021 99.7591C766.216 99.8348 765.69 100.761 765.025 101.262C766.715 102.2 768.341 103.362 770.032 104.3C770.96 103.335 771.819 102.158 772.747 101.194ZM1602.89 1257.77C1602.89 1257.77 1603.47 1261.66 1603.7 1263.61C1605.31 1263.46 1607.05 1263.3 1608.45 1262.51C1608.99 1262.46 1608.36 1260.1 1608.21 1258.8C1606.39 1258.32 1604.29 1257.42 1602.75 1257.78L1602.89 1257.77ZM-485.238 458.272C-484.224 458.834 -482.394 460.197 -482.131 459.733C-481.605 458.807 -481.964 456.867 -481.915 455.328C-482.855 455.416 -483.928 455.517 -484.937 455.393C-484.991 456.494 -485.114 457.383 -485.168 458.484L-485.238 458.272ZM904.513 106.124C901.223 106.214 897.934 106.304 894.778 106.381L896.242 110.848L905.769 109.952C905.35 108.676 904.932 107.4 904.513 106.124ZM1080.56 123.772C1081.44 124.347 1082.44 124.033 1083.32 124.17C1082.49 122.494 1081.8 120.805 1080.97 119.129C1080.31 119.63 1079.64 120.131 1078.98 120.632C1079.46 121.683 1079.88 123.397 1080.56 123.772Z" fill="#E0E9D3"/>
</g>
</svg>
